{"glyphs":{"0":{"ha":890,"x_min":83,"x_max":806,"o":"m 83 519 q 165 895 83 760 q 444 1031 246 1031 q 724 895 643 1031 q 806 519 806 760 q 724 140 806 276 q 444 3 643 3 q 165 140 246 3 q 83 519 83 276 m 650 519 q 635 710 650 632 q 576 837 621 788 q 444 886 532 886 q 313 837 357 886 q 253 710 268 788 q 239 519 239 632 q 253 324 239 403 q 312 196 267 244 q 444 147 357 147 q 577 196 532 147 q 636 324 622 244 q 650 519 650 403 z "},"1":{"ha":486,"x_min":63,"x_max":351,"o":"m 63 868 l 63 1013 l 351 1013 l 351 0 l 192 0 l 192 868 l 63 868 z "},"2":{"ha":801,"x_min":69,"x_max":746,"o":"m 171 215 q 381 405 304 331 q 510 560 458 479 q 561 721 561 640 q 522 851 561 804 q 397 899 482 899 q 270 847 315 899 q 222 707 225 794 l 69 707 q 165 949 74 865 q 396 1033 256 1033 q 633 950 547 1033 q 718 728 718 867 q 667 535 718 628 q 547 370 617 443 q 368 201 476 297 l 306 146 l 746 146 l 746 14 l 71 14 l 71 129 l 171 215 z "},"3":{"ha":825,"x_min":67,"x_max":742,"o":"m 81 763 q 180 964 89 892 q 413 1036 271 1036 q 581 1001 510 1036 q 688 907 651 967 q 724 772 724 847 q 678 625 724 686 q 568 543 632 564 l 568 538 q 696 447 650 513 q 742 278 742 381 q 704 132 742 196 q 593 31 667 68 q 417 -6 519 -6 q 170 72 267 -6 q 67 293 74 149 l 219 293 q 276 173 225 219 q 415 126 328 126 q 546 173 500 126 q 592 293 592 219 q 530 431 592 390 q 340 472 468 472 l 304 472 l 304 603 l 342 603 q 513 640 454 604 q 572 754 572 676 q 529 860 572 821 q 407 900 486 900 q 286 860 329 900 q 235 763 243 821 l 81 763 z "},"4":{"ha":899,"x_min":64,"x_max":851,"o":"m 64 211 l 64 331 l 531 1000 l 722 1000 l 722 349 l 851 349 l 851 211 l 722 211 l 722 0 l 567 0 l 567 211 l 64 211 m 574 839 l 246 349 l 574 349 l 574 839 z "},"5":{"ha":888,"x_min":103,"x_max":806,"o":"m 736 876 l 271 876 l 271 600 q 358 665 300 639 q 481 692 415 692 q 670 642 597 692 q 774 515 743 592 q 806 354 806 439 q 766 172 806 251 q 648 46 726 92 q 456 0 569 0 q 213 75 304 0 q 103 274 121 150 l 257 274 q 325 170 272 208 q 457 132 378 132 q 605 192 556 132 q 654 350 654 251 q 604 503 654 450 q 457 557 554 557 q 342 523 389 557 q 275 431 296 489 l 125 431 l 125 1015 l 736 1015 l 736 876 z "},"6":{"ha":892,"x_min":103,"x_max":806,"o":"m 628 778 q 572 874 613 842 q 460 906 532 906 q 296 822 350 906 q 239 543 242 738 q 344 638 275 604 q 494 671 414 671 q 656 631 586 671 q 766 517 726 592 q 806 338 806 442 q 767 164 806 240 q 654 44 729 88 q 474 0 579 0 q 249 63 331 0 q 135 242 168 126 q 103 529 103 357 q 461 1038 103 1038 q 680 963 600 1038 q 774 778 760 888 l 628 778 m 460 538 q 316 487 375 538 q 257 340 257 436 q 312 188 257 244 q 465 132 367 132 q 603 186 553 132 q 654 331 654 240 q 605 481 654 425 q 460 538 556 538 z "},"7":{"ha":778,"x_min":56,"x_max":725,"o":"m 725 890 l 339 0 l 179 0 l 569 874 l 56 874 l 56 1008 l 725 1008 l 725 890 z "},"8":{"ha":886,"x_min":85,"x_max":803,"o":"m 254 529 q 110 757 110 601 q 147 894 110 832 q 260 994 185 957 q 443 1031 335 1031 q 626 994 550 1031 q 739 894 701 957 q 776 757 776 832 q 737 620 776 679 q 632 529 697 561 q 757 434 711 500 q 803 279 803 368 q 757 119 803 189 q 629 13 711 50 q 443 -25 547 -25 q 258 13 339 -25 q 131 119 176 50 q 85 279 85 189 q 131 435 85 369 q 254 529 176 500 m 625 738 q 576 857 625 815 q 443 899 528 899 q 311 857 360 899 q 263 736 263 815 q 313 623 263 667 q 443 579 364 579 q 574 624 522 579 q 625 738 625 668 m 443 460 q 294 415 351 460 q 236 285 236 369 q 292 156 236 206 q 443 107 347 107 q 592 157 538 107 q 647 285 647 207 q 591 414 647 368 q 443 460 535 460 z "},"9":{"ha":882,"x_min":107,"x_max":792,"o":"m 281 275 q 340 169 294 206 q 464 133 386 133 q 608 211 563 133 q 654 476 654 289 q 560 403 621 429 q 429 378 500 378 q 265 415 339 378 q 149 524 192 451 q 107 701 107 597 q 197 945 107 854 q 443 1036 286 1036 q 712 910 632 1036 q 792 525 792 785 q 762 232 792 346 q 658 60 732 118 q 454 1 585 1 q 225 79 306 1 q 135 275 144 157 l 281 275 m 457 511 q 588 563 540 511 q 636 701 636 615 q 585 851 636 797 q 447 904 535 904 q 309 849 360 904 q 258 706 258 794 q 308 566 258 621 q 457 511 357 511 z "},"\u0000":{"ha":0,"x_min":0,"x_max":0,"o":""},"\r":{"ha":361,"x_min":0,"x_max":0,"o":""}," ":{"ha":361,"x_min":0,"x_max":0,"o":""},"अ":{"ha":1154,"x_min":97,"x_max":1186,"o":"m 1186 1028 l 1186 906 l 1017 906 l 1017 0 l 872 0 l 872 428 l 681 429 q 694 344 694 389 q 617 150 694 224 q 411 76 539 76 q 248 113 319 76 q 137 213 176 149 q 97 361 97 278 l 233 361 q 280 247 233 292 q 401 201 326 201 q 518 244 475 201 q 561 358 561 288 q 546 429 561 399 l 543 429 l 543 436 q 386 515 499 515 l 329 515 l 329 633 l 386 633 q 505 674 463 633 q 547 772 547 715 q 505 877 547 838 q 399 917 463 917 q 287 878 332 917 q 242 776 242 840 l 107 776 q 144 915 107 856 q 247 1008 181 975 q 399 1040 314 1040 q 601 972 524 1040 q 678 792 678 904 q 636 656 678 713 q 515 579 594 600 l 515 576 q 588 549 554 568 l 872 549 l 872 1028 l 1186 1028 z "},"आ":{"ha":1564,"x_min":97,"x_max":1606,"o":"m 1606 906 l 1436 906 l 1436 0 l 1290 0 l 1290 906 l 1017 906 l 1017 0 l 872 0 l 872 428 l 681 429 q 694 344 694 389 q 617 150 694 224 q 411 76 539 76 q 248 113 319 76 q 137 213 176 149 q 97 361 97 278 l 233 361 q 280 247 233 292 q 401 201 326 201 q 518 244 475 201 q 561 358 561 288 q 546 429 561 399 l 543 429 l 543 436 q 386 515 499 515 l 329 515 l 329 633 l 386 633 q 505 674 463 633 q 547 772 547 715 q 505 877 547 838 q 399 917 463 917 q 287 878 332 917 q 242 776 242 840 l 107 776 q 144 915 107 856 q 247 1008 181 975 q 399 1040 314 1040 q 601 972 524 1040 q 678 792 678 904 q 636 656 678 713 q 515 579 594 600 l 515 576 q 588 549 554 568 l 872 549 l 872 1028 l 1606 1028 l 1606 906 z "},"इ":{"ha":806,"x_min":-44,"x_max":850,"o":"m 399 653 q 294 631 336 653 q 251 551 251 608 q 288 476 251 500 q 383 453 325 453 l 444 453 q 649 396 567 453 q 731 211 731 339 q 665 44 731 110 q 483 -21 600 -21 q 341 15 396 -21 q 264 92 286 51 l 264 -110 l 126 -110 l 126 246 l 257 246 q 313 132 264 175 q 443 89 361 89 q 553 125 515 89 q 592 215 592 161 q 543 317 592 286 q 418 349 494 349 l 340 349 q 174 403 242 353 q 106 553 106 453 q 178 708 106 658 q 360 758 250 758 l 507 758 l 507 906 l -44 906 l -44 1028 l 850 1028 l 850 906 l 647 906 l 647 653 l 399 653 z "},"ई":{"ha":806,"x_min":-44,"x_max":993,"o":"m 753 1404 q 931 1336 868 1404 q 989 1156 993 1268 l 861 1156 q 835 1247 864 1213 q 756 1282 806 1282 q 644 1128 644 1282 l 644 1028 l 850 1028 l 850 906 l 647 906 l 647 653 l 399 653 q 294 631 336 653 q 251 551 251 608 q 288 476 251 500 q 383 453 325 453 l 444 453 q 649 396 567 453 q 731 211 731 339 q 665 44 731 110 q 483 -21 600 -21 q 341 15 396 -21 q 264 92 286 51 l 264 -110 l 126 -110 l 126 246 l 257 246 q 313 132 264 175 q 443 89 361 89 q 553 125 515 89 q 592 215 592 161 q 543 317 592 286 q 418 349 494 349 l 340 349 q 174 403 242 353 q 106 553 106 453 q 178 708 106 658 q 360 758 250 758 l 507 758 l 507 906 l -44 906 l -44 1028 l 508 1028 l 508 1126 q 567 1327 508 1250 q 753 1404 626 1404 z "},"उ":{"ha":794,"x_min":-33,"x_max":828,"o":"m 672 779 q 632 638 672 694 q 526 569 592 582 l 526 567 q 662 474 611 547 q 713 304 713 401 q 676 149 713 217 q 569 42 639 81 q 404 4 500 4 q 230 44 307 4 q 110 155 153 83 q 67 319 67 226 l 206 319 q 260 188 206 240 q 397 135 315 135 q 526 185 478 135 q 575 315 575 235 q 528 445 575 390 q 388 500 481 500 l 318 500 l 318 628 l 368 628 q 490 671 447 628 q 532 788 532 714 l 532 906 l -33 906 l -33 1028 l 828 1028 l 828 906 l 672 906 l 672 779 z "},"ऊ":{"ha":1196,"x_min":-33,"x_max":1228,"o":"m 672 779 q 632 638 672 694 q 526 569 592 582 l 526 567 l 803 567 q 1037 499 949 567 q 1125 293 1125 432 q 1051 101 1125 168 q 857 35 978 35 q 788 40 835 35 l 788 151 q 833 150 803 150 q 943 186 901 150 q 985 299 985 222 q 935 413 985 376 q 804 450 885 450 l 672 450 q 711 297 711 383 q 674 146 711 213 q 568 42 638 79 q 404 4 499 4 q 230 44 307 4 q 110 155 153 83 q 67 319 67 226 l 206 319 q 260 188 206 240 q 397 135 315 135 q 526 185 478 135 q 575 315 575 235 q 528 445 575 390 q 388 500 481 500 l 318 500 l 318 628 l 368 628 q 490 671 447 628 q 532 788 532 714 l 532 906 l -33 906 l -33 1028 l 1228 1028 l 1228 906 l 672 906 l 672 779 z "},"ऋ":{"ha":1431,"x_min":-33,"x_max":1464,"o":"m 818 906 l 818 614 l 1053 614 q 1161 710 1161 614 l 1161 782 l 1288 782 l 1288 292 l 1258 292 q 1149 255 1188 292 q 1110 160 1110 218 q 1152 62 1110 93 q 1263 31 1194 31 q 1342 42 1300 31 l 1342 -75 q 1243 -86 1292 -86 q 1047 -26 1124 -86 q 969 147 969 35 q 1021 296 969 236 q 1161 375 1072 356 l 1161 525 q 1032 497 1103 497 l 818 497 l 818 0 l 683 0 l 683 339 l 339 0 l 156 0 l 156 8 l 683 488 q 611 604 667 560 q 475 649 556 649 q 306 583 369 649 q 242 407 242 517 l 96 407 q 138 598 96 515 q 256 726 179 681 q 433 772 332 772 q 683 649 600 772 l 683 906 l -33 906 l -33 1028 l 1464 1028 l 1464 906 l 818 906 z "},"ॠ":{"ha":1383,"x_min":-33,"x_max":1465,"o":"m 818 906 l 818 614 l 1053 614 q 1161 710 1161 614 l 1161 782 l 1288 782 l 1288 289 l 1233 289 q 1147 267 1181 289 q 1113 196 1113 246 q 1148 127 1113 149 q 1239 106 1183 106 l 1308 106 l 1308 -4 l 1242 -4 q 1148 -26 1185 -4 q 1111 -100 1111 -49 q 1150 -171 1111 -149 q 1247 -193 1189 -193 q 1322 -186 1285 -193 q 1385 -171 1360 -179 l 1385 -281 q 1313 -299 1357 -292 q 1226 -307 1268 -307 q 1046 -259 1119 -307 q 972 -114 972 -211 q 1008 -9 972 -51 q 1101 46 1044 33 l 1101 50 q 1008 102 1043 64 q 972 203 972 140 q 1028 326 972 285 q 1161 371 1083 367 l 1161 525 q 1032 497 1103 497 l 818 497 l 818 0 l 683 0 l 683 339 l 339 0 l 156 0 l 156 8 l 683 488 q 611 604 667 560 q 475 649 556 649 q 306 583 369 649 q 242 407 242 517 l 96 407 q 138 598 96 515 q 256 726 179 681 q 433 772 332 772 q 683 649 600 772 l 683 906 l -33 906 l -33 1028 l 1465 1028 l 1465 906 l 818 906 z "},"ऌ":{"ha":1253,"x_min":-33,"x_max":1285,"o":"m 954 906 l 954 743 q 1106 636 1050 718 q 1163 428 1163 554 q 1140 289 1163 350 l 1131 289 q 1007 252 1049 289 q 965 156 965 215 q 1008 59 965 90 q 1119 28 1051 28 q 1200 39 1164 28 l 1200 -78 q 1103 -89 1153 -89 q 902 -28 979 -89 q 825 149 825 33 q 878 292 825 232 q 1013 368 931 353 q 1018 429 1018 394 q 976 568 1018 514 q 858 622 935 622 q 733 560 775 622 q 690 394 690 499 l 690 365 l 568 365 l 568 394 q 528 560 568 497 q 407 622 488 622 q 282 568 326 622 q 238 426 238 514 q 290 268 238 325 q 438 211 343 211 l 476 214 l 476 86 q 429 85 458 85 q 178 178 267 85 q 90 428 90 272 q 128 602 90 529 q 234 713 167 675 q 388 751 301 751 q 544 697 485 751 q 626 561 603 643 l 631 561 q 694 677 650 628 q 813 744 739 726 l 813 906 l -33 906 l -33 1028 l 1285 1028 l 1285 906 l 954 906 z "},"ॡ":{"ha":1265,"x_min":-33,"x_max":1293,"o":"m 954 906 l 954 743 q 1106 636 1050 718 q 1163 428 1163 554 q 1140 289 1163 350 l 1092 289 q 1005 267 1039 289 q 971 196 971 246 q 1006 127 971 149 q 1097 106 1042 106 l 1167 106 l 1167 -4 l 1100 -4 q 1006 -26 1043 -4 q 969 -100 969 -49 q 1008 -171 969 -149 q 1106 -193 1047 -193 q 1182 -186 1143 -193 q 1243 -171 1221 -179 l 1243 -281 q 1171 -299 1215 -292 q 1085 -307 1126 -307 q 904 -259 978 -307 q 831 -112 831 -211 q 867 -9 831 -51 q 960 46 903 33 l 960 50 q 866 102 901 64 q 831 203 831 140 q 883 323 831 282 q 1013 369 936 364 q 1018 429 1018 396 q 976 568 1018 514 q 858 622 935 622 q 733 560 775 622 q 690 394 690 499 l 690 365 l 568 365 l 568 394 q 528 560 568 497 q 407 622 488 622 q 282 568 326 622 q 238 426 238 514 q 290 268 238 325 q 438 211 343 211 l 476 214 l 476 86 q 429 85 458 85 q 178 178 267 85 q 90 428 90 272 q 128 602 90 529 q 234 713 167 675 q 388 751 301 751 q 544 697 485 751 q 626 561 603 643 l 631 561 q 694 677 650 628 q 813 744 739 726 l 813 906 l -33 906 l -33 1028 l 1293 1028 l 1293 906 l 954 906 z "},"ए":{"ha":906,"x_min":-33,"x_max":939,"o":"m 494 607 q 524 606 504 606 q 621 644 590 606 q 651 764 651 682 l 651 906 l 279 906 l 279 374 q 329 210 279 268 q 472 151 379 151 q 607 202 558 151 q 656 343 656 253 l 799 343 q 712 110 799 194 q 475 26 625 26 q 221 121 307 26 q 135 378 135 215 l 133 906 l -33 906 l -33 1028 l 939 1028 l 939 906 l 793 906 l 793 760 q 738 544 793 615 q 556 472 682 472 q 494 476 528 472 l 494 607 z "},"ऐ":{"ha":906,"x_min":-33,"x_max":939,"o":"m 494 607 q 524 606 504 606 q 621 644 590 606 q 651 764 651 682 l 651 906 l 279 906 l 279 374 q 329 210 279 268 q 472 151 379 151 q 607 202 558 151 q 656 343 656 253 l 799 343 q 712 110 799 194 q 475 26 625 26 q 221 121 307 26 q 135 378 135 215 l 133 906 l -33 906 l -33 1028 l 646 1028 q 537 1178 579 1132 q 453 1238 494 1224 q 342 1251 413 1251 l 279 1251 l 279 1371 l 339 1371 q 506 1349 444 1369 q 631 1256 568 1328 q 785 1028 694 1185 l 939 1028 l 939 906 l 793 906 l 793 760 q 738 544 793 615 q 556 472 682 472 q 494 476 528 472 l 494 607 z "},"ओ":{"ha":1572,"x_min":97,"x_max":1606,"o":"m 1606 1028 l 1606 906 l 1436 906 l 1436 0 l 1290 0 l 1290 906 l 1017 906 l 1017 0 l 872 0 l 872 428 l 681 429 q 694 344 694 389 q 617 150 694 224 q 411 76 539 76 q 248 113 319 76 q 137 213 176 149 q 97 361 97 278 l 233 361 q 280 247 233 292 q 401 201 326 201 q 518 244 475 201 q 561 358 561 288 q 546 429 561 399 l 543 429 l 543 436 q 386 515 499 515 l 329 515 l 329 633 l 386 633 q 505 674 463 633 q 547 772 547 715 q 505 877 547 838 q 399 917 463 917 q 287 878 332 917 q 242 776 242 840 l 107 776 q 144 915 107 856 q 247 1008 181 975 q 399 1040 314 1040 q 601 972 524 1040 q 678 792 678 904 q 636 656 678 713 q 515 579 594 600 l 515 576 q 588 549 554 568 l 872 549 l 872 1028 l 1289 1028 q 1180 1178 1222 1132 q 1097 1238 1138 1224 q 985 1251 1056 1251 l 922 1251 l 922 1371 l 982 1371 q 1149 1349 1088 1369 q 1274 1256 1211 1328 q 1428 1028 1338 1185 l 1606 1028 z "},"औ":{"ha":1572,"x_min":97,"x_max":1606,"o":"m 1606 1028 l 1606 906 l 1436 906 l 1436 0 l 1290 0 l 1290 906 l 1017 906 l 1017 0 l 872 0 l 872 428 l 681 429 q 694 344 694 389 q 617 150 694 224 q 411 76 539 76 q 248 113 319 76 q 137 213 176 149 q 97 361 97 278 l 233 361 q 280 247 233 292 q 401 201 326 201 q 518 244 475 201 q 561 358 561 288 q 546 429 561 399 l 543 429 l 543 436 q 386 515 499 515 l 329 515 l 329 633 l 386 633 q 505 674 463 633 q 547 772 547 715 q 505 877 547 838 q 399 917 463 917 q 287 878 332 917 q 242 776 242 840 l 107 776 q 144 915 107 856 q 247 1008 181 975 q 399 1040 314 1040 q 601 972 524 1040 q 678 792 678 904 q 636 656 678 713 q 515 579 594 600 l 515 576 q 588 549 554 568 l 872 549 l 872 1028 l 1299 1028 q 1175 1113 1217 1089 q 1094 1142 1133 1136 q 974 1149 1054 1149 l 910 1149 l 910 1242 l 971 1242 q 1089 1236 1049 1242 q 1171 1209 1129 1231 q 1275 1138 1213 1188 q 1171 1292 1217 1243 q 1085 1352 1125 1340 q 976 1364 1044 1364 l 910 1364 l 910 1458 l 974 1458 q 1137 1435 1081 1458 q 1256 1324 1193 1411 q 1426 1028 1319 1236 l 1606 1028 z "},"ऍ":{"ha":906,"x_min":-33,"x_max":939,"o":"m 494 607 q 524 606 504 606 q 621 644 590 606 q 651 764 651 682 l 651 906 l 279 906 l 279 374 q 329 210 279 268 q 472 151 379 151 q 607 202 558 151 q 656 343 656 253 l 799 343 q 712 110 799 194 q 475 26 625 26 q 221 121 307 26 q 135 378 135 215 l 133 906 l -33 906 l -33 1028 l 939 1028 l 939 906 l 793 906 l 793 760 q 738 544 793 615 q 556 472 682 472 q 494 476 528 472 l 494 607 m 753 1414 q 677 1229 753 1303 q 456 1156 601 1156 q 233 1228 308 1156 q 158 1414 158 1301 l 285 1414 q 328 1308 285 1351 q 456 1265 371 1265 q 584 1308 540 1265 q 628 1414 628 1351 l 753 1414 z "},"ॲ":{"ha":1157,"x_min":97,"x_max":1253,"o":"m 1186 1028 l 1186 906 l 1017 906 l 1017 0 l 872 0 l 872 428 l 681 429 q 694 344 694 389 q 617 150 694 224 q 411 76 539 76 q 248 113 319 76 q 137 213 176 149 q 97 361 97 278 l 233 361 q 280 247 233 292 q 401 201 326 201 q 518 244 475 201 q 561 358 561 288 q 546 429 561 399 l 543 429 l 543 436 q 386 515 499 515 l 329 515 l 329 633 l 386 633 q 505 674 463 633 q 547 772 547 715 q 505 877 547 838 q 399 917 463 917 q 287 878 332 917 q 242 776 242 840 l 107 776 q 144 915 107 856 q 247 1008 181 975 q 399 1040 314 1040 q 601 972 524 1040 q 678 792 678 904 q 636 656 678 713 q 515 579 594 600 l 515 576 q 588 549 554 568 l 872 549 l 872 1028 l 1186 1028 m 1253 1418 q 1177 1233 1253 1307 q 956 1160 1101 1160 q 733 1233 808 1160 q 658 1418 658 1306 l 785 1418 q 828 1313 785 1356 q 956 1269 871 1269 q 1084 1313 1040 1269 q 1128 1418 1128 1356 l 1253 1418 z "},"ऑ":{"ha":1572,"x_min":97,"x_max":1606,"o":"m 1606 906 l 1436 906 l 1436 0 l 1290 0 l 1290 906 l 1017 906 l 1017 0 l 872 0 l 872 428 l 681 429 q 694 344 694 389 q 617 150 694 224 q 411 76 539 76 q 248 113 319 76 q 137 213 176 149 q 97 361 97 278 l 233 361 q 280 247 233 292 q 401 201 326 201 q 518 244 475 201 q 561 358 561 288 q 546 429 561 399 l 543 429 l 543 436 q 386 515 499 515 l 329 515 l 329 633 l 386 633 q 505 674 463 633 q 547 772 547 715 q 505 877 547 838 q 399 917 463 917 q 287 878 332 917 q 242 776 242 840 l 107 776 q 144 915 107 856 q 247 1008 181 975 q 399 1040 314 1040 q 601 972 524 1040 q 678 792 678 904 q 636 656 678 713 q 515 579 594 600 l 515 576 q 588 549 554 568 l 872 549 l 872 1028 l 1606 1028 l 1606 906 m 1454 1414 q 1378 1229 1454 1303 q 1157 1156 1303 1156 q 935 1228 1010 1156 q 860 1414 860 1301 l 986 1414 q 1029 1308 986 1351 q 1157 1265 1072 1265 q 1285 1308 1242 1265 q 1329 1414 1329 1351 l 1454 1414 z "},"ा":{"ha":418,"x_min":-33,"x_max":451,"o":"m 136 0 l 136 906 l -33 906 l -33 1028 l 451 1028 l 451 906 l 282 906 l 282 0 l 136 0 z "},"ि":{"ha":418,"x_min":-33,"x_max":1231,"o":"m 683 1397 q 960 1353 836 1397 q 1158 1224 1085 1310 q 1231 1018 1231 1138 l 1231 994 l 1085 994 l 1085 1015 q 1026 1165 1085 1107 q 876 1251 968 1224 q 683 1278 785 1278 q 401 1220 518 1278 q 281 1028 285 1163 l 451 1028 l 451 906 l 282 906 l 282 0 l 136 0 l 136 906 l -33 906 l -33 1028 l 136 1028 q 212 1233 139 1150 q 408 1356 285 1315 q 683 1397 531 1397 z "},"ी":{"ha":418,"x_min":-282,"x_max":451,"o":"m 451 1028 l 451 906 l 282 906 l 282 0 l 136 0 l 136 906 l -33 906 l -33 1028 l 140 1028 l 140 1085 q 110 1220 140 1165 q 1 1275 79 1275 q -108 1220 -76 1275 q -140 1085 -140 1165 l -140 994 l -282 994 l -282 1078 q -214 1310 -282 1224 q 1 1397 -146 1397 q 217 1311 151 1397 q 282 1078 282 1225 l 282 1028 l 451 1028 z "},"ु":{"ha":0,"x_min":-614,"x_max":4,"o":"m 4 -187 q -72 -367 4 -301 q -279 -432 -147 -432 q -519 -358 -424 -432 q -610 -132 -614 -283 l -481 -132 q -430 -272 -485 -225 q -283 -318 -375 -318 q -163 -283 -207 -318 q -119 -186 -119 -249 q -153 -102 -119 -136 q -244 -68 -186 -68 l -282 -68 l -282 46 l -244 46 q -60 -18 -125 46 q 4 -187 4 -82 z "},"ू":{"ha":0,"x_min":-490,"x_max":133,"o":"m -197 -417 q -250 -418 -215 -418 q -422 -360 -354 -418 q -490 -194 -490 -301 q -414 -22 -490 -86 q -214 42 -337 42 q 47 -68 -39 42 q 133 -354 133 -178 q 132 -410 133 -392 l 13 -410 l 13 -344 q -48 -140 13 -212 q -214 -68 -108 -68 q -328 -102 -285 -68 q -372 -196 -372 -136 q -335 -281 -372 -250 q -242 -312 -297 -312 q -197 -310 -231 -312 l -197 -417 z "},"ृ":{"ha":0,"x_min":-467,"x_max":-62,"o":"m -62 -422 q -190 -442 -118 -442 q -386 -382 -306 -442 q -467 -199 -467 -322 q -394 -24 -467 -90 q -193 43 -321 43 q -136 42 -147 43 l -136 -58 l -182 -58 q -288 -97 -250 -58 q -326 -193 -326 -135 q -282 -292 -326 -261 q -168 -324 -237 -324 q -62 -308 -111 -324 l -62 -422 z "},"ॄ":{"ha":0,"x_min":-439,"x_max":-26,"o":"m -26 -610 q -99 -628 -54 -621 q -185 -635 -143 -635 q -366 -587 -293 -635 q -439 -443 -439 -540 q -403 -337 -439 -379 q -308 -282 -367 -294 l -308 -278 q -403 -226 -368 -264 q -437 -125 -437 -189 q -376 2 -437 -39 q -231 43 -314 43 l -136 43 l -136 -39 l -176 -39 q -265 -60 -231 -39 q -299 -132 -299 -82 q -263 -201 -299 -179 q -172 -224 -228 -224 l -103 -224 l -103 -332 l -168 -332 q -262 -354 -225 -332 q -299 -428 -299 -376 q -260 -499 -299 -478 q -162 -521 -222 -521 q -86 -514 -125 -521 q -26 -500 -47 -507 l -26 -610 z "},"ॢ":{"ha":0,"x_min":-604,"x_max":215,"o":"m 156 -557 q 215 -549 193 -557 l 215 -642 q 143 -649 181 -649 q -8 -603 50 -649 q -67 -472 -67 -557 q -28 -365 -67 -410 q 71 -308 10 -321 q 74 -269 74 -296 q 45 -169 74 -207 q -39 -131 17 -131 q -127 -175 -97 -131 q -157 -293 -157 -219 l -157 -314 l -253 -314 l -253 -293 q -282 -175 -253 -219 q -368 -131 -311 -131 q -458 -169 -426 -131 q -489 -271 -489 -207 q -451 -382 -489 -342 q -347 -422 -414 -422 q -318 -419 -326 -422 l -318 -519 q -353 -521 -331 -521 q -538 -452 -472 -521 q -604 -269 -604 -383 q -542 -93 -604 -157 q -385 -29 -481 -29 q -269 -69 -312 -29 q -208 -167 -226 -108 l -206 -167 q -142 -69 -187 -108 q -21 -29 -96 -29 q 131 -94 71 -29 q 190 -269 190 -158 q 175 -371 190 -321 l 167 -371 q 74 -397 106 -371 q 43 -465 43 -424 q 76 -534 43 -511 q 156 -557 108 -557 z "},"ॣ":{"ha":0,"x_min":-604,"x_max":246,"o":"m 146 -721 q 201 -716 174 -721 q 246 -706 229 -711 l 246 -792 q 194 -803 226 -799 q 129 -808 161 -808 q -5 -774 49 -808 q -58 -667 -58 -739 q -32 -588 -58 -619 q 36 -549 -6 -557 l 36 -546 q -33 -507 -7 -536 q -58 -431 -58 -478 q -21 -341 -58 -372 q 72 -306 17 -310 q 74 -269 74 -293 q 45 -169 74 -207 q -39 -131 17 -131 q -127 -175 -97 -131 q -157 -293 -157 -219 l -157 -314 l -253 -314 l -253 -293 q -282 -175 -253 -219 q -368 -131 -311 -131 q -458 -169 -426 -131 q -489 -271 -489 -207 q -451 -382 -489 -342 q -347 -422 -414 -422 q -318 -419 -326 -422 l -318 -519 q -353 -521 -331 -521 q -538 -452 -472 -521 q -604 -269 -604 -383 q -542 -93 -604 -157 q -385 -29 -481 -29 q -269 -69 -312 -29 q -208 -167 -226 -108 l -206 -167 q -142 -69 -187 -108 q -21 -29 -96 -29 q 131 -94 71 -29 q 190 -269 190 -158 q 175 -371 190 -321 l 136 -371 q 74 -386 99 -371 q 50 -436 50 -401 q 75 -485 50 -469 q 142 -501 100 -501 l 190 -501 l 190 -587 l 144 -587 q 49 -656 49 -587 q 76 -706 49 -690 q 146 -721 103 -721 z "},"े":{"ha":0,"x_min":-646,"x_max":-137,"o":"m -275 1022 q -386 1176 -343 1129 q -470 1237 -429 1222 q -583 1251 -511 1251 l -646 1251 l -646 1371 l -586 1371 q -417 1348 -479 1369 q -292 1254 -356 1326 q -137 1022 -229 1182 l -275 1022 z "},"ै":{"ha":0,"x_min":-657,"x_max":-137,"o":"m -593 1458 q -430 1435 -486 1458 q -310 1323 -374 1411 q -137 1024 -246 1235 l -262 1024 q -390 1111 -347 1088 q -472 1142 -432 1135 q -593 1149 -512 1149 l -657 1149 l -657 1242 l -596 1242 q -478 1236 -518 1242 q -396 1209 -437 1231 q -292 1138 -354 1188 q -396 1292 -350 1243 q -482 1352 -442 1340 q -590 1364 -522 1364 l -657 1364 l -657 1458 l -593 1458 z "},"ो":{"ha":419,"x_min":-226,"x_max":451,"o":"m 451 1028 l 451 906 l 282 906 l 282 0 l 136 0 l 136 906 l -33 906 l -33 1028 l 140 1028 q 31 1178 74 1132 q -52 1238 -11 1224 q -164 1251 -93 1251 l -226 1251 l -226 1371 l -167 1371 q 1 1349 -61 1369 q 126 1256 63 1328 q 279 1028 189 1185 l 451 1028 z "},"ौ":{"ha":418,"x_min":-243,"x_max":451,"o":"m 451 1028 l 451 906 l 282 906 l 282 0 l 136 0 l 136 906 l -33 906 l -33 1028 l 146 1028 q 22 1113 64 1089 q -59 1142 -19 1136 q -179 1149 -99 1149 l -243 1149 l -243 1242 l -182 1242 q -64 1236 -104 1242 q 18 1209 -24 1231 q 122 1138 60 1188 q 18 1292 64 1243 q -68 1352 -28 1340 q -176 1364 -108 1364 l -243 1364 l -243 1458 l -179 1458 q -16 1435 -72 1458 q 103 1324 40 1411 q 274 1028 167 1236 l 451 1028 z "},"ॅ":{"ha":0,"x_min":-514,"x_max":81,"o":"m 81 1392 q 5 1207 81 1281 q -217 1133 -71 1133 q -439 1206 -364 1133 q -514 1392 -514 1279 l -387 1392 q -344 1286 -387 1329 q -217 1243 -301 1243 q -88 1286 -132 1243 q -44 1392 -44 1329 l 81 1392 z "},"ॉ":{"ha":419,"x_min":-87,"x_max":507,"o":"m 136 0 l 136 906 l -33 906 l -33 1028 l 451 1028 l 451 906 l 282 906 l 282 0 l 136 0 m 507 1392 q 431 1207 507 1281 q 210 1133 356 1133 q -12 1206 63 1133 q -87 1392 -87 1279 l 39 1392 q 82 1286 39 1329 q 210 1243 125 1243 q 338 1286 294 1243 q 382 1392 382 1329 l 507 1392 z "},"क":{"ha":1369,"x_min":-33,"x_max":1401,"o":"m 764 906 l 764 635 q 852 730 794 694 q 992 765 910 765 q 1142 724 1076 765 q 1243 612 1207 683 q 1279 449 1279 540 q 1242 278 1279 350 q 1139 169 1204 207 q 990 131 1074 131 q 901 140 940 131 l 901 256 q 953 250 922 250 q 1081 302 1031 250 q 1132 446 1132 354 q 1080 586 1132 532 q 949 640 1028 640 q 810 579 857 640 q 764 433 764 518 l 764 0 l 624 0 l 624 254 q 531 158 592 194 q 383 122 469 122 q 231 163 297 122 q 127 276 164 203 q 90 446 90 349 q 128 614 90 542 q 233 726 165 686 q 389 765 301 765 q 532 731 472 765 q 624 638 592 696 l 624 906 l -33 906 l -33 1028 l 1401 1028 l 1401 906 l 764 906 m 431 244 q 537 274 493 244 q 602 349 581 303 q 624 443 624 394 q 574 581 624 522 q 431 640 524 640 q 293 587 349 640 q 238 444 238 533 q 292 299 238 353 q 431 244 346 244 z "},"ख":{"ha":1307,"x_min":-33,"x_max":1340,"o":"m 1340 1028 l 1340 906 l 1171 906 l 1171 0 l 1026 0 l 1026 278 q 948 206 997 232 q 831 179 899 179 q 781 183 806 179 q 657 47 738 99 q 468 -6 576 -6 q 206 89 303 -6 q 108 351 108 183 l 108 556 l 154 556 q 298 601 247 556 q 349 756 349 646 l 349 906 l -33 906 l -33 1028 l 1340 1028 m 472 121 q 590 151 542 121 q 667 231 639 182 q 587 329 615 268 q 558 467 558 390 q 594 613 558 549 q 691 713 629 678 q 831 749 753 749 q 948 722 899 749 q 1026 650 997 696 l 1026 906 l 494 906 l 494 738 q 428 525 494 594 q 253 450 363 456 l 253 335 q 311 180 253 239 q 472 121 369 121 m 860 292 q 983 344 940 292 q 1026 464 1026 396 q 984 585 1026 533 q 860 636 942 636 q 738 590 788 636 q 689 467 689 544 q 738 338 689 385 q 860 292 786 292 z "},"ग":{"ha":1064,"x_min":-33,"x_max":1096,"o":"m 1096 1028 l 1096 906 l 926 906 l 926 0 l 782 0 l 782 906 l 556 906 l 556 549 q 495 361 556 433 q 311 289 435 289 q 126 356 190 289 q 61 540 61 424 q 63 583 61 569 l 204 583 l 204 540 q 228 450 204 486 q 307 414 253 414 q 387 451 364 414 q 410 543 410 488 l 410 906 l -33 906 l -33 1028 l 1096 1028 z "},"घ":{"ha":982,"x_min":-33,"x_max":1015,"o":"m 1015 906 l 847 906 l 847 0 l 700 0 l 700 285 q 583 179 657 217 q 415 142 508 142 q 194 208 279 142 q 108 396 108 274 q 158 534 108 479 q 282 604 208 589 l 282 607 q 171 670 213 621 q 129 811 129 719 l 129 906 l -33 906 l -33 1028 l 1015 1028 l 1015 906 m 700 906 l 275 906 l 275 818 q 315 705 275 743 q 446 667 356 667 l 508 667 l 508 549 l 435 549 q 300 510 344 549 q 256 410 256 472 q 309 299 256 338 q 449 261 363 261 q 576 291 518 261 q 667 375 633 321 q 700 499 700 429 l 700 906 z "},"ङ":{"ha":933,"x_min":-33,"x_max":967,"o":"m 967 1028 l 967 906 l 651 906 l 651 653 l 403 653 q 299 631 340 653 q 257 553 257 608 q 293 476 257 500 q 386 453 329 453 l 449 453 q 651 396 569 453 q 733 215 733 339 q 656 42 733 107 q 435 -22 578 -22 q 187 51 281 -22 q 90 246 93 124 l 235 246 q 288 132 236 175 q 431 89 339 89 q 553 124 510 89 q 596 217 596 160 q 547 317 596 286 q 422 349 499 349 l 368 349 q 188 397 264 349 q 111 557 111 444 q 183 708 111 660 q 363 757 256 757 l 510 757 l 510 906 l -33 906 l -33 1028 l 967 1028 m 825 621 q 885 597 861 621 q 910 536 910 572 q 885 477 910 501 q 825 453 860 453 q 765 477 790 453 q 740 536 740 501 q 765 597 740 572 q 825 621 790 621 z "},"च":{"ha":1028,"x_min":-33,"x_max":1061,"o":"m 1061 906 l 892 906 l 892 0 l 746 0 l 746 265 q 638 167 706 203 q 486 132 571 132 q 338 165 404 132 q 233 259 272 197 q 194 406 194 321 q 222 525 194 472 q 300 611 249 578 l 69 611 l 69 726 l 576 726 l 576 611 l 525 611 q 385 560 439 611 q 332 429 332 510 q 388 300 332 347 q 528 253 444 253 q 685 322 625 254 q 746 493 746 390 l 746 906 l -33 906 l -33 1028 l 1061 1028 l 1061 906 z "},"छ":{"ha":1138,"x_min":-33,"x_max":1171,"o":"m 879 906 l 879 753 q 1022 658 968 732 q 1075 468 1075 585 q 1011 238 1075 336 q 829 88 947 140 q 554 35 711 35 q 222 113 346 35 q 97 340 97 192 q 147 489 97 431 q 278 565 197 547 l 278 569 q 168 632 210 582 q 126 774 126 682 l 126 906 l -33 906 l -33 1028 l 1171 1028 l 1171 906 l 879 906 m 744 906 l 271 906 l 271 779 q 310 666 271 704 q 433 628 349 628 l 463 628 l 463 510 l 436 510 q 292 466 340 510 q 244 354 244 422 q 326 210 244 260 q 556 160 407 160 q 840 243 733 160 q 946 474 946 326 q 906 604 946 557 q 811 651 867 651 q 720 615 758 651 q 682 506 682 578 q 704 383 682 450 l 583 383 q 560 521 560 447 q 610 678 560 621 q 744 753 661 736 l 744 906 z "},"ज":{"ha":1175,"x_min":-33,"x_max":1208,"o":"m 1208 906 l 1039 906 l 1039 0 l 893 0 l 893 564 l 660 564 l 660 458 q 583 249 660 329 q 376 169 507 169 q 169 249 243 169 q 94 458 94 328 l 94 689 l 242 689 l 242 461 q 278 342 242 386 q 378 297 314 297 q 481 342 443 297 q 518 461 518 386 l 518 689 l 893 689 l 893 906 l -33 906 l -33 1028 l 1208 1028 l 1208 906 z "},"झ":{"ha":1188,"x_min":-33,"x_max":1221,"o":"m 1221 906 l 1051 906 l 1051 0 l 908 0 l 908 342 l 675 343 q 726 197 726 285 q 665 46 726 104 q 490 -12 604 -12 q 350 20 403 -12 q 271 89 297 53 l 271 -110 l 133 -110 l 133 238 l 264 238 q 319 135 272 175 q 447 96 367 96 q 555 130 518 96 q 592 215 592 164 q 547 313 592 278 q 418 349 503 349 l 340 349 q 174 403 242 353 q 106 553 106 453 q 178 708 106 658 q 360 758 250 758 l 507 758 l 507 906 l -33 906 l -33 1028 l 1221 1028 l 1221 906 m 908 453 l 908 906 l 647 906 l 647 653 l 399 653 q 294 631 336 653 q 251 551 251 608 q 288 476 251 500 q 383 453 325 453 l 444 453 l 908 453 z "},"ञ":{"ha":1135,"x_min":-33,"x_max":1168,"o":"m 1168 906 l 999 906 l 999 0 l 853 0 l 853 383 l 717 383 q 617 185 700 260 q 401 110 535 110 q 245 142 313 110 q 138 232 178 175 q 90 360 99 289 l 228 360 q 288 269 243 306 q 403 233 333 233 q 540 292 492 233 q 589 439 589 351 q 540 584 589 525 q 403 643 492 643 q 287 606 332 643 q 228 517 242 569 l 90 517 q 185 697 103 626 q 401 767 267 767 q 613 695 531 767 q 715 507 696 624 l 853 507 l 853 906 l -33 906 l -33 1028 l 1168 1028 l 1168 906 z "},"ट":{"ha":901,"x_min":-33,"x_max":935,"o":"m 500 638 q 310 577 383 638 q 236 401 236 517 q 301 240 236 303 q 469 176 367 176 q 640 242 575 176 q 706 413 706 308 l 844 413 q 799 223 844 306 q 668 95 753 140 q 472 50 583 50 q 275 94 363 50 q 139 219 188 139 q 90 401 90 299 q 140 595 90 514 q 281 719 190 676 q 492 761 371 761 l 513 761 l 513 906 l -33 906 l -33 1028 l 935 1028 l 935 906 l 656 906 l 656 638 l 500 638 z "},"ठ":{"ha":936,"x_min":-33,"x_max":969,"o":"m 539 906 l 539 754 q 760 642 674 733 q 847 410 847 551 q 798 226 847 306 q 662 102 749 146 q 468 58 575 58 q 275 102 361 58 q 140 226 189 146 q 90 410 90 306 q 176 641 90 550 q 394 754 261 732 l 394 906 l -33 906 l -33 1028 l 969 1028 l 969 906 l 539 906 m 703 410 q 638 573 703 510 q 468 636 572 636 q 300 573 365 636 q 235 410 235 510 q 265 292 235 344 q 348 210 294 239 q 468 181 401 181 q 638 245 572 181 q 703 410 703 310 z "},"ड":{"ha":794,"x_min":-33,"x_max":826,"o":"m 403 653 q 299 631 340 653 q 257 553 257 608 q 293 476 257 500 q 386 453 329 453 l 449 453 q 651 396 569 453 q 733 215 733 339 q 656 42 733 107 q 435 -22 578 -22 q 187 51 281 -22 q 90 246 93 124 l 235 246 q 288 132 236 175 q 431 89 339 89 q 553 124 510 89 q 596 217 596 160 q 547 317 596 286 q 422 349 499 349 l 368 349 q 188 397 264 349 q 111 557 111 444 q 183 708 111 660 q 363 757 256 757 l 504 757 l 504 906 l -33 906 l -33 1028 l 826 1028 l 826 906 l 644 906 l 644 653 l 403 653 z "},"ढ":{"ha":896,"x_min":-33,"x_max":929,"o":"m 542 665 q 317 593 403 665 q 231 385 231 521 q 265 243 231 306 q 365 146 300 181 q 519 111 431 111 q 675 157 614 111 q 736 279 736 203 q 702 368 736 333 q 615 403 668 403 q 538 374 569 403 q 506 297 506 344 q 510 271 506 282 l 403 271 q 399 317 399 294 q 461 457 399 406 q 621 508 524 508 q 796 445 731 508 q 861 279 861 382 q 769 78 861 153 q 517 4 676 4 q 299 51 396 4 q 146 185 201 97 q 90 389 90 272 q 143 597 90 511 q 288 725 196 682 q 497 768 379 768 l 544 768 l 544 906 l -33 906 l -33 1028 l 929 1028 l 929 906 l 682 906 l 682 665 l 542 665 z "},"ण":{"ha":1204,"x_min":-33,"x_max":1238,"o":"m 1238 906 l 1068 906 l 1068 0 l 922 0 l 922 906 l 676 906 l 676 525 q 604 318 676 397 q 399 239 532 239 q 194 319 267 239 q 122 525 122 399 l 122 906 l -33 906 l -33 1028 l 1238 1028 l 1238 906 m 533 906 l 265 906 l 265 511 q 302 403 265 444 q 400 363 339 363 q 498 403 463 363 q 533 511 533 444 l 533 906 z "},"त":{"ha":969,"x_min":-33,"x_max":1003,"o":"m 1003 906 l 833 906 l 833 0 l 688 0 l 688 564 l 493 564 q 306 507 374 564 q 238 342 238 450 q 298 177 238 236 q 472 118 358 118 l 501 118 l 501 3 l 451 3 q 189 90 288 3 q 90 344 90 176 q 199 603 90 517 q 486 689 307 689 l 688 689 l 688 906 l -33 906 l -33 1028 l 1003 1028 l 1003 906 z "},"थ":{"ha":1075,"x_min":100,"x_max":1108,"o":"m 1108 1028 l 1108 906 l 939 906 l 939 0 l 793 0 l 793 301 q 681 181 761 231 q 482 131 600 131 q 279 177 365 131 q 147 310 193 224 q 100 514 100 397 q 106 594 100 557 l 238 594 q 515 779 515 594 q 480 876 515 838 q 385 915 444 915 q 285 877 322 915 q 249 774 249 839 q 254 717 249 753 l 122 717 q 117 778 117 756 q 151 919 117 860 q 248 1009 186 978 q 386 1040 310 1040 q 525 1007 465 1040 q 618 913 585 974 q 651 775 651 853 q 555 563 651 636 q 292 489 458 489 l 240 489 q 310 317 243 382 q 503 253 376 253 q 649 287 583 253 q 754 387 715 321 q 793 542 793 453 l 793 1028 l 1108 1028 z "},"द":{"ha":847,"x_min":-33,"x_max":881,"o":"m 474 640 q 305 586 371 640 q 239 435 239 532 q 292 293 239 346 q 433 240 344 240 q 557 285 504 240 q 610 411 610 329 l 744 411 l 744 -29 l 601 -29 l 601 219 q 516 149 571 175 q 393 124 461 124 q 238 160 307 124 q 130 268 169 197 q 90 439 90 339 q 139 618 90 544 q 271 728 188 692 q 460 765 354 765 l 546 765 l 546 906 l -33 906 l -33 1028 l 881 1028 l 879 906 l 692 906 l 692 640 l 474 640 z "},"ध":{"ha":997,"x_min":106,"x_max":1036,"o":"m 1036 906 l 869 906 l 869 0 l 724 0 l 724 282 q 602 169 681 210 q 421 128 524 128 q 201 192 288 128 q 115 372 115 256 q 165 510 115 457 q 282 574 215 563 l 282 578 q 156 654 207 596 q 106 807 106 713 q 174 976 106 911 q 350 1040 242 1040 q 523 978 460 1040 q 586 815 586 915 q 583 767 586 797 l 474 767 l 475 799 q 443 884 475 850 q 354 918 411 918 q 264 882 297 918 q 231 792 231 846 q 286 678 231 718 q 432 638 342 638 l 513 638 l 513 519 l 438 519 q 309 484 354 519 q 264 388 264 449 q 317 284 264 319 q 456 249 369 249 q 594 283 533 249 q 689 378 654 317 q 724 519 724 440 l 724 1028 l 1036 1028 l 1036 906 z "},"न":{"ha":1110,"x_min":-33,"x_max":1143,"o":"m 1143 906 l 974 906 l 974 0 l 828 0 l 828 575 l 586 575 q 649 401 649 503 q 613 263 649 322 q 513 174 576 204 q 372 143 450 143 q 225 177 292 143 q 120 274 158 211 q 82 419 82 336 q 122 569 82 507 q 230 665 161 632 q 385 697 299 697 l 828 697 l 828 906 l -33 906 l -33 1028 l 1143 1028 l 1143 906 m 375 267 q 488 310 444 267 q 532 421 532 353 q 488 531 532 488 q 375 575 443 575 q 259 531 304 575 q 214 419 214 488 q 258 309 214 351 q 375 267 303 267 z "},"प":{"ha":918,"x_min":-33,"x_max":951,"o":"m 951 906 l 782 906 l 782 0 l 638 0 l 638 364 q 546 286 603 314 q 413 258 489 258 q 188 353 265 258 q 111 607 111 447 l 111 906 l -33 906 l -33 1028 l 951 1028 l 951 906 m 638 906 l 257 906 l 257 607 q 304 442 257 501 q 449 382 351 382 q 588 440 538 382 q 638 582 638 497 l 638 906 z "},"फ":{"ha":1368,"x_min":-33,"x_max":1401,"o":"m 757 906 l 757 635 q 849 730 789 694 q 993 765 910 765 q 1142 725 1076 765 q 1243 614 1207 685 q 1279 453 1279 543 q 1242 280 1279 353 q 1140 169 1206 207 q 990 131 1074 131 q 897 142 939 131 l 897 256 q 954 249 925 249 q 1082 302 1032 249 q 1132 446 1132 356 q 1081 586 1132 532 q 949 640 1029 640 q 806 576 854 640 q 757 418 757 511 l 757 0 l 611 0 l 611 361 q 524 285 578 313 q 400 258 471 258 q 185 351 260 258 q 111 600 111 443 l 111 906 l -33 906 l -33 1028 l 1401 1028 l 1401 906 l 757 906 m 611 906 l 257 906 l 257 600 q 301 440 257 497 q 435 382 346 382 q 565 438 518 382 q 611 575 611 493 l 611 906 z "},"ब":{"ha":957,"x_min":-33,"x_max":989,"o":"m 989 1028 l 989 906 l 821 906 l 821 0 l 681 0 l 681 243 q 581 149 646 185 q 428 114 515 114 q 256 156 333 114 q 135 273 179 197 q 90 447 90 349 q 134 621 90 546 q 254 738 178 696 q 425 779 331 779 q 576 744 511 779 q 681 650 642 708 l 681 906 l -33 906 l -33 1028 l 989 1028 m 454 682 q 297 626 361 682 l 654 326 q 688 450 688 383 q 660 563 688 510 q 581 649 633 617 q 454 682 528 682 m 218 447 q 250 326 218 378 q 336 247 282 275 q 456 219 390 219 q 613 276 551 219 l 253 576 q 218 447 218 522 z "},"भ":{"ha":1128,"x_min":97,"x_max":1161,"o":"m 1161 1028 l 1161 906 l 990 906 l 990 0 l 844 0 l 844 515 l 633 515 l 633 419 q 565 201 633 278 q 368 124 496 124 q 172 194 246 124 q 97 381 97 265 q 176 568 97 501 q 379 635 256 635 l 497 635 l 497 758 q 469 874 497 832 q 385 915 442 915 q 303 881 335 915 q 272 786 272 846 q 278 736 272 760 l 132 736 q 126 792 126 769 q 193 972 126 904 q 379 1040 260 1040 q 573 958 513 1040 q 633 733 633 876 l 633 635 l 844 635 l 844 1028 l 1161 1028 m 497 515 l 383 515 q 274 479 315 515 q 233 381 233 443 q 271 283 233 319 q 367 247 308 247 q 463 291 429 247 q 497 413 497 335 l 497 515 z "},"म":{"ha":1115,"x_min":-33,"x_max":1147,"o":"m 1147 906 l 978 906 l 978 0 l 832 0 l 832 515 l 600 515 l 600 419 q 531 201 600 278 q 333 124 463 124 q 138 194 211 124 q 64 381 64 265 q 142 568 64 501 q 344 635 221 635 l 464 635 l 464 906 l -33 906 l -33 1028 l 1147 1028 l 1147 906 m 832 906 l 600 906 l 600 635 l 832 635 l 832 906 m 464 515 l 349 515 q 240 479 282 515 q 199 381 199 443 q 236 283 199 319 q 332 247 274 247 q 429 291 394 247 q 464 413 464 335 l 464 515 z "},"य":{"ha":1032,"x_min":-33,"x_max":1065,"o":"m 1065 906 l 896 906 l 896 0 l 750 0 l 750 278 q 635 180 708 217 q 460 143 561 143 q 187 249 283 143 q 90 535 90 354 q 94 606 90 571 l 113 606 q 290 656 232 606 q 349 819 349 707 l 349 906 l -33 906 l -33 1028 l 1065 1028 l 1065 906 m 750 906 l 493 906 l 493 794 q 233 526 493 542 l 233 521 q 301 335 233 404 q 490 265 369 265 q 624 297 564 265 q 717 386 683 329 q 750 515 750 443 l 750 906 z "},"र":{"ha":742,"x_min":-33,"x_max":775,"o":"m 250 454 l 250 281 q 285 158 250 204 q 388 113 319 113 q 487 155 450 113 q 524 268 524 197 l 524 299 l 664 299 l 664 272 q 591 65 664 142 q 390 -12 518 -12 q 180 70 253 -12 q 107 288 107 153 l 107 574 l 251 574 q 478 790 478 574 l 478 906 l -33 906 l -33 1028 l 775 1028 l 775 906 l 622 906 l 622 790 q 544 542 622 629 q 303 454 467 454 l 250 454 z "},"ल":{"ha":1260,"x_min":-33,"x_max":1292,"o":"m 971 906 l 971 733 q 1116 625 1063 706 q 1169 424 1169 544 q 1131 246 1169 324 q 1015 124 1092 168 q 831 79 939 79 q 783 82 819 79 l 783 210 l 822 207 q 969 265 917 207 q 1022 421 1022 324 q 979 563 1022 508 q 858 618 936 618 q 733 556 775 618 q 690 390 690 494 l 690 365 l 568 365 l 568 390 q 528 556 568 493 q 407 618 488 618 q 282 564 326 618 q 238 421 238 510 q 290 265 238 324 q 438 207 343 207 l 476 210 l 476 82 q 429 79 440 79 q 244 124 321 79 q 129 246 168 168 q 90 424 90 324 q 128 597 90 525 q 234 708 167 669 q 388 746 301 746 q 545 692 486 746 q 628 558 604 639 l 632 558 q 701 678 653 628 q 828 742 749 728 l 828 906 l -33 906 l -33 1028 l 1292 1028 l 1292 906 l 971 906 z "},"व":{"ha":933,"x_min":-33,"x_max":967,"o":"m 967 1028 l 967 906 l 797 906 l 797 0 l 656 0 l 656 251 q 556 155 619 190 q 406 119 493 119 q 240 161 311 119 q 129 278 168 203 q 90 450 90 353 q 130 616 90 543 q 241 730 169 689 q 406 771 313 771 q 556 736 492 771 q 656 640 619 701 l 656 906 l -33 906 l -33 1028 l 967 1028 m 443 236 q 560 267 513 236 q 632 344 608 297 q 656 443 656 392 l 656 444 q 632 545 656 497 q 560 623 608 593 q 443 653 513 653 q 293 596 353 653 q 233 446 233 539 q 292 293 233 350 q 443 236 351 236 z "},"श":{"ha":1147,"x_min":115,"x_max":1181,"o":"m 263 431 l 263 294 q 301 165 263 214 q 418 115 339 115 q 526 160 488 115 q 565 279 565 206 l 565 299 l 707 299 l 707 278 q 631 66 707 143 q 422 -11 554 -11 q 196 74 276 -11 q 115 304 115 160 l 115 554 l 315 554 q 502 603 429 554 q 575 751 575 651 q 535 870 575 826 q 425 914 494 914 q 315 870 356 914 q 275 751 275 826 q 278 694 275 733 l 133 694 q 128 756 128 736 q 164 905 128 840 q 267 1005 200 969 q 425 1040 335 1040 q 641 962 560 1040 q 722 742 722 883 q 623 510 722 590 q 367 431 524 431 l 263 431 m 1181 1028 l 1181 906 l 1011 906 l 1011 0 l 864 0 l 864 1028 l 1181 1028 z "},"ष":{"ha":931,"x_min":-33,"x_max":964,"o":"m 964 906 l 794 906 l 794 0 l 651 0 l 651 358 q 559 277 617 306 q 421 249 501 249 q 191 346 271 249 q 111 607 111 443 l 111 906 l -33 906 l -33 1028 l 964 1028 l 964 906 m 651 906 l 254 906 l 651 599 l 651 906 m 450 372 q 569 406 521 372 q 638 497 618 440 l 251 796 l 251 603 q 301 433 251 494 q 450 372 351 372 z "},"स":{"ha":1142,"x_min":-33,"x_max":1175,"o":"m 1175 906 l 1004 906 l 1004 0 l 860 0 l 860 465 l 250 465 l 250 282 q 285 159 250 206 q 390 113 321 113 q 492 155 456 113 q 529 268 529 197 l 529 285 l 669 285 q 671 261 671 275 q 597 61 671 135 q 393 -12 522 -12 q 181 71 256 -12 q 107 289 107 154 l 107 571 l 228 571 q 398 629 342 571 q 454 789 454 688 l 454 906 l -33 906 l -33 1028 l 1175 1028 l 1175 906 m 860 906 l 599 906 l 599 789 q 532 585 599 665 l 860 585 l 860 906 z "},"ह":{"ha":814,"x_min":-33,"x_max":846,"o":"m 406 657 q 311 633 347 657 q 275 558 275 610 q 296 497 275 522 q 353 460 317 472 q 428 467 392 467 q 645 399 567 467 q 739 229 724 332 l 600 229 q 542 314 588 278 q 425 350 497 350 q 290 297 340 350 q 240 161 240 243 q 290 26 240 78 q 425 -26 339 -26 q 540 8 494 -26 q 600 92 586 43 l 739 92 q 689 -29 729 25 q 581 -115 649 -83 q 425 -147 514 -147 q 249 -107 324 -147 q 136 3 175 -67 q 97 164 97 74 q 134 315 97 249 q 239 419 171 381 q 160 486 189 444 q 131 586 131 528 q 192 717 131 671 q 356 763 253 763 l 517 763 l 517 906 l -33 906 l -33 1028 l 846 1028 l 846 906 l 656 906 l 656 657 l 406 657 z "},"ळ":{"ha":1371,"x_min":-33,"x_max":1403,"o":"m 1057 906 l 1057 739 q 1219 629 1157 711 q 1281 431 1281 547 q 1240 266 1281 338 q 1126 155 1199 194 q 967 115 1054 115 q 792 166 865 115 q 688 300 718 217 l 682 300 q 579 166 653 217 q 404 115 506 115 q 244 155 317 115 q 131 266 172 194 q 90 431 90 338 q 131 598 90 525 q 244 710 172 671 q 403 750 315 750 q 573 701 501 750 q 683 568 644 653 l 688 568 q 778 688 719 642 q 915 746 836 735 l 915 906 l -33 906 l -33 1028 l 1403 1028 l 1403 906 l 1057 906 m 424 240 q 561 293 508 240 q 614 431 614 346 q 561 571 614 517 q 424 625 508 625 q 285 571 339 625 q 232 429 232 517 q 286 292 232 344 q 424 240 340 240 m 1138 429 q 1084 571 1138 517 q 947 625 1031 625 q 810 571 863 625 q 757 431 757 517 q 809 293 757 346 q 946 240 861 240 q 1084 292 1031 240 q 1138 429 1138 344 z "},"क़":{"ha":1369,"x_min":-33,"x_max":1401,"o":"m 764 906 l 764 635 q 852 730 794 694 q 992 765 910 765 q 1142 724 1076 765 q 1243 612 1207 683 q 1279 449 1279 540 q 1242 278 1279 350 q 1139 169 1204 207 q 990 131 1074 131 q 901 140 940 131 l 901 256 q 953 250 922 250 q 1081 302 1031 250 q 1132 446 1132 354 q 1080 586 1132 532 q 949 640 1028 640 q 810 579 857 640 q 764 433 764 518 l 764 0 l 624 0 l 624 254 q 531 158 592 194 q 383 122 469 122 q 231 163 297 122 q 127 276 164 203 q 90 446 90 349 q 128 614 90 542 q 233 726 165 686 q 389 765 301 765 q 532 731 472 765 q 624 638 592 696 l 624 906 l -33 906 l -33 1028 l 1401 1028 l 1401 906 l 764 906 m 431 244 q 537 274 493 244 q 602 349 581 303 q 624 443 624 394 q 574 581 624 522 q 431 640 524 640 q 293 587 349 640 q 238 444 238 533 q 292 299 238 353 q 431 244 346 244 m 454 -74 q 428 -138 454 -112 q 361 -164 401 -164 q 296 -138 322 -164 q 269 -74 269 -112 q 296 -8 269 -35 q 361 19 322 19 q 427 -8 400 19 q 454 -74 454 -35 z "},"ख़":{"ha":1307,"x_min":-33,"x_max":1340,"o":"m 1340 1028 l 1340 906 l 1171 906 l 1171 0 l 1026 0 l 1026 278 q 948 206 997 232 q 831 179 899 179 q 781 183 806 179 q 657 47 738 99 q 468 -6 576 -6 q 206 89 303 -6 q 108 351 108 183 l 108 556 l 154 556 q 298 601 247 556 q 349 756 349 646 l 349 906 l -33 906 l -33 1028 l 1340 1028 m 472 121 q 590 151 542 121 q 667 231 639 182 q 587 329 615 268 q 558 467 558 390 q 594 613 558 549 q 691 713 629 678 q 831 749 753 749 q 948 722 899 749 q 1026 650 997 696 l 1026 906 l 494 906 l 494 738 q 428 525 494 594 q 253 450 363 456 l 253 335 q 311 180 253 239 q 472 121 369 121 m 860 292 q 983 344 940 292 q 1026 464 1026 396 q 984 585 1026 533 q 860 636 942 636 q 738 590 788 636 q 689 467 689 544 q 738 338 689 385 q 860 292 786 292 m 535 -197 q 508 -262 535 -236 q 442 -287 482 -287 q 376 -262 403 -287 q 350 -197 350 -236 q 376 -131 350 -158 q 442 -104 403 -104 q 508 -131 481 -104 q 535 -197 535 -158 z "},"ग़":{"ha":1063,"x_min":-33,"x_max":1096,"o":"m 1096 1028 l 1096 906 l 926 906 l 926 0 l 782 0 l 782 906 l 556 906 l 556 549 q 495 361 556 433 q 311 289 435 289 q 126 356 190 289 q 61 540 61 424 q 63 583 61 569 l 204 583 l 204 540 q 228 450 204 486 q 307 414 253 414 q 387 451 364 414 q 410 543 410 488 l 410 906 l -33 906 l -33 1028 l 1096 1028 m 408 89 q 382 24 408 50 q 315 -1 356 -1 q 250 24 276 -1 q 224 89 224 50 q 250 155 224 128 q 315 182 276 182 q 381 155 354 182 q 408 89 408 128 z "},"ज़":{"ha":1175,"x_min":-33,"x_max":1208,"o":"m 1208 906 l 1039 906 l 1039 0 l 893 0 l 893 564 l 660 564 l 660 458 q 583 249 660 329 q 376 169 507 169 q 169 249 243 169 q 94 458 94 328 l 94 689 l 242 689 l 242 461 q 278 342 242 386 q 378 297 314 297 q 481 342 443 297 q 518 461 518 386 l 518 689 l 893 689 l 893 906 l -33 906 l -33 1028 l 1208 1028 l 1208 906 m 474 -25 q 447 -90 474 -64 q 381 -115 421 -115 q 315 -90 342 -115 q 289 -25 289 -64 q 315 41 289 14 q 381 68 342 68 q 447 41 419 68 q 474 -25 474 14 z "},"ड़":{"ha":794,"x_min":-33,"x_max":826,"o":"m 403 653 q 299 631 340 653 q 257 553 257 608 q 293 476 257 500 q 386 453 329 453 l 449 453 q 651 396 569 453 q 733 215 733 339 q 656 42 733 107 q 435 -22 578 -22 q 187 51 281 -22 q 90 246 93 124 l 235 246 q 288 132 236 175 q 431 89 339 89 q 553 124 510 89 q 596 217 596 160 q 547 317 596 286 q 422 349 499 349 l 368 349 q 188 397 264 349 q 111 557 111 444 q 183 708 111 660 q 363 757 256 757 l 504 757 l 504 906 l -33 906 l -33 1028 l 826 1028 l 826 906 l 644 906 l 644 653 l 403 653 m 522 -217 q 496 -281 522 -256 q 429 -307 469 -307 q 364 -281 390 -307 q 338 -217 338 -256 q 364 -151 338 -178 q 429 -124 390 -124 q 495 -151 468 -124 q 522 -217 522 -178 z "},"ढ़":{"ha":896,"x_min":-33,"x_max":929,"o":"m 542 665 q 317 593 403 665 q 231 385 231 521 q 265 243 231 306 q 365 146 300 181 q 519 111 431 111 q 675 157 614 111 q 736 279 736 203 q 702 368 736 333 q 615 403 668 403 q 538 374 569 403 q 506 297 506 344 q 510 271 506 282 l 403 271 q 399 317 399 294 q 461 457 399 406 q 621 508 524 508 q 796 445 731 508 q 861 279 861 382 q 769 78 861 153 q 517 4 676 4 q 299 51 396 4 q 146 185 201 97 q 90 389 90 272 q 143 597 90 511 q 288 725 196 682 q 497 768 379 768 l 544 768 l 544 906 l -33 906 l -33 1028 l 929 1028 l 929 906 l 682 906 l 682 665 l 542 665 m 578 -189 q 551 -253 578 -228 q 485 -279 525 -279 q 419 -253 446 -279 q 393 -189 393 -228 q 419 -123 393 -150 q 485 -96 446 -96 q 551 -123 524 -96 q 578 -189 578 -150 z "},"फ़":{"ha":1368,"x_min":-33,"x_max":1401,"o":"m 757 906 l 757 635 q 849 730 789 694 q 993 765 910 765 q 1142 725 1076 765 q 1243 614 1207 685 q 1279 453 1279 543 q 1242 280 1279 353 q 1140 169 1206 207 q 990 131 1074 131 q 897 142 939 131 l 897 256 q 954 249 925 249 q 1082 302 1032 249 q 1132 446 1132 356 q 1081 586 1132 532 q 949 640 1029 640 q 806 576 854 640 q 757 418 757 511 l 757 0 l 611 0 l 611 361 q 524 285 578 313 q 400 258 471 258 q 185 351 260 258 q 111 600 111 443 l 111 906 l -33 906 l -33 1028 l 1401 1028 l 1401 906 l 757 906 m 611 906 l 257 906 l 257 600 q 301 440 257 497 q 435 382 346 382 q 565 438 518 382 q 611 575 611 493 l 611 906 m 440 69 q 414 5 440 31 q 347 -21 388 -21 q 282 5 308 -21 q 256 69 256 31 q 282 135 256 108 q 347 163 308 163 q 413 135 386 163 q 440 69 440 108 z "},"ऱ":{"ha":742,"x_min":-33,"x_max":775,"o":"m 250 454 l 250 281 q 285 158 250 204 q 388 113 319 113 q 487 155 450 113 q 524 268 524 197 l 524 299 l 664 299 l 664 272 q 591 65 664 142 q 390 -12 518 -12 q 180 70 253 -12 q 107 288 107 153 l 107 574 l 251 574 q 478 790 478 574 l 478 906 l -33 906 l -33 1028 l 775 1028 l 775 906 l 622 906 l 622 790 q 544 542 622 629 q 303 454 467 454 l 250 454 m 250 -153 q 224 -217 250 -192 q 157 -243 197 -243 q 92 -217 118 -243 q 65 -153 65 -192 q 92 -87 65 -114 q 157 -60 118 -60 q 223 -87 196 -60 q 250 -153 250 -114 z "},"ं":{"ha":0,"x_min":-303,"x_max":-118,"o":"m -118 1243 q -144 1178 -118 1204 q -210 1151 -171 1151 q -276 1178 -249 1151 q -303 1243 -303 1204 q -276 1308 -303 1282 q -210 1335 -249 1335 q -144 1308 -171 1335 q -118 1243 -118 1282 z "},"ँ":{"ha":0,"x_min":-514,"x_max":81,"o":"m -151 1431 q -170 1384 -151 1403 q -217 1365 -189 1365 q -263 1385 -244 1365 q -282 1431 -282 1404 q -263 1477 -282 1458 q -217 1496 -244 1496 q -170 1477 -189 1496 q -151 1431 -151 1458 m 81 1392 q 3 1206 81 1278 q -217 1133 -74 1133 q -437 1206 -360 1133 q -514 1392 -514 1278 l -396 1392 q -349 1284 -396 1329 q -217 1239 -301 1239 q -85 1284 -132 1239 q -37 1392 -37 1329 l 81 1392 z "},"ः":{"ha":342,"x_min":78,"x_max":264,"o":"m 264 674 q 237 608 264 635 q 171 582 210 582 q 105 608 132 582 q 78 674 78 635 q 105 739 78 713 q 171 765 132 765 q 237 739 210 765 q 264 674 264 713 m 264 257 q 237 192 264 218 q 171 165 210 165 q 105 192 132 165 q 78 257 78 218 q 105 322 78 296 q 171 349 132 349 q 237 322 210 349 q 264 257 264 296 z "},"ऽ":{"ha":808,"x_min":97,"x_max":689,"o":"m 97 79 l 97 203 l 422 203 q 499 224 472 203 q 526 281 526 246 q 493 358 526 321 q 386 456 460 396 q 280 550 321 510 q 210 643 239 590 q 181 757 181 696 q 240 890 181 846 q 397 933 300 933 l 689 933 l 689 810 l 432 810 q 357 794 385 810 q 329 736 329 778 q 363 656 329 694 q 471 557 397 618 q 576 464 535 504 q 645 372 617 424 q 674 260 674 319 q 617 129 674 179 q 458 79 560 79 l 97 79 z "},"्":{"ha":0,"x_min":-278,"x_max":44,"o":"m -106 -368 l -278 -82 l -132 -82 l 44 -368 l -106 -368 z "},"़":{"ha":0,"x_min":-560,"x_max":-375,"o":"m -375 -161 q -401 -226 -375 -200 q -468 -251 -428 -251 q -533 -226 -507 -251 q -560 -161 -560 -200 q -533 -95 -560 -122 q -468 -68 -507 -68 q -402 -95 -429 -68 q -375 -161 -375 -122 z "},"०":{"ha":890,"x_min":83,"x_max":806,"o":"m 83 519 q 165 895 83 760 q 444 1031 246 1031 q 724 895 643 1031 q 806 519 806 760 q 724 140 806 276 q 444 3 643 3 q 165 140 246 3 q 83 519 83 276 m 650 519 q 635 710 650 632 q 576 837 621 788 q 444 886 532 886 q 313 837 357 886 q 253 710 268 788 q 239 519 239 632 q 253 324 239 403 q 312 196 267 244 q 444 147 357 147 q 577 196 532 147 q 636 324 622 244 q 650 519 650 403 z "},"१":{"ha":486,"x_min":63,"x_max":351,"o":"m 63 868 l 63 1013 l 351 1013 l 351 0 l 192 0 l 192 868 l 63 868 z "},"२":{"ha":801,"x_min":69,"x_max":746,"o":"m 171 215 q 381 405 304 331 q 510 560 458 479 q 561 721 561 640 q 522 851 561 804 q 397 899 482 899 q 270 847 315 899 q 222 707 225 794 l 69 707 q 165 949 74 865 q 396 1033 256 1033 q 633 950 547 1033 q 718 728 718 867 q 667 535 718 628 q 547 370 617 443 q 368 201 476 297 l 306 146 l 746 146 l 746 14 l 71 14 l 71 129 l 171 215 z "},"३":{"ha":825,"x_min":67,"x_max":742,"o":"m 81 763 q 180 964 89 892 q 413 1036 271 1036 q 581 1001 510 1036 q 688 907 651 967 q 724 772 724 847 q 678 625 724 686 q 568 543 632 564 l 568 538 q 696 447 650 513 q 742 278 742 381 q 704 132 742 196 q 593 31 667 68 q 417 -6 519 -6 q 170 72 267 -6 q 67 293 74 149 l 219 293 q 276 173 225 219 q 415 126 328 126 q 546 173 500 126 q 592 293 592 219 q 530 431 592 390 q 340 472 468 472 l 304 472 l 304 603 l 342 603 q 513 640 454 604 q 572 754 572 676 q 529 860 572 821 q 407 900 486 900 q 286 860 329 900 q 235 763 243 821 l 81 763 z "},"४":{"ha":899,"x_min":64,"x_max":851,"o":"m 64 211 l 64 331 l 531 1000 l 722 1000 l 722 349 l 851 349 l 851 211 l 722 211 l 722 0 l 567 0 l 567 211 l 64 211 m 574 839 l 246 349 l 574 349 l 574 839 z "},"५":{"ha":888,"x_min":103,"x_max":806,"o":"m 736 876 l 271 876 l 271 600 q 358 665 300 639 q 481 692 415 692 q 670 642 597 692 q 774 515 743 592 q 806 354 806 439 q 766 172 806 251 q 648 46 726 92 q 456 0 569 0 q 213 75 304 0 q 103 274 121 150 l 257 274 q 325 170 272 208 q 457 132 378 132 q 605 192 556 132 q 654 350 654 251 q 604 503 654 450 q 457 557 554 557 q 342 523 389 557 q 275 431 296 489 l 125 431 l 125 1015 l 736 1015 l 736 876 z "},"६":{"ha":892,"x_min":103,"x_max":806,"o":"m 628 778 q 572 874 613 842 q 460 906 532 906 q 296 822 350 906 q 239 543 242 738 q 344 638 275 604 q 494 671 414 671 q 656 631 586 671 q 766 517 726 592 q 806 338 806 442 q 767 164 806 240 q 654 44 729 88 q 474 0 579 0 q 249 63 331 0 q 135 242 168 126 q 103 529 103 357 q 461 1038 103 1038 q 680 963 600 1038 q 774 778 760 888 l 628 778 m 460 538 q 316 487 375 538 q 257 340 257 436 q 312 188 257 244 q 465 132 367 132 q 603 186 553 132 q 654 331 654 240 q 605 481 654 425 q 460 538 556 538 z "},"७":{"ha":778,"x_min":56,"x_max":725,"o":"m 725 890 l 339 0 l 179 0 l 569 874 l 56 874 l 56 1008 l 725 1008 l 725 890 z "},"८":{"ha":886,"x_min":85,"x_max":803,"o":"m 254 529 q 110 757 110 601 q 147 894 110 832 q 260 994 185 957 q 443 1031 335 1031 q 626 994 550 1031 q 739 894 701 957 q 776 757 776 832 q 737 620 776 679 q 632 529 697 561 q 757 434 711 500 q 803 279 803 368 q 757 119 803 189 q 629 13 711 50 q 443 -25 547 -25 q 258 13 339 -25 q 131 119 176 50 q 85 279 85 189 q 131 435 85 369 q 254 529 176 500 m 625 738 q 576 857 625 815 q 443 899 528 899 q 311 857 360 899 q 263 736 263 815 q 313 623 263 667 q 443 579 364 579 q 574 624 522 579 q 625 738 625 668 m 443 460 q 294 415 351 460 q 236 285 236 369 q 292 156 236 206 q 443 107 347 107 q 592 157 538 107 q 647 285 647 207 q 591 414 647 368 q 443 460 535 460 z "},"९":{"ha":882,"x_min":107,"x_max":792,"o":"m 281 275 q 340 169 294 206 q 464 133 386 133 q 608 211 563 133 q 654 476 654 289 q 560 403 621 429 q 429 378 500 378 q 265 415 339 378 q 149 524 192 451 q 107 701 107 597 q 197 945 107 854 q 443 1036 286 1036 q 712 910 632 1036 q 792 525 792 785 q 762 232 792 346 q 658 60 732 118 q 454 1 585 1 q 225 79 306 1 q 135 275 144 157 l 281 275 m 457 511 q 588 563 540 511 q 636 701 636 615 q 585 851 636 797 q 447 904 535 904 q 309 849 360 904 q 258 706 258 794 q 308 566 258 621 q 457 511 357 511 z "},"ॐ":{"ha":1474,"x_min":106,"x_max":1360,"o":"m 794 1258 q 748 1277 767 1258 q 729 1324 729 1296 q 748 1371 729 1351 q 794 1390 767 1390 q 841 1371 822 1390 q 860 1324 860 1351 q 841 1277 860 1296 q 794 1258 822 1258 m 794 1026 q 574 1098 650 1026 q 497 1285 497 1169 l 614 1285 q 661 1177 614 1222 q 794 1132 708 1132 q 926 1177 879 1132 q 974 1285 974 1222 l 1092 1285 q 1015 1098 1092 1169 q 794 1026 938 1026 m 1079 951 q 1294 865 1228 951 q 1360 608 1360 778 l 1360 425 q 1272 130 1360 229 q 1000 31 1183 31 q 863 44 946 31 l 863 167 q 975 156 929 156 q 1164 224 1110 156 q 1218 429 1218 292 l 1218 626 q 1186 776 1218 725 q 1079 828 1154 828 q 976 785 1008 828 q 944 668 944 742 q 884 464 944 525 q 685 401 824 403 q 706 292 706 350 q 626 92 706 167 q 418 17 547 17 q 255 52 326 17 q 144 152 183 88 q 106 301 106 217 l 243 301 q 290 187 243 232 q 410 142 336 142 q 527 187 483 142 q 571 306 571 232 q 527 419 571 371 q 394 467 483 467 l 338 467 l 338 590 l 394 590 q 515 633 472 590 q 557 736 557 676 q 513 847 557 806 q 406 888 469 888 q 295 849 339 888 q 251 747 251 811 l 115 747 q 152 886 115 826 q 256 978 189 946 q 407 1011 322 1011 q 612 941 533 1011 q 690 756 690 871 q 648 614 690 672 q 526 535 606 556 l 526 531 q 574 515 560 522 l 656 515 q 771 549 733 515 q 808 669 808 583 q 872 878 808 806 q 1079 951 935 951 z "},"॰":{"ha":678,"x_min":107,"x_max":572,"o":"m 342 706 q 508 642 444 706 q 572 478 572 579 q 508 316 572 379 q 342 253 443 253 q 220 282 274 253 q 137 363 167 311 q 107 479 107 414 q 173 642 107 579 q 342 706 239 706 m 342 617 q 238 578 279 617 q 197 479 197 539 q 238 381 197 419 q 342 342 279 342 q 441 380 403 342 q 479 478 479 418 q 440 578 479 539 q 342 617 401 617 z "},"।":{"ha":417,"x_min":214,"x_max":358,"o":"m 358 1029 l 358 0 l 214 0 l 214 1029 l 358 1029 z "},"॥":{"ha":735,"x_min":214,"x_max":675,"o":"m 358 1029 l 358 0 l 214 0 l 214 1029 l 358 1029 m 675 1029 l 675 0 l 531 0 l 531 1029 l 675 1029 z "},"₨":{"ha":1593,"x_min":104,"x_max":1469,"o":"m 779 678 q 720 503 779 581 q 539 401 661 425 l 794 0 l 601 0 l 360 392 l 263 392 l 263 0 l 104 0 l 104 965 l 438 965 q 626 927 549 965 q 741 824 703 889 q 779 678 779 758 m 263 515 l 438 515 q 572 558 528 515 q 617 678 617 601 q 572 799 617 756 q 438 842 528 842 l 263 842 l 263 515 m 1022 551 q 1046 493 1022 515 q 1106 459 1069 471 q 1206 433 1143 447 q 1342 394 1290 414 q 1432 331 1394 375 q 1469 213 1469 288 q 1431 96 1469 147 q 1325 16 1393 44 q 1171 -12 1257 -12 q 956 51 1038 -12 q 865 233 874 115 l 1029 233 q 1071 144 1033 176 q 1171 113 1108 113 q 1276 141 1238 113 q 1314 215 1314 169 q 1290 275 1314 253 q 1228 309 1265 297 q 1126 335 1190 321 q 992 373 1043 354 q 903 433 940 392 q 867 546 867 475 q 903 663 867 610 q 1008 747 939 715 q 1169 778 1076 778 q 1376 712 1297 778 q 1460 532 1454 646 l 1297 532 q 1258 621 1293 589 q 1158 653 1222 653 q 1058 624 1094 653 q 1022 551 1022 596 z "},"₹":{"ha":864,"x_min":64,"x_max":819,"o":"m 658 747 l 658 728 l 819 728 l 819 614 l 650 614 q 592 466 635 521 q 472 387 550 411 q 271 363 394 363 l 271 275 q 303 154 271 199 q 414 110 336 110 q 556 269 556 110 l 701 269 q 626 58 700 129 q 411 -14 551 -14 q 197 64 271 -14 q 122 282 122 142 l 122 472 q 349 481 276 472 q 456 519 421 490 q 503 614 492 549 l 64 614 l 64 728 l 510 728 l 510 747 l 510 851 l 64 851 l 64 967 l 819 967 l 819 851 l 658 851 l 658 747 z "},"‌":{"ha":0,"x_min":-32,"x_max":33,"o":"m -32 -319 l -32 1126 l 33 1126 l 33 -319 l -32 -319 z "},"‍":{"ha":0,"x_min":-178,"x_max":178,"o":"m 132 778 l 32 882 l 32 -319 l -33 -319 l -33 882 l -129 781 l -175 826 l -46 956 l -178 1088 l -132 1133 l 0 1001 l 133 1133 l 178 1089 l 44 956 l 178 824 l 132 778 z "},"◌":{"ha":904,"x_min":69,"x_max":835,"o":"m 478 692 q 461 649 478 665 q 418 633 444 633 q 375 649 392 633 q 358 692 358 665 q 375 734 358 718 q 418 750 392 750 q 461 734 444 750 q 478 692 478 718 m 646 671 q 629 628 646 644 q 586 613 613 613 q 543 628 560 613 q 526 671 526 644 q 543 713 526 697 q 586 729 560 729 q 629 713 613 729 q 646 671 646 697 m 315 633 q 299 591 315 607 q 256 575 282 575 q 213 591 229 575 q 196 633 196 607 q 213 676 196 660 q 256 692 229 692 q 299 676 282 692 q 315 633 315 660 m 774 568 q 757 526 774 542 q 714 510 740 510 q 671 526 688 510 q 654 568 654 542 q 671 610 654 594 q 714 626 688 626 q 757 610 740 626 q 774 568 774 594 m 210 496 q 193 453 210 469 q 150 438 176 438 q 107 453 124 438 q 90 496 90 469 q 107 538 90 522 q 150 554 124 554 q 193 538 176 554 q 210 496 210 522 m 835 410 q 818 367 835 383 q 775 351 801 351 q 732 367 749 351 q 715 410 715 383 q 732 452 715 436 q 775 468 749 468 q 818 452 801 468 q 835 410 835 436 m 189 328 q 172 285 189 301 q 129 269 156 269 q 86 285 103 269 q 69 328 69 301 q 86 370 69 354 q 129 386 103 386 q 172 370 156 386 q 189 328 189 354 m 821 243 q 804 201 821 217 q 761 185 788 185 q 718 201 735 185 q 701 243 701 217 q 718 285 701 269 q 761 301 735 301 q 804 285 788 301 q 821 243 821 269 m 251 171 q 235 128 251 144 q 192 113 218 113 q 149 128 165 113 q 132 171 132 144 q 149 213 132 197 q 192 229 165 229 q 235 213 218 229 q 251 171 251 197 m 719 110 q 703 67 719 83 q 660 51 686 51 q 617 67 633 51 q 600 110 600 83 q 617 152 600 136 q 660 168 633 168 q 703 152 686 168 q 719 110 719 136 m 388 65 q 371 23 388 39 q 328 7 354 7 q 285 23 301 7 q 268 65 268 39 q 285 108 268 92 q 328 124 301 124 q 371 108 354 124 q 388 65 388 92 m 560 46 q 543 3 560 19 q 500 -12 526 -12 q 457 3 474 -12 q 440 46 440 19 q 457 88 440 72 q 500 104 474 104 q 543 88 526 104 q 560 46 560 72 z "},"!":{"ha":446,"x_min":122,"x_max":324,"o":"m 303 965 l 285 292 l 153 292 l 135 965 l 303 965 m 224 -10 q 151 19 181 -10 q 122 92 122 49 q 151 164 122 135 q 224 193 181 193 q 294 164 265 193 q 324 92 324 135 q 294 19 324 49 q 224 -10 265 -10 z "},"\"":{"ha":449,"x_min":47,"x_max":400,"o":"m 190 1107 l 174 822 l 65 822 l 47 1107 l 190 1107 m 400 1107 l 383 822 l 275 822 l 257 1107 l 400 1107 z "},"#":{"ha":1211,"x_min":43,"x_max":1128,"o":"m 914 636 l 863 396 l 1046 396 l 1046 257 l 833 257 l 778 0 l 626 0 l 682 257 l 410 257 l 354 0 l 203 0 l 258 257 l 43 257 l 43 396 l 288 396 l 339 636 l 125 636 l 125 775 l 368 775 l 422 1028 l 574 1028 l 519 775 l 792 775 l 846 1028 l 997 1028 l 943 775 l 1128 775 l 1128 636 l 914 636 m 763 636 l 490 636 l 439 396 l 711 396 l 763 636 z "},"$":{"ha":903,"x_min":83,"x_max":756,"o":"m 756 275 q 722 144 756 206 q 622 42 688 83 q 465 -8 556 0 l 465 -121 l 375 -121 l 375 -8 q 164 74 244 4 q 83 257 83 143 l 253 257 q 288 167 257 203 q 375 122 318 132 l 375 428 q 224 476 282 451 q 124 553 165 500 q 83 697 83 606 q 164 888 83 813 q 375 976 244 964 l 375 1089 l 465 1089 l 465 976 q 662 899 588 965 q 746 718 736 833 l 576 718 q 543 795 572 761 q 465 842 514 829 l 465 542 q 617 495 558 519 q 715 419 675 471 q 756 275 756 367 m 244 706 q 278 617 244 649 q 375 565 313 585 l 375 846 q 280 803 315 839 q 244 706 244 767 m 465 122 q 561 172 526 132 q 596 267 596 211 q 562 353 596 322 q 465 404 528 385 l 465 122 z "},"%":{"ha":1103,"x_min":58,"x_max":1044,"o":"m 58 768 q 117 927 58 869 q 269 985 176 985 q 422 927 363 985 q 481 768 481 869 q 422 608 481 667 q 269 550 363 550 q 117 608 176 550 q 58 768 58 667 m 906 967 l 351 0 l 196 0 l 750 967 l 906 967 m 269 889 q 182 768 182 889 q 269 646 182 646 q 334 676 311 646 q 357 768 357 706 q 269 889 357 889 m 624 200 q 683 359 624 301 q 835 417 742 417 q 985 359 926 417 q 1044 200 1044 301 q 985 40 1044 99 q 835 -18 926 -18 q 683 40 742 -18 q 624 200 624 99 m 833 321 q 746 200 746 321 q 833 79 746 79 q 921 200 921 79 q 833 321 921 321 z "},"&":{"ha":1057,"x_min":49,"x_max":1057,"o":"m 850 0 l 731 119 q 579 16 661 50 q 396 -18 497 -18 q 214 18 293 -18 q 92 122 135 54 q 49 278 49 189 q 106 456 49 378 q 275 581 163 535 q 218 672 235 629 q 201 765 201 714 q 234 879 201 829 q 328 958 267 929 q 469 988 389 988 q 609 956 551 988 q 695 871 667 925 q 718 750 724 817 l 560 750 q 535 830 561 801 q 463 858 508 858 q 388 831 417 858 q 360 765 360 804 q 381 691 360 728 q 457 596 403 654 l 713 342 l 811 504 l 982 504 l 857 290 l 822 233 l 1057 0 l 850 0 m 396 117 q 626 224 526 117 l 371 481 q 207 283 207 415 q 260 165 207 213 q 396 117 313 117 z "},"'":{"ha":239,"x_min":47,"x_max":190,"o":"m 190 1107 l 174 822 l 65 822 l 47 1107 l 190 1107 z "},"(":{"ha":683,"x_min":172,"x_max":646,"o":"m 454 -258 q 245 74 318 -128 q 172 506 172 275 q 251 951 172 742 q 482 1297 329 1161 l 646 1297 l 646 1282 q 406 929 486 1135 q 325 506 325 724 q 400 100 325 296 q 618 -243 475 -96 l 618 -258 l 454 -258 z "},")":{"ha":683,"x_min":38,"x_max":511,"o":"m 65 -258 l 65 -243 q 283 100 208 -96 q 358 506 358 296 q 278 929 358 724 q 38 1282 197 1135 l 38 1297 l 201 1297 q 433 951 354 1161 q 511 506 511 742 q 438 74 511 275 q 229 -258 365 -128 l 65 -258 z "},"*":{"ha":700,"x_min":88,"x_max":607,"o":"m 544 943 l 607 832 l 417 761 l 607 690 l 543 576 l 385 701 l 414 500 l 286 500 l 313 701 l 154 574 l 88 692 l 276 763 l 88 831 l 151 944 l 314 819 l 286 1022 l 415 1022 l 385 819 l 544 943 z "},"+":{"ha":992,"x_min":142,"x_max":850,"o":"m 850 435 l 569 435 l 569 147 l 422 147 l 422 435 l 142 435 l 142 568 l 422 568 l 422 856 l 569 856 l 569 568 l 850 568 l 850 435 z "},",":{"ha":313,"x_min":7,"x_max":278,"o":"m 278 190 l 110 -193 l 7 -193 l 106 190 l 278 190 z "},"-":{"ha":813,"x_min":121,"x_max":692,"o":"m 692 569 l 692 436 l 121 436 l 121 569 l 692 569 z "},".":{"ha":335,"x_min":67,"x_max":268,"o":"m 168 -10 q 96 19 125 -10 q 67 92 67 49 q 96 164 67 135 q 168 193 125 193 q 239 164 210 193 q 268 92 268 135 q 239 19 268 49 q 168 -10 210 -10 z "},"/":{"ha":714,"x_min":85,"x_max":618,"o":"m 618 1311 l 240 -243 l 85 -243 l 461 1311 l 618 1311 z "},":":{"ha":340,"x_min":67,"x_max":268,"o":"m 168 -10 q 96 19 125 -10 q 67 92 67 49 q 96 164 67 135 q 168 193 125 193 q 239 164 210 193 q 268 92 268 135 q 239 19 268 49 q 168 -10 210 -10 m 168 574 q 96 603 125 574 q 67 675 67 632 q 96 747 67 718 q 168 776 125 776 q 239 747 210 776 q 268 675 268 718 q 239 603 268 632 q 168 574 210 574 z "},";":{"ha":422,"x_min":44,"x_max":315,"o":"m 199 574 q 126 603 156 574 q 97 675 97 632 q 126 747 97 718 q 199 776 156 776 q 269 747 240 776 q 299 675 299 718 q 269 603 299 632 q 199 574 240 574 m 315 190 l 147 -193 l 44 -193 l 143 190 l 315 190 z "},"<":{"ha":850,"x_min":136,"x_max":656,"o":"m 456 186 l 136 501 l 456 817 l 656 817 l 335 501 l 656 186 l 456 186 z "},"=":{"ha":1075,"x_min":168,"x_max":907,"o":"m 907 726 l 907 593 l 168 593 l 168 726 l 907 726 m 907 411 l 907 278 l 168 278 l 168 411 l 907 411 z "},">":{"ha":819,"x_min":156,"x_max":675,"o":"m 156 817 l 356 817 l 675 501 l 356 186 l 156 186 l 476 501 l 156 817 z "},"?":{"ha":747,"x_min":56,"x_max":676,"o":"m 364 979 q 591 901 506 979 q 676 689 676 824 q 588 478 676 549 q 351 407 499 407 l 346 297 l 208 297 l 201 515 l 247 515 q 453 551 382 515 q 525 689 525 588 q 483 804 525 763 q 365 846 440 846 q 247 806 290 846 q 204 693 204 765 l 56 693 q 93 842 56 776 q 201 943 131 907 q 364 979 271 979 m 275 -10 q 203 19 232 -10 q 174 92 174 49 q 203 164 174 135 q 275 193 232 193 q 346 164 317 193 q 375 92 375 135 q 346 19 375 49 q 275 -10 317 -10 z "},"@":{"ha":1424,"x_min":97,"x_max":1326,"o":"m 817 897 q 1090 839 975 897 q 1266 676 1206 781 q 1326 432 1326 571 q 1288 219 1326 321 q 1178 54 1250 118 q 1010 -10 1107 -10 q 899 22 939 -10 q 849 110 858 53 q 740 22 806 54 q 604 -10 675 -10 q 437 55 497 -10 q 376 231 376 119 q 420 428 376 336 q 543 574 464 519 q 721 629 622 629 q 890 547 842 629 l 903 617 l 1040 617 l 971 219 q 967 168 967 190 q 981 114 967 132 q 1033 96 996 96 q 1124 148 1086 96 q 1180 276 1161 200 q 1199 425 1199 353 q 1096 694 1199 601 q 797 788 993 788 q 503 710 633 788 q 300 496 374 632 q 226 193 226 360 q 332 -78 226 15 q 633 -171 438 -171 q 864 -122 765 -171 l 885 -228 q 601 -282 758 -282 q 336 -225 450 -282 q 160 -63 222 -168 q 97 181 97 42 q 190 543 97 379 q 446 802 282 707 q 817 897 610 897 m 653 113 q 759 147 711 113 q 835 237 807 181 q 863 357 863 293 q 826 466 863 424 q 722 508 789 508 q 617 472 663 508 q 548 376 572 435 q 524 254 524 318 q 556 151 524 189 q 653 113 588 113 z "},"A":{"ha":968,"x_min":47,"x_max":922,"o":"m 686 197 l 282 197 l 213 0 l 47 0 l 393 967 l 576 967 l 922 0 l 756 0 l 686 197 m 642 326 l 485 775 l 326 326 l 642 326 z "},"B":{"ha":875,"x_min":104,"x_max":807,"o":"m 621 496 q 753 414 699 482 q 807 260 807 346 q 769 127 807 186 q 658 34 731 68 q 490 0 586 0 l 104 0 l 104 965 l 472 965 q 642 932 571 965 q 749 842 713 899 q 785 717 785 786 q 740 578 785 633 q 621 496 696 522 m 263 560 l 458 560 q 580 595 536 560 q 624 697 624 631 q 580 799 624 763 q 458 836 536 836 l 263 836 l 263 560 m 476 129 q 603 168 557 129 q 649 276 649 207 q 600 389 649 347 q 471 431 551 431 l 263 431 l 263 129 l 476 129 z "},"C":{"ha":1074,"x_min":51,"x_max":993,"o":"m 51 485 q 117 739 51 626 q 297 915 183 851 q 544 978 410 978 q 819 902 699 978 q 993 688 939 826 l 803 688 q 699 801 765 764 q 544 839 632 839 q 374 796 449 839 q 256 672 299 753 q 214 485 214 592 q 256 297 214 378 q 374 173 299 217 q 544 129 449 129 q 699 167 632 129 q 803 281 765 204 l 993 281 q 819 67 939 142 q 544 -8 699 -8 q 296 55 408 -8 q 117 231 183 118 q 51 485 51 343 z "},"D":{"ha":985,"x_min":104,"x_max":932,"o":"m 419 965 q 690 906 574 965 q 869 737 806 847 q 932 479 932 626 q 869 224 932 332 q 690 58 806 115 q 419 0 574 0 l 104 0 l 104 965 l 419 965 m 419 129 q 679 221 589 129 q 769 479 769 313 q 679 742 769 647 q 419 836 589 836 l 263 836 l 263 129 l 419 129 z "},"E":{"ha":728,"x_min":104,"x_max":638,"o":"m 263 838 l 263 554 l 596 554 l 596 425 l 263 425 l 263 129 l 638 129 l 638 0 l 104 0 l 104 967 l 638 967 l 638 838 l 263 838 z "},"F":{"ha":715,"x_min":104,"x_max":672,"o":"m 672 965 l 672 836 l 263 836 l 263 551 l 582 551 l 582 422 l 263 422 l 263 0 l 104 0 l 104 965 l 672 965 z "},"G":{"ha":1074,"x_min":51,"x_max":1022,"o":"m 803 688 q 699 797 765 760 q 544 833 632 833 q 374 790 449 833 q 256 668 299 747 q 214 485 214 589 q 256 301 214 381 q 374 178 299 221 q 544 135 449 135 q 754 207 674 135 q 853 403 835 279 l 490 403 l 490 529 l 1022 529 l 1022 406 q 942 199 1007 293 q 774 48 878 104 q 544 -8 671 -8 q 296 55 408 -8 q 117 231 183 118 q 51 485 51 343 q 117 739 51 626 q 297 915 183 851 q 544 978 410 978 q 819 902 699 978 q 993 688 939 826 l 803 688 z "},"H":{"ha":979,"x_min":104,"x_max":875,"o":"m 875 965 l 875 0 l 717 0 l 717 422 l 263 422 l 263 0 l 104 0 l 104 965 l 263 965 l 263 551 l 717 551 l 717 965 l 875 965 z "},"I":{"ha":367,"x_min":104,"x_max":263,"o":"m 263 965 l 263 0 l 104 0 l 104 965 l 263 965 z "},"J":{"ha":783,"x_min":61,"x_max":631,"o":"m 631 965 l 631 269 q 552 65 631 140 q 346 -10 474 -10 q 140 65 218 -10 q 61 269 61 140 l 221 269 q 253 168 222 206 q 346 131 285 131 q 439 169 407 131 q 471 269 471 207 l 471 965 l 631 965 z "},"K":{"ha":879,"x_min":104,"x_max":843,"o":"m 636 0 l 263 432 l 263 0 l 104 0 l 104 965 l 263 965 l 263 525 l 638 965 l 836 965 l 417 482 l 843 0 l 636 0 z "},"L":{"ha":617,"x_min":104,"x_max":589,"o":"m 263 128 l 589 128 l 589 0 l 104 0 l 104 965 l 263 965 l 263 128 z "},"M":{"ha":1225,"x_min":104,"x_max":1121,"o":"m 1121 965 l 1121 0 l 963 0 l 963 661 l 668 0 l 558 0 l 263 661 l 263 0 l 104 0 l 104 965 l 275 965 l 614 208 l 951 965 l 1121 965 z "},"N":{"ha":1001,"x_min":104,"x_max":897,"o":"m 897 0 l 739 0 l 263 721 l 263 0 l 104 0 l 104 967 l 263 967 l 739 247 l 739 967 l 897 967 l 897 0 z "},"O":{"ha":1089,"x_min":51,"x_max":1038,"o":"m 544 -10 q 297 53 410 -10 q 117 230 183 117 q 51 485 51 343 q 117 739 51 626 q 297 915 183 851 q 544 978 410 978 q 794 915 681 978 q 972 739 907 851 q 1038 485 1038 626 q 972 230 1038 343 q 794 53 907 117 q 544 -10 681 -10 m 544 128 q 715 172 640 128 q 833 297 790 215 q 875 485 875 378 q 833 672 875 592 q 715 796 790 753 q 544 839 640 839 q 374 796 449 839 q 256 672 299 753 q 214 485 214 592 q 256 297 214 378 q 374 172 299 215 q 544 128 449 128 z "},"P":{"ha":826,"x_min":104,"x_max":779,"o":"m 779 678 q 744 539 779 604 q 633 433 710 474 q 438 392 557 392 l 263 392 l 263 0 l 104 0 l 104 965 l 438 965 q 626 927 549 965 q 741 824 703 889 q 779 678 779 758 m 438 521 q 572 562 528 521 q 617 678 617 603 q 438 836 617 836 l 263 836 l 263 521 l 438 521 z "},"Q":{"ha":1093,"x_min":51,"x_max":1053,"o":"m 851 -175 l 682 8 q 544 -10 619 -10 q 297 53 410 -10 q 117 230 183 117 q 51 485 51 343 q 117 739 51 626 q 297 915 183 851 q 544 978 410 978 q 794 915 681 978 q 972 739 907 851 q 1038 485 1038 626 q 980 244 1038 351 q 821 71 922 136 l 1053 -175 l 851 -175 m 214 485 q 256 297 214 378 q 374 172 299 215 q 544 128 449 128 q 715 172 640 128 q 833 297 790 215 q 875 485 875 378 q 833 672 875 592 q 715 796 790 753 q 544 839 640 839 q 374 796 449 839 q 256 672 299 753 q 214 485 214 592 z "},"R":{"ha":878,"x_min":104,"x_max":794,"o":"m 606 0 l 383 386 l 263 386 l 263 0 l 104 0 l 104 965 l 438 965 q 626 926 549 965 q 741 822 703 888 q 779 676 779 757 q 724 505 779 582 q 556 400 669 428 l 794 0 l 606 0 m 263 513 l 438 513 q 572 557 526 513 q 617 676 617 601 q 572 794 617 751 q 438 836 528 836 l 263 836 l 263 513 z "},"S":{"ha":839,"x_min":81,"x_max":756,"o":"m 422 -10 q 247 24 325 -10 q 125 121 169 58 q 81 267 81 183 l 250 267 q 299 164 256 204 q 422 124 343 124 q 550 163 504 124 q 596 265 596 203 q 567 344 596 314 q 497 392 539 375 q 379 428 454 408 q 226 478 285 453 q 125 558 167 504 q 83 703 83 613 q 125 849 83 786 q 242 944 167 911 q 415 978 317 978 q 645 908 556 978 q 744 715 735 838 l 569 715 q 519 806 565 768 q 399 843 474 843 q 288 808 331 843 q 244 708 244 774 q 272 635 244 664 q 340 590 299 607 q 454 554 382 574 q 610 501 550 528 q 713 420 671 475 q 756 274 756 365 q 716 135 756 200 q 601 30 676 69 q 422 -10 525 -10 z "},"T":{"ha":783,"x_min":54,"x_max":728,"o":"m 728 965 l 728 836 l 471 836 l 471 0 l 313 0 l 313 836 l 54 836 l 54 965 l 728 965 z "},"U":{"ha":958,"x_min":103,"x_max":857,"o":"m 261 965 l 261 350 q 319 185 261 240 q 479 129 376 129 q 641 185 583 129 q 699 350 699 240 l 699 965 l 857 965 l 857 353 q 806 153 857 235 q 668 31 754 71 q 478 -10 582 -10 q 288 31 374 -10 q 153 153 203 71 q 103 353 103 235 l 103 965 l 261 965 z "},"V":{"ha":964,"x_min":26,"x_max":936,"o":"m 936 965 l 574 0 l 390 0 l 26 965 l 196 965 l 482 163 l 769 965 l 936 965 z "},"W":{"ha":1388,"x_min":26,"x_max":1361,"o":"m 1361 965 l 1075 0 l 896 0 l 693 731 l 478 0 l 300 -1 l 26 965 l 194 965 l 394 179 l 611 965 l 789 965 l 990 183 l 1192 965 l 1361 965 z "},"X":{"ha":917,"x_min":69,"x_max":849,"o":"m 547 482 l 847 0 l 669 0 l 451 350 l 247 0 l 71 0 l 371 482 l 69 965 l 247 965 l 467 613 l 672 965 l 849 965 l 547 482 z "},"Y":{"ha":840,"x_min":21,"x_max":819,"o":"m 819 965 l 500 350 l 500 0 l 342 0 l 342 350 l 21 965 l 197 965 l 421 492 l 644 965 l 819 965 z "},"Z":{"ha":775,"x_min":69,"x_max":706,"o":"m 257 138 l 706 138 l 706 0 l 69 0 l 69 124 l 517 828 l 69 828 l 69 965 l 706 965 l 706 842 l 257 138 z "},"[":{"ha":674,"x_min":206,"x_max":494,"o":"m 494 1297 l 494 1167 l 354 1167 l 354 -126 l 494 -126 l 494 -258 l 206 -258 l 206 1297 l 494 1297 z "},"\\":{"ha":996,"x_min":228,"x_max":800,"o":"m 644 -243 l 228 1311 l 383 1311 l 800 -243 l 644 -243 z "},"]":{"ha":672,"x_min":178,"x_max":467,"o":"m 467 -258 l 178 -258 l 178 -126 l 318 -126 l 318 1167 l 178 1167 l 178 1297 l 467 1297 l 467 -258 z "},"^":{"ha":908,"x_min":50,"x_max":860,"o":"m 214 233 l 50 233 l 379 967 l 529 967 l 860 233 l 694 233 l 456 775 l 214 233 z "},"_":{"ha":1108,"x_min":175,"x_max":950,"o":"m 950 -56 l 950 -203 l 175 -203 l 175 -56 l 950 -56 z "},"`":{"ha":353,"x_min":14,"x_max":321,"o":"m 321 936 l 321 819 l 14 971 l 14 1106 l 321 936 z "},"a":{"ha":942,"x_min":51,"x_max":838,"o":"m 51 386 q 99 590 51 501 q 230 728 147 679 q 413 778 313 778 q 570 742 503 778 q 678 654 638 707 l 678 765 l 838 765 l 838 0 l 678 0 l 678 114 q 568 24 638 60 q 410 -12 499 -12 q 229 38 311 -12 q 99 180 147 89 q 51 386 51 271 m 678 383 q 645 521 678 463 q 560 610 613 579 q 446 640 507 640 q 332 610 385 640 q 247 523 279 581 q 214 386 214 465 q 247 247 214 307 q 333 156 279 188 q 446 125 386 125 q 560 156 507 125 q 645 245 613 186 q 678 383 678 304 z "},"b":{"ha":942,"x_min":104,"x_max":889,"o":"m 263 651 q 373 742 303 707 q 529 778 443 778 q 713 729 631 778 q 842 591 794 681 q 889 386 889 501 q 842 180 889 271 q 712 38 794 89 q 529 -12 629 -12 q 372 22 440 -12 q 263 111 303 57 l 263 0 l 104 0 l 104 1028 l 263 1028 l 263 651 m 728 386 q 695 523 728 465 q 609 610 663 581 q 494 640 556 640 q 381 610 435 640 q 295 521 328 579 q 263 383 263 463 q 295 245 263 304 q 381 156 328 186 q 494 125 435 125 q 609 156 556 125 q 695 247 663 188 q 728 386 728 307 z "},"c":{"ha":833,"x_min":51,"x_max":779,"o":"m 51 383 q 99 591 51 501 q 232 729 147 681 q 426 778 317 778 q 656 712 565 778 q 779 524 747 646 l 608 524 q 542 613 588 581 q 426 644 496 644 q 272 576 329 644 q 214 383 214 507 q 272 190 214 260 q 426 121 329 121 q 608 242 564 121 l 779 242 q 654 56 746 125 q 426 -12 563 -12 q 232 37 317 -12 q 99 176 147 86 q 51 383 51 265 z "},"d":{"ha":942,"x_min":51,"x_max":838,"o":"m 51 386 q 99 590 51 501 q 230 728 147 679 q 414 778 313 778 q 562 745 489 778 q 678 658 635 713 l 678 1028 l 838 1028 l 838 0 l 678 0 l 678 115 q 570 24 639 60 q 413 -12 501 -12 q 230 38 313 -12 q 99 180 147 89 q 51 386 51 271 m 678 383 q 645 521 678 463 q 560 610 613 579 q 446 640 507 640 q 332 610 385 640 q 247 523 279 581 q 214 386 214 465 q 247 247 214 307 q 333 156 279 188 q 446 125 386 125 q 560 156 507 125 q 645 245 613 186 q 678 383 678 304 z "},"e":{"ha":857,"x_min":51,"x_max":806,"o":"m 806 401 q 800 324 806 358 l 215 324 q 283 176 222 232 q 433 121 344 121 q 614 228 561 121 l 785 228 q 659 55 750 122 q 433 -12 568 -12 q 237 37 324 -12 q 101 176 150 86 q 51 383 51 265 q 99 591 51 501 q 234 729 147 681 q 433 778 321 778 q 626 731 542 778 q 758 598 711 683 q 806 401 806 513 m 640 451 q 578 592 639 539 q 426 644 517 644 q 286 592 344 644 q 217 451 228 540 l 640 451 z "},"f":{"ha":461,"x_min":33,"x_max":425,"o":"m 425 636 l 283 636 l 283 0 l 124 0 l 124 636 l 33 636 l 33 765 l 124 765 l 124 819 q 194 1012 124 951 q 414 1072 264 1072 l 414 940 q 313 913 342 940 q 283 819 283 886 l 283 765 l 425 765 l 425 636 z "},"g":{"ha":942,"x_min":51,"x_max":838,"o":"m 413 778 q 570 742 501 778 q 678 654 639 707 l 678 765 l 838 765 l 838 -12 q 793 -201 838 -118 q 665 -331 749 -283 q 464 -378 581 -378 q 206 -305 308 -378 q 89 -107 103 -232 l 246 -107 q 323 -203 264 -167 q 464 -240 382 -240 q 619 -182 560 -240 q 678 -12 678 -124 l 678 115 q 569 24 638 61 q 413 -12 500 -12 q 230 38 313 -12 q 99 180 147 89 q 51 386 51 271 q 99 590 51 501 q 230 728 147 679 q 413 778 313 778 m 678 383 q 645 521 678 463 q 560 610 613 579 q 446 640 507 640 q 332 610 385 640 q 247 523 279 581 q 214 386 214 465 q 247 247 214 307 q 333 156 279 188 q 446 125 386 125 q 560 156 507 125 q 645 245 613 186 q 678 383 678 304 z "},"h":{"ha":901,"x_min":104,"x_max":804,"o":"m 500 778 q 656 740 588 778 q 765 629 725 703 q 804 451 804 556 l 804 0 l 647 0 l 647 428 q 596 585 647 531 q 456 640 544 640 q 315 585 367 640 q 263 428 263 531 l 263 0 l 104 0 l 104 1028 l 263 1028 l 263 676 q 365 751 303 725 q 500 778 426 778 z "},"i":{"ha":367,"x_min":83,"x_max":285,"o":"m 185 867 q 113 896 142 867 q 83 968 83 925 q 113 1040 83 1011 q 185 1069 142 1069 q 256 1040 226 1069 q 285 968 285 1011 q 256 896 285 925 q 185 867 226 867 m 263 765 l 263 0 l 104 0 l 104 765 l 263 765 z "},"j":{"ha":367,"x_min":-39,"x_max":285,"o":"m 185 867 q 113 896 142 867 q 83 968 83 925 q 113 1040 83 1011 q 185 1069 142 1069 q 256 1040 226 1069 q 285 968 285 1011 q 256 896 285 925 q 185 867 226 867 m 263 -150 q 206 -313 263 -262 q 43 -364 150 -364 l -39 -364 l -39 -231 l 15 -231 q 84 -212 64 -231 q 104 -150 104 -193 l 104 765 l 263 765 l 263 -150 z "},"k":{"ha":769,"x_min":104,"x_max":760,"o":"m 407 382 l 760 0 l 546 0 l 263 329 l 263 0 l 104 0 l 104 1028 l 263 1028 l 263 431 l 540 765 l 760 765 l 407 382 z "},"l":{"ha":367,"x_min":104,"x_max":263,"o":"m 263 1028 l 263 0 l 104 0 l 104 1028 l 263 1028 z "},"m":{"ha":1443,"x_min":104,"x_max":1346,"o":"m 1031 778 q 1192 740 1121 778 q 1305 629 1264 703 q 1346 451 1346 556 l 1346 0 l 1189 0 l 1189 428 q 1138 585 1189 531 q 997 640 1086 640 q 856 585 908 640 q 804 428 804 531 l 804 0 l 647 0 l 647 428 q 596 585 647 531 q 456 640 544 640 q 315 585 367 640 q 263 428 263 531 l 263 0 l 104 0 l 104 765 l 263 765 l 263 678 q 361 751 301 725 q 489 778 421 778 q 653 739 581 778 q 764 626 725 700 q 872 737 799 696 q 1031 778 946 778 z "},"n":{"ha":901,"x_min":104,"x_max":804,"o":"m 490 778 q 652 740 581 778 q 764 629 724 703 q 804 451 804 556 l 804 0 l 647 0 l 647 428 q 596 585 647 531 q 456 640 544 640 q 315 585 367 640 q 263 428 263 531 l 263 0 l 104 0 l 104 765 l 263 765 l 263 678 q 362 751 301 725 q 490 778 422 778 z "},"o":{"ha":886,"x_min":53,"x_max":833,"o":"m 436 -12 q 240 37 328 -12 q 103 176 153 86 q 53 383 53 265 q 104 590 53 500 q 244 729 156 681 q 443 778 333 778 q 642 729 553 778 q 782 590 731 681 q 833 383 833 500 q 781 176 833 267 q 637 37 728 86 q 436 -12 546 -12 m 436 125 q 551 154 497 125 q 638 242 604 183 q 671 383 671 300 q 639 524 671 467 q 554 611 607 582 q 440 640 501 640 q 327 611 379 640 q 244 524 275 582 q 214 383 214 467 q 277 192 214 260 q 436 125 340 125 z "},"p":{"ha":942,"x_min":104,"x_max":889,"o":"m 263 653 q 372 742 303 706 q 529 778 442 778 q 712 728 629 778 q 842 590 794 679 q 889 386 889 501 q 842 180 889 271 q 712 38 794 89 q 529 -12 629 -12 q 374 23 442 -12 q 263 111 306 58 l 263 -364 l 104 -364 l 104 765 l 263 765 l 263 653 m 728 386 q 695 523 728 465 q 609 610 663 581 q 494 640 556 640 q 381 610 435 640 q 295 521 328 579 q 263 383 263 463 q 295 245 263 304 q 381 156 328 186 q 494 125 435 125 q 609 156 556 125 q 695 247 663 188 q 728 386 728 307 z "},"q":{"ha":942,"x_min":51,"x_max":838,"o":"m 51 386 q 99 590 51 501 q 230 728 147 679 q 414 778 313 778 q 572 742 503 778 q 678 654 640 706 l 678 765 l 838 765 l 838 -364 l 678 -364 l 678 111 q 569 24 640 60 q 408 -12 499 -12 q 228 38 310 -12 q 99 180 147 89 q 51 386 51 271 m 678 383 q 645 521 678 463 q 560 610 613 579 q 446 640 507 640 q 332 610 385 640 q 247 523 279 581 q 214 386 214 465 q 247 247 214 307 q 333 156 279 188 q 446 125 386 125 q 560 156 507 125 q 645 245 613 186 q 678 383 678 304 z "},"r":{"ha":533,"x_min":104,"x_max":492,"o":"m 263 654 q 355 745 297 713 q 492 778 413 778 l 492 614 l 451 614 q 310 567 358 614 q 263 403 263 519 l 263 0 l 104 0 l 104 765 l 263 765 l 263 654 z "},"s":{"ha":742,"x_min":63,"x_max":675,"o":"m 382 -12 q 220 20 292 -12 q 107 109 149 53 q 63 235 65 165 l 226 235 q 273 153 231 186 q 379 121 315 121 q 483 147 446 121 q 519 213 519 172 q 478 276 519 256 q 349 322 438 297 q 208 368 263 346 q 115 436 154 390 q 75 557 75 482 q 111 669 75 618 q 215 749 147 719 q 369 778 282 778 q 580 712 500 778 q 665 532 660 646 l 507 532 q 465 614 503 583 q 364 644 428 644 q 268 621 301 644 q 235 558 235 597 q 257 507 235 528 q 311 474 279 486 q 406 444 343 463 q 542 399 489 422 q 635 332 596 376 q 675 214 674 288 q 639 97 675 149 q 537 17 603 46 q 382 -12 471 -12 z "},"t":{"ha":517,"x_min":39,"x_max":475,"o":"m 289 636 l 289 213 q 309 151 289 169 q 378 132 329 132 l 475 132 l 475 0 l 350 0 q 186 50 243 0 q 129 213 129 100 l 129 636 l 39 636 l 39 765 l 129 765 l 129 956 l 289 956 l 289 765 l 475 765 l 475 636 l 289 636 z "},"u":{"ha":901,"x_min":97,"x_max":797,"o":"m 797 765 l 797 0 l 639 0 l 639 90 q 541 16 601 43 q 413 -11 481 -11 q 251 26 322 -11 q 138 138 179 64 q 97 315 97 211 l 97 765 l 254 765 l 254 339 q 306 181 254 236 q 446 126 357 126 q 587 181 535 126 q 639 339 639 236 l 639 765 l 797 765 z "},"v":{"ha":800,"x_min":14,"x_max":785,"o":"m 400 142 l 617 765 l 785 765 l 493 0 l 304 0 l 14 765 l 183 765 l 400 142 z "},"w":{"ha":1146,"x_min":14,"x_max":1132,"o":"m 1132 765 l 894 0 l 728 0 l 574 565 l 419 0 l 253 0 l 14 765 l 175 765 l 335 150 l 497 765 l 663 765 l 818 153 l 976 765 l 1132 765 z "},"x":{"ha":693,"x_min":14,"x_max":679,"o":"m 432 388 l 679 0 l 500 0 l 335 260 l 179 0 l 14 0 l 261 376 l 14 765 l 193 765 l 358 506 l 514 765 l 679 765 l 432 388 z "},"y":{"ha":808,"x_min":14,"x_max":793,"o":"m 793 765 l 324 -360 l 160 -360 l 315 13 l 14 765 l 190 765 l 406 182 l 629 765 l 793 765 z "},"z":{"ha":654,"x_min":61,"x_max":592,"o":"m 244 129 l 592 129 l 592 0 l 61 0 l 61 129 l 410 636 l 61 636 l 61 765 l 592 765 l 592 636 l 244 129 z "},"{":{"ha":717,"x_min":175,"x_max":592,"o":"m 175 579 q 277 619 242 586 q 313 707 313 653 q 301 890 313 757 q 289 1090 289 1015 q 347 1244 289 1189 q 499 1300 404 1300 l 592 1300 l 592 1163 l 531 1163 q 465 1142 486 1163 q 443 1078 443 1122 q 447 989 443 1044 q 453 910 451 933 q 465 701 465 782 q 430 583 465 631 q 321 521 394 536 l 321 518 q 430 456 394 503 q 465 338 465 408 q 453 129 465 257 q 447 50 451 106 q 443 -39 443 -6 q 465 -103 443 -83 q 531 -124 486 -124 l 592 -124 l 592 -261 l 499 -261 q 347 -206 404 -261 q 289 -51 289 -150 q 301 149 289 24 q 313 332 313 282 q 277 419 313 386 q 175 460 242 453 l 175 579 z "},"|":{"ha":450,"x_min":146,"x_max":304,"o":"m 304 -157 l 146 -157 l 146 1113 l 304 1113 l 304 -157 z "},"}":{"ha":717,"x_min":125,"x_max":542,"o":"m 542 460 q 440 419 475 453 q 404 332 404 386 q 415 149 404 282 q 428 -51 428 24 q 370 -206 428 -150 q 218 -261 313 -261 l 125 -261 l 125 -124 l 186 -124 q 252 -103 231 -124 q 274 -39 274 -83 q 269 50 274 -6 q 264 129 265 106 q 251 338 251 257 q 287 456 251 408 q 396 518 322 503 l 396 521 q 287 583 322 536 q 251 701 251 631 q 264 910 251 782 q 269 989 265 933 q 274 1078 274 1044 q 252 1142 274 1122 q 186 1163 231 1163 l 125 1163 l 125 1300 l 218 1300 q 370 1244 313 1300 q 428 1090 428 1189 q 415 890 428 1015 q 404 707 404 757 q 440 619 404 653 q 542 579 475 586 l 542 460 z "},"~":{"ha":768,"x_min":50,"x_max":718,"o":"m 50 331 q 128 503 71 447 q 271 560 185 560 q 340 547 310 560 q 408 510 369 535 q 463 479 443 489 q 508 469 483 469 q 570 492 543 469 q 603 557 597 515 l 718 557 q 640 384 697 440 q 496 328 582 328 q 428 340 457 328 q 360 378 399 353 q 307 408 329 399 q 260 418 285 418 q 197 395 224 418 q 164 331 169 372 l 50 331 z "}," ":{"ha":361,"x_min":0,"x_max":0,"o":""},"¡":{"ha":446,"x_min":122,"x_max":324,"o":"m 224 788 q 294 758 265 788 q 324 686 324 729 q 294 614 324 643 q 224 585 265 585 q 151 614 181 585 q 122 686 122 643 q 151 758 122 729 q 224 788 181 788 m 153 486 l 285 486 l 303 -187 l 135 -187 l 153 486 z "},"¢":{"ha":958,"x_min":92,"x_max":785,"o":"m 457 128 q 576 158 532 128 q 638 242 621 188 l 785 242 q 697 78 774 144 q 501 -1 621 11 l 501 -122 l 411 -122 l 411 -1 q 174 113 257 13 q 92 360 92 213 q 174 608 92 507 q 411 722 257 708 l 411 843 l 501 843 l 501 722 q 697 643 621 710 q 785 479 774 576 l 638 479 q 576 563 621 533 q 457 593 532 593 q 300 531 358 593 q 242 360 242 468 q 300 190 242 251 q 457 128 358 128 z "},"£":{"ha":897,"x_min":58,"x_max":775,"o":"m 775 126 l 775 -3 l 132 -3 l 104 83 q 190 208 163 146 q 218 361 218 269 q 211 419 218 389 l 58 419 l 58 529 l 176 529 q 147 699 147 617 q 188 860 147 792 q 299 965 228 928 q 463 1001 369 1001 q 688 918 611 1001 q 767 706 764 835 l 622 706 q 583 824 622 781 q 463 868 544 868 q 342 825 388 868 q 297 690 297 782 q 306 613 297 650 q 329 529 314 575 l 599 529 l 599 419 l 361 419 q 368 360 368 388 q 275 126 368 225 l 775 126 z "},"¤":{"ha":761,"x_min":83,"x_max":678,"o":"m 639 524 q 596 381 639 440 l 678 299 l 608 228 l 522 313 q 378 276 461 276 q 238 311 299 276 l 154 228 l 83 299 l 164 381 q 124 524 124 440 q 167 669 124 610 l 83 751 l 154 822 l 240 736 q 381 771 303 771 q 522 736 460 771 l 608 822 l 678 751 l 596 669 q 639 524 639 607 m 378 375 q 469 415 431 375 q 507 524 507 454 q 469 634 507 594 q 379 674 432 674 q 290 634 326 674 q 254 524 254 594 q 290 414 254 453 q 378 375 325 375 z "},"¥":{"ha":840,"x_min":21,"x_max":819,"o":"m 603 549 l 778 549 l 778 435 l 543 432 l 500 350 l 500 308 l 778 308 l 778 194 l 500 194 l 500 0 l 342 0 l 342 194 l 64 194 l 64 308 l 342 308 l 342 350 l 299 432 l 64 435 l 64 549 l 238 549 l 21 965 l 197 965 l 419 494 l 642 965 l 819 965 l 603 549 z "},"¦":{"ha":450,"x_min":146,"x_max":304,"o":"m 146 1113 l 304 1113 l 304 574 l 146 574 l 146 1113 m 304 -157 l 146 -157 l 146 382 l 304 382 l 304 -157 z "},"§":{"ha":803,"x_min":57,"x_max":746,"o":"m 576 117 q 668 40 636 82 q 700 -64 700 -3 q 664 -179 700 -126 q 560 -263 628 -232 q 403 -294 493 -294 q 192 -234 274 -294 q 111 -65 111 -174 l 269 -65 q 307 -153 274 -121 q 403 -185 340 -185 q 506 -158 469 -185 q 542 -78 542 -131 q 523 -23 542 -46 q 459 23 504 0 q 324 78 414 46 q 122 186 188 126 q 57 339 57 246 q 101 472 57 414 q 228 561 144 531 q 135 638 168 596 q 103 742 103 681 q 139 857 103 804 q 242 941 175 910 q 400 972 310 972 q 610 912 529 972 q 692 743 692 851 l 533 743 q 496 831 529 799 q 400 863 463 863 q 297 835 333 863 q 261 756 261 808 q 280 701 261 724 q 344 655 299 678 q 479 600 389 632 q 681 492 615 551 q 746 339 746 432 q 703 208 746 265 q 576 117 661 151 m 219 339 q 270 237 219 279 q 404 194 321 194 q 535 236 486 194 q 583 339 583 278 q 533 442 583 400 q 400 483 482 483 q 269 442 318 483 q 219 339 219 400 z "},"¨":{"ha":433,"x_min":14,"x_max":419,"o":"m 97 861 q 38 885 63 861 q 14 944 14 910 q 38 1003 14 979 q 97 1028 63 1028 q 156 1003 132 1028 q 181 944 181 979 q 156 885 181 910 q 97 861 132 861 m 336 861 q 277 885 301 861 q 253 944 253 910 q 277 1003 253 979 q 336 1028 301 1028 q 395 1003 371 1028 q 419 944 419 979 q 395 885 419 910 q 336 861 371 861 z "},"©":{"ha":1096,"x_min":64,"x_max":1032,"o":"m 549 978 q 800 915 690 978 q 971 739 910 851 q 1032 483 1032 626 q 971 227 1032 340 q 800 51 910 114 q 549 -12 690 -12 q 297 51 407 -12 q 125 227 186 114 q 64 483 64 340 q 125 739 64 626 q 297 915 186 851 q 549 978 407 978 m 549 914 q 328 861 422 914 q 184 710 235 808 q 133 483 133 613 q 184 257 133 354 q 328 106 235 160 q 549 51 422 51 q 767 106 674 51 q 912 257 861 160 q 963 483 963 354 q 912 710 963 613 q 768 861 861 808 q 549 914 675 914 m 544 803 q 390 763 460 803 q 281 651 321 724 q 242 485 242 579 q 282 317 242 390 q 391 205 322 244 q 544 165 460 165 q 726 222 650 165 q 829 369 803 278 l 685 369 q 633 301 667 325 q 544 278 600 278 q 426 331 471 278 q 382 485 382 385 q 426 638 382 585 q 544 690 471 690 q 634 667 597 690 q 685 599 671 643 l 829 599 q 728 749 803 696 q 544 803 653 803 z "},"ª":{"ha":633,"x_min":43,"x_max":575,"o":"m 43 736 q 74 865 43 808 q 159 953 106 921 q 276 985 213 985 q 381 964 336 985 q 451 910 425 943 l 451 976 l 575 976 l 575 490 l 451 490 l 451 554 q 383 502 428 522 q 281 482 339 482 q 160 515 214 482 q 74 606 106 547 q 43 736 43 664 m 171 735 q 213 620 171 663 q 311 578 254 578 q 410 619 369 578 q 451 733 451 661 q 410 847 451 806 q 311 889 369 889 q 213 848 254 889 q 171 735 171 807 z "},"«":{"ha":679,"x_min":63,"x_max":610,"o":"m 190 167 l 63 410 l 190 653 l 343 653 l 210 410 l 343 167 l 190 167 m 457 167 l 329 410 l 457 653 l 610 653 l 476 410 l 610 167 l 457 167 z "},"¬":{"ha":901,"x_min":51,"x_max":840,"o":"m 840 604 l 840 289 l 682 289 l 682 481 l 51 481 l 51 604 l 840 604 z "},"­":{"ha":813,"x_min":121,"x_max":692,"o":"m 692 569 l 692 436 l 121 436 l 121 569 l 692 569 z "},"®":{"ha":718,"x_min":69,"x_max":649,"o":"m 360 979 q 509 942 443 979 q 612 838 575 904 q 649 689 649 772 q 612 540 649 606 q 509 436 575 474 q 360 399 443 399 q 210 436 276 399 q 107 540 144 474 q 69 689 69 606 q 107 838 69 772 q 210 942 144 904 q 360 979 276 979 m 360 463 q 520 525 460 463 q 581 689 581 588 q 520 853 581 790 q 360 915 460 915 q 199 853 258 915 q 139 689 139 790 q 199 525 139 588 q 360 463 258 463 m 488 744 q 472 691 488 714 q 431 657 457 668 l 504 543 l 399 543 l 338 647 l 328 647 l 328 543 l 240 543 l 240 842 l 381 842 q 458 815 429 842 q 488 744 488 788 m 328 718 l 375 718 q 394 724 386 718 q 401 742 401 731 q 394 758 401 753 q 375 764 386 764 l 328 764 l 328 718 z "},"¯":{"ha":536,"x_min":14,"x_max":522,"o":"m 522 1000 l 522 882 l 14 882 l 14 1000 l 522 1000 z "},"°":{"ha":593,"x_min":39,"x_max":554,"o":"m 39 729 q 111 908 39 840 q 297 975 183 975 q 429 945 371 975 q 521 859 488 915 q 554 729 554 803 q 520 599 554 656 q 426 513 486 543 q 293 482 367 482 q 109 550 179 482 q 39 729 39 618 m 428 729 q 389 844 428 803 q 294 885 350 885 q 202 844 240 885 q 164 729 164 803 q 201 615 164 654 q 293 575 238 575 q 388 615 349 575 q 428 729 428 656 z "},"±":{"ha":996,"x_min":144,"x_max":851,"o":"m 572 517 l 572 310 l 851 310 l 851 176 l 144 176 l 144 310 l 425 310 l 425 517 l 144 517 l 144 650 l 425 650 l 425 863 l 572 863 l 572 650 l 851 650 l 851 517 l 572 517 z "},"²":{"ha":472,"x_min":38,"x_max":414,"o":"m 414 589 l 414 489 l 40 489 l 40 581 l 190 690 q 259 757 236 726 q 282 824 282 788 q 265 874 282 856 q 221 893 247 893 q 181 879 196 893 q 163 840 165 865 l 38 840 q 90 947 40 907 q 225 988 139 988 q 324 965 282 988 q 390 907 367 943 q 413 829 413 871 q 383 740 413 779 q 282 654 353 701 l 181 589 l 414 589 z "},"³":{"ha":475,"x_min":25,"x_max":429,"o":"m 31 846 q 90 948 36 908 q 231 988 144 988 q 328 968 283 988 q 399 915 374 949 q 425 842 425 882 q 401 773 425 800 q 340 735 378 746 l 340 732 q 404 690 379 718 q 429 619 429 661 q 372 522 429 561 q 225 482 314 482 q 82 523 136 482 q 25 635 28 564 l 147 635 q 172 589 153 604 q 224 574 192 574 q 276 590 256 574 q 296 636 296 607 q 275 680 296 664 q 221 696 254 696 l 169 696 l 169 776 l 217 776 q 272 792 251 776 q 292 835 292 807 q 273 878 292 863 q 221 894 254 894 q 149 846 163 894 l 31 846 z "},"´":{"ha":335,"x_min":14,"x_max":321,"o":"m 321 971 l 14 819 l 14 936 l 321 1106 l 321 971 z "},"µ":{"ha":908,"x_min":104,"x_max":804,"o":"m 804 765 l 804 0 l 646 0 l 646 121 q 545 22 608 56 q 401 -11 482 -11 q 261 32 318 -11 l 261 -364 l 104 -364 l 104 765 l 261 765 l 261 338 q 313 180 261 235 q 453 125 364 125 q 594 180 542 125 q 646 338 646 235 l 646 765 l 804 765 z "},"¶":{"ha":875,"x_min":49,"x_max":771,"o":"m 771 0 l 631 0 l 631 842 l 538 842 l 538 0 l 397 0 l 397 392 l 378 392 q 131 472 214 392 q 49 678 49 551 q 132 885 49 804 q 378 965 215 965 l 771 965 l 771 0 z "},"·":{"ha":339,"x_min":72,"x_max":274,"o":"m 174 364 q 101 393 131 364 q 72 465 72 422 q 101 538 72 508 q 174 567 131 567 q 244 538 215 567 q 274 465 274 508 q 244 393 274 422 q 174 364 215 364 z "},"¸":{"ha":388,"x_min":14,"x_max":374,"o":"m 193 -67 q 324 -105 274 -67 q 374 -212 374 -143 q 324 -323 374 -282 q 197 -364 274 -364 l 14 -364 l 14 -264 l 165 -264 q 224 -253 204 -264 q 243 -212 243 -242 q 224 -172 243 -183 q 165 -161 204 -161 l 89 -161 l 89 10 l 193 10 l 193 -67 z "},"¹":{"ha":290,"x_min":28,"x_max":226,"o":"m 28 883 l 28 978 l 226 978 l 226 489 l 103 489 l 103 883 l 28 883 z "},"º":{"ha":617,"x_min":43,"x_max":574,"o":"m 43 733 q 78 865 43 808 q 173 953 113 922 q 308 985 233 985 q 444 954 383 985 q 539 866 504 924 q 574 733 574 808 q 538 602 574 660 q 442 513 503 544 q 306 482 381 482 q 171 513 231 482 q 77 601 111 544 q 43 733 43 658 m 446 732 q 405 847 446 806 q 307 889 364 889 q 210 848 250 889 q 171 732 171 807 q 210 619 171 660 q 306 579 249 579 q 404 620 363 579 q 446 732 446 661 z "},"»":{"ha":679,"x_min":69,"x_max":617,"o":"m 201 410 l 69 653 l 221 653 l 350 410 l 221 167 l 69 167 l 201 410 m 468 410 l 336 653 l 488 653 l 617 410 l 488 167 l 336 167 l 468 410 z "},"¼":{"ha":947,"x_min":47,"x_max":893,"o":"m 47 883 l 47 978 l 246 978 l 246 489 l 122 489 l 122 883 l 47 883 m 768 967 l 238 0 l 88 0 l 619 967 l 768 967 m 893 93 l 831 93 l 831 0 l 707 0 l 707 93 l 449 93 l 449 163 l 658 490 l 831 490 l 831 171 l 893 171 l 893 93 m 710 396 l 572 171 l 710 171 l 710 396 z "},"½":{"ha":974,"x_min":47,"x_max":913,"o":"m 122 883 l 47 883 l 47 978 l 246 978 l 246 489 l 122 489 l 122 883 m 753 967 l 238 0 l 88 0 l 603 967 l 753 967 m 913 99 l 913 -1 l 539 -1 l 539 90 l 689 200 q 758 267 735 236 q 781 333 781 297 q 763 384 781 365 q 719 403 746 403 q 679 389 694 403 q 661 350 664 375 l 536 350 q 588 457 539 417 q 724 497 638 497 q 823 475 781 497 q 888 417 865 453 q 911 339 911 381 q 881 250 911 289 q 781 164 851 211 l 679 99 l 913 99 z "},"¾":{"ha":1031,"x_min":46,"x_max":994,"o":"m 51 846 q 111 948 57 908 q 251 988 165 988 q 349 968 304 988 q 420 915 394 949 q 446 842 446 882 q 422 773 446 800 q 361 735 399 746 l 361 732 q 425 690 400 718 q 450 619 450 661 q 392 522 450 561 q 246 482 335 482 q 103 523 157 482 q 46 635 49 564 l 168 635 q 193 589 174 604 q 244 574 213 574 q 297 590 276 574 q 317 636 317 607 q 296 680 317 664 q 242 696 275 696 l 190 696 l 190 776 l 238 776 q 292 792 272 776 q 313 835 313 807 q 294 878 313 863 q 242 894 275 894 q 169 846 183 894 l 51 846 m 900 967 l 342 0 l 193 0 l 751 967 l 900 967 m 994 93 l 932 93 l 932 0 l 808 0 l 808 93 l 550 93 l 550 163 l 760 490 l 932 490 l 932 171 l 994 171 l 994 93 m 811 396 l 674 171 l 811 171 l 811 396 z "},"¿":{"ha":747,"x_min":71,"x_max":692,"o":"m 472 779 q 544 750 515 779 q 574 678 574 721 q 544 606 574 635 q 472 576 515 576 q 401 606 431 576 q 372 678 372 635 q 401 750 372 721 q 472 779 431 779 m 383 -210 q 156 -132 242 -210 q 71 81 71 -54 q 160 292 71 221 q 396 363 249 363 l 401 472 l 539 472 l 546 254 l 500 254 q 294 218 365 254 q 222 81 222 182 q 265 -35 222 7 q 382 -76 307 -76 q 500 -36 457 -76 q 543 76 543 4 l 692 76 q 654 -72 692 -7 q 547 -174 617 -137 q 383 -210 476 -210 z "},"À":{"ha":968,"x_min":47,"x_max":922,"o":"m 686 197 l 282 197 l 213 0 l 47 0 l 393 967 l 576 967 l 922 0 l 756 0 l 686 197 m 642 326 l 485 775 l 326 326 l 642 326 m 628 1138 l 628 1021 l 321 1172 l 321 1307 l 628 1138 z "},"Á":{"ha":968,"x_min":47,"x_max":922,"o":"m 686 197 l 282 197 l 213 0 l 47 0 l 393 967 l 576 967 l 922 0 l 756 0 l 686 197 m 642 326 l 485 775 l 326 326 l 642 326 m 628 1172 l 321 1021 l 321 1138 l 628 1307 l 628 1172 z "},"Â":{"ha":968,"x_min":47,"x_max":922,"o":"m 686 197 l 282 197 l 213 0 l 47 0 l 393 967 l 576 967 l 922 0 l 756 0 l 686 197 m 642 326 l 485 775 l 326 326 l 642 326 m 485 1140 l 286 1021 l 286 1144 l 485 1260 l 683 1144 l 683 1021 l 485 1140 z "},"Ã":{"ha":968,"x_min":47,"x_max":922,"o":"m 686 197 l 282 197 l 213 0 l 47 0 l 393 967 l 576 967 l 922 0 l 756 0 l 686 197 m 642 326 l 485 775 l 326 326 l 642 326 m 258 1046 q 311 1167 269 1126 q 415 1208 353 1208 q 461 1200 442 1208 q 508 1175 481 1192 q 544 1154 529 1161 q 576 1147 558 1147 q 616 1162 600 1147 q 636 1206 632 1176 l 725 1206 q 672 1084 714 1125 q 568 1043 631 1043 q 521 1052 542 1043 q 475 1078 500 1061 q 437 1099 450 1093 q 407 1106 424 1106 q 367 1090 383 1106 q 347 1046 351 1075 l 258 1046 z "},"Ä":{"ha":968,"x_min":47,"x_max":922,"o":"m 686 197 l 282 197 l 213 0 l 47 0 l 393 967 l 576 967 l 922 0 l 756 0 l 686 197 m 642 326 l 485 775 l 326 326 l 642 326 m 365 1063 q 306 1087 331 1063 q 282 1146 282 1111 q 306 1205 282 1181 q 365 1229 331 1229 q 424 1205 400 1229 q 449 1146 449 1181 q 424 1087 449 1111 q 365 1063 400 1063 m 604 1063 q 545 1087 569 1063 q 521 1146 521 1111 q 545 1205 521 1181 q 604 1229 569 1229 q 663 1205 639 1229 q 688 1146 688 1181 q 663 1087 688 1111 q 604 1063 639 1063 z "},"Å":{"ha":968,"x_min":47,"x_max":922,"o":"m 686 197 l 282 197 l 213 0 l 47 0 l 393 967 l 576 967 l 922 0 l 756 0 l 686 197 m 642 326 l 485 775 l 326 326 l 642 326 m 642 1193 q 597 1083 642 1125 q 485 1042 551 1042 q 374 1083 419 1042 q 329 1193 329 1125 q 374 1304 329 1263 q 485 1346 419 1346 q 597 1304 551 1346 q 642 1193 642 1263 m 553 1194 q 533 1246 553 1226 q 485 1265 514 1265 q 438 1246 457 1265 q 418 1194 418 1226 q 438 1144 418 1164 q 485 1124 457 1124 q 533 1144 514 1124 q 553 1194 553 1164 z "},"Æ":{"ha":1279,"x_min":17,"x_max":1188,"o":"m 814 843 l 814 550 l 1146 550 l 1146 428 l 814 428 l 814 124 l 1188 124 l 1188 0 l 656 0 l 656 197 l 296 197 l 189 0 l 17 0 l 549 967 l 1188 967 l 1188 843 l 814 843 m 656 321 l 656 857 l 364 321 l 656 321 z "},"Ç":{"ha":1074,"x_min":51,"x_max":993,"o":"m 544 129 q 699 167 632 129 q 803 281 765 204 l 993 281 q 838 78 943 153 q 593 -7 732 4 l 593 -67 q 724 -105 674 -67 q 774 -212 774 -143 q 724 -323 774 -282 q 597 -364 674 -364 l 414 -364 l 414 -264 l 565 -264 q 624 -253 604 -264 q 643 -212 643 -242 q 624 -172 643 -183 q 565 -161 604 -161 l 489 -161 l 489 -6 q 267 72 367 7 q 109 245 167 138 q 51 485 51 353 q 117 739 51 626 q 297 915 183 851 q 544 978 410 978 q 819 902 699 978 q 993 688 939 826 l 803 688 q 699 801 765 764 q 544 839 632 839 q 374 796 449 839 q 256 672 299 753 q 214 485 214 592 q 256 297 214 378 q 374 173 299 217 q 544 129 449 129 z "},"È":{"ha":728,"x_min":104,"x_max":638,"o":"m 263 838 l 263 554 l 596 554 l 596 425 l 263 425 l 263 129 l 638 129 l 638 0 l 104 0 l 104 967 l 638 967 l 638 838 l 263 838 m 507 1138 l 507 1021 l 200 1172 l 200 1307 l 507 1138 z "},"É":{"ha":728,"x_min":104,"x_max":638,"o":"m 263 838 l 263 554 l 596 554 l 596 425 l 263 425 l 263 129 l 638 129 l 638 0 l 104 0 l 104 967 l 638 967 l 638 838 l 263 838 m 507 1172 l 200 1021 l 200 1138 l 507 1307 l 507 1172 z "},"Ê":{"ha":728,"x_min":104,"x_max":638,"o":"m 263 838 l 263 554 l 596 554 l 596 425 l 263 425 l 263 129 l 638 129 l 638 0 l 104 0 l 104 967 l 638 967 l 638 838 l 263 838 m 364 1140 l 165 1021 l 165 1144 l 364 1260 l 563 1144 l 563 1021 l 364 1140 z "},"Ë":{"ha":728,"x_min":104,"x_max":638,"o":"m 263 838 l 263 554 l 596 554 l 596 425 l 263 425 l 263 129 l 638 129 l 638 0 l 104 0 l 104 967 l 638 967 l 638 838 l 263 838 m 244 1063 q 185 1087 210 1063 q 161 1146 161 1111 q 185 1205 161 1181 q 244 1229 210 1229 q 303 1205 279 1229 q 328 1146 328 1181 q 303 1087 328 1111 q 244 1063 279 1063 m 483 1063 q 424 1087 449 1063 q 400 1146 400 1111 q 424 1205 400 1181 q 483 1229 449 1229 q 542 1205 518 1229 q 567 1146 567 1181 q 542 1087 567 1111 q 483 1063 518 1063 z "},"Ì":{"ha":367,"x_min":19,"x_max":326,"o":"m 263 965 l 263 0 l 104 0 l 104 965 l 263 965 m 326 1138 l 326 1021 l 19 1172 l 19 1307 l 326 1138 z "},"Í":{"ha":367,"x_min":19,"x_max":326,"o":"m 263 965 l 263 0 l 104 0 l 104 965 l 263 965 m 326 1172 l 19 1021 l 19 1138 l 326 1307 l 326 1172 z "},"Î":{"ha":367,"x_min":-15,"x_max":382,"o":"m 263 965 l 263 0 l 104 0 l 104 965 l 263 965 m 183 1140 l -15 1021 l -15 1144 l 183 1260 l 382 1144 l 382 1021 l 183 1140 z "},"Ï":{"ha":367,"x_min":-19,"x_max":386,"o":"m 263 965 l 263 0 l 104 0 l 104 965 l 263 965 m 64 1063 q 5 1087 29 1063 q -19 1146 -19 1111 q 5 1205 -19 1181 q 64 1229 29 1229 q 123 1205 99 1229 q 147 1146 147 1181 q 123 1087 147 1111 q 64 1063 99 1063 m 303 1063 q 244 1087 268 1063 q 219 1146 219 1111 q 244 1205 219 1181 q 303 1229 268 1229 q 362 1205 338 1229 q 386 1146 386 1181 q 362 1087 386 1111 q 303 1063 338 1063 z "},"Ð":{"ha":1000,"x_min":13,"x_max":947,"o":"m 436 965 q 706 906 590 965 q 884 737 821 847 q 947 479 947 626 q 884 224 947 332 q 706 58 821 115 q 436 0 590 0 l 119 0 l 119 407 l 13 407 l 13 553 l 119 553 l 119 965 l 436 965 m 436 121 q 694 217 604 121 q 785 479 785 313 q 694 742 785 647 q 436 838 604 838 l 279 838 l 279 553 l 526 553 l 526 407 l 279 407 l 279 121 l 436 121 z "},"Ñ":{"ha":1001,"x_min":104,"x_max":897,"o":"m 897 0 l 739 0 l 263 721 l 263 0 l 104 0 l 104 967 l 263 967 l 739 247 l 739 967 l 897 967 l 897 0 m 275 1046 q 328 1167 286 1126 q 432 1208 369 1208 q 478 1200 458 1208 q 525 1175 497 1192 q 560 1154 546 1161 q 593 1147 575 1147 q 633 1162 617 1147 q 653 1206 649 1176 l 742 1206 q 689 1084 731 1125 q 585 1043 647 1043 q 538 1052 558 1043 q 492 1078 517 1061 q 453 1099 467 1093 q 424 1106 440 1106 q 384 1090 400 1106 q 364 1046 368 1075 l 275 1046 z "},"Ò":{"ha":1089,"x_min":51,"x_max":1038,"o":"m 544 -10 q 297 53 410 -10 q 117 230 183 117 q 51 485 51 343 q 117 739 51 626 q 297 915 183 851 q 544 978 410 978 q 794 915 681 978 q 972 739 907 851 q 1038 485 1038 626 q 972 230 1038 343 q 794 53 907 117 q 544 -10 681 -10 m 544 128 q 715 172 640 128 q 833 297 790 215 q 875 485 875 378 q 833 672 875 592 q 715 796 790 753 q 544 839 640 839 q 374 796 449 839 q 256 672 299 753 q 214 485 214 592 q 256 297 214 378 q 374 172 299 215 q 544 128 449 128 m 688 1138 l 688 1021 l 381 1172 l 381 1307 l 688 1138 z "},"Ó":{"ha":1089,"x_min":51,"x_max":1038,"o":"m 544 -10 q 297 53 410 -10 q 117 230 183 117 q 51 485 51 343 q 117 739 51 626 q 297 915 183 851 q 544 978 410 978 q 794 915 681 978 q 972 739 907 851 q 1038 485 1038 626 q 972 230 1038 343 q 794 53 907 117 q 544 -10 681 -10 m 544 128 q 715 172 640 128 q 833 297 790 215 q 875 485 875 378 q 833 672 875 592 q 715 796 790 753 q 544 839 640 839 q 374 796 449 839 q 256 672 299 753 q 214 485 214 592 q 256 297 214 378 q 374 172 299 215 q 544 128 449 128 m 688 1172 l 381 1021 l 381 1138 l 688 1307 l 688 1172 z "},"Ô":{"ha":1089,"x_min":51,"x_max":1038,"o":"m 544 -10 q 297 53 410 -10 q 117 230 183 117 q 51 485 51 343 q 117 739 51 626 q 297 915 183 851 q 544 978 410 978 q 794 915 681 978 q 972 739 907 851 q 1038 485 1038 626 q 972 230 1038 343 q 794 53 907 117 q 544 -10 681 -10 m 544 128 q 715 172 640 128 q 833 297 790 215 q 875 485 875 378 q 833 672 875 592 q 715 796 790 753 q 544 839 640 839 q 374 796 449 839 q 256 672 299 753 q 214 485 214 592 q 256 297 214 378 q 374 172 299 215 q 544 128 449 128 m 544 1140 l 346 1021 l 346 1144 l 544 1260 l 743 1144 l 743 1021 l 544 1140 z "},"Õ":{"ha":1089,"x_min":51,"x_max":1038,"o":"m 544 -10 q 297 53 410 -10 q 117 230 183 117 q 51 485 51 343 q 117 739 51 626 q 297 915 183 851 q 544 978 410 978 q 794 915 681 978 q 972 739 907 851 q 1038 485 1038 626 q 972 230 1038 343 q 794 53 907 117 q 544 -10 681 -10 m 544 128 q 715 172 640 128 q 833 297 790 215 q 875 485 875 378 q 833 672 875 592 q 715 796 790 753 q 544 839 640 839 q 374 796 449 839 q 256 672 299 753 q 214 485 214 592 q 256 297 214 378 q 374 172 299 215 q 544 128 449 128 m 318 1046 q 371 1167 329 1126 q 475 1208 413 1208 q 521 1200 501 1208 q 568 1175 540 1192 q 603 1154 589 1161 q 636 1147 618 1147 q 676 1162 660 1147 q 696 1206 692 1176 l 785 1206 q 732 1084 774 1125 q 628 1043 690 1043 q 581 1052 601 1043 q 535 1078 560 1061 q 497 1099 510 1093 q 467 1106 483 1106 q 427 1090 443 1106 q 407 1046 411 1075 l 318 1046 z "},"Ö":{"ha":1089,"x_min":51,"x_max":1038,"o":"m 544 -10 q 297 53 410 -10 q 117 230 183 117 q 51 485 51 343 q 117 739 51 626 q 297 915 183 851 q 544 978 410 978 q 794 915 681 978 q 972 739 907 851 q 1038 485 1038 626 q 972 230 1038 343 q 794 53 907 117 q 544 -10 681 -10 m 544 128 q 715 172 640 128 q 833 297 790 215 q 875 485 875 378 q 833 672 875 592 q 715 796 790 753 q 544 839 640 839 q 374 796 449 839 q 256 672 299 753 q 214 485 214 592 q 256 297 214 378 q 374 172 299 215 q 544 128 449 128 m 425 1063 q 366 1087 390 1063 q 342 1146 342 1111 q 366 1205 342 1181 q 425 1229 390 1229 q 484 1205 460 1229 q 508 1146 508 1181 q 484 1087 508 1111 q 425 1063 460 1063 m 664 1063 q 605 1087 629 1063 q 581 1146 581 1111 q 605 1205 581 1181 q 664 1229 629 1229 q 723 1205 699 1229 q 747 1146 747 1181 q 723 1087 747 1111 q 664 1063 699 1063 z "},"×":{"ha":971,"x_min":171,"x_max":799,"o":"m 697 192 l 486 403 l 275 192 l 171 296 l 383 507 l 176 714 l 278 815 l 485 608 l 692 815 l 796 711 l 589 504 l 799 293 l 697 192 z "},"Ø":{"ha":1089,"x_min":36,"x_max":1053,"o":"m 915 818 q 1006 667 974 753 q 1038 485 1038 582 q 972 230 1038 343 q 794 53 907 117 q 544 -10 681 -10 q 383 15 460 -10 q 243 88 306 40 l 163 0 l 36 0 l 175 150 q 84 302 117 217 q 51 485 51 388 q 117 739 51 626 q 297 915 183 851 q 544 978 410 978 q 707 953 629 978 q 847 881 785 928 l 926 967 l 1053 967 l 915 818 m 214 485 q 278 261 214 356 l 749 774 q 544 839 661 839 q 374 796 449 839 q 256 672 299 753 q 214 485 214 592 m 875 485 q 813 706 875 615 l 342 194 q 544 128 425 128 q 715 172 640 128 q 833 297 790 215 q 875 485 875 378 z "},"Ù":{"ha":958,"x_min":103,"x_max":857,"o":"m 261 965 l 261 350 q 319 185 261 240 q 479 129 376 129 q 641 185 583 129 q 699 350 699 240 l 699 965 l 857 965 l 857 353 q 806 153 857 235 q 668 31 754 71 q 478 -10 582 -10 q 288 31 374 -10 q 153 153 203 71 q 103 353 103 235 l 103 965 l 261 965 m 622 1138 l 622 1021 l 315 1172 l 315 1307 l 622 1138 z "},"Ú":{"ha":958,"x_min":103,"x_max":857,"o":"m 261 965 l 261 350 q 319 185 261 240 q 479 129 376 129 q 641 185 583 129 q 699 350 699 240 l 699 965 l 857 965 l 857 353 q 806 153 857 235 q 668 31 754 71 q 478 -10 582 -10 q 288 31 374 -10 q 153 153 203 71 q 103 353 103 235 l 103 965 l 261 965 m 622 1172 l 315 1021 l 315 1138 l 622 1307 l 622 1172 z "},"Û":{"ha":958,"x_min":103,"x_max":857,"o":"m 261 965 l 261 350 q 319 185 261 240 q 479 129 376 129 q 641 185 583 129 q 699 350 699 240 l 699 965 l 857 965 l 857 353 q 806 153 857 235 q 668 31 754 71 q 478 -10 582 -10 q 288 31 374 -10 q 153 153 203 71 q 103 353 103 235 l 103 965 l 261 965 m 479 1140 l 281 1021 l 281 1144 l 479 1260 l 678 1144 l 678 1021 l 479 1140 z "},"Ü":{"ha":958,"x_min":103,"x_max":857,"o":"m 261 965 l 261 350 q 319 185 261 240 q 479 129 376 129 q 641 185 583 129 q 699 350 699 240 l 699 965 l 857 965 l 857 353 q 806 153 857 235 q 668 31 754 71 q 478 -10 582 -10 q 288 31 374 -10 q 153 153 203 71 q 103 353 103 235 l 103 965 l 261 965 m 360 1063 q 301 1087 325 1063 q 276 1146 276 1111 q 301 1205 276 1181 q 360 1229 325 1229 q 419 1205 394 1229 q 443 1146 443 1181 q 419 1087 443 1111 q 360 1063 394 1063 m 599 1063 q 540 1087 564 1063 q 515 1146 515 1111 q 540 1205 515 1181 q 599 1229 564 1229 q 658 1205 633 1229 q 682 1146 682 1181 q 658 1087 682 1111 q 599 1063 633 1063 z "},"Ý":{"ha":840,"x_min":21,"x_max":819,"o":"m 819 965 l 500 350 l 500 0 l 342 0 l 342 350 l 21 965 l 197 965 l 421 492 l 644 965 l 819 965 m 564 1172 l 257 1021 l 257 1138 l 564 1307 l 564 1172 z "},"Þ":{"ha":826,"x_min":104,"x_max":779,"o":"m 779 483 q 744 344 779 410 q 633 238 710 279 q 438 197 557 197 l 263 197 l 263 0 l 104 0 l 104 967 l 261 967 l 261 771 l 438 771 q 626 733 549 771 q 741 629 703 694 q 779 483 779 564 m 438 321 q 572 364 528 321 q 617 483 617 407 q 572 603 617 560 q 438 647 528 647 l 263 647 l 263 321 l 438 321 z "},"ß":{"ha":971,"x_min":75,"x_max":896,"o":"m 75 781 q 161 991 75 908 q 419 1074 247 1074 q 593 1040 521 1074 q 702 951 665 1006 q 739 835 739 897 q 705 716 739 763 q 613 621 671 669 q 566 576 581 592 q 551 542 551 560 q 581 497 551 517 q 697 447 611 476 q 849 356 801 413 q 896 215 896 300 q 821 49 896 113 q 615 -14 746 -14 q 410 53 489 -14 q 322 240 332 119 l 483 240 q 519 147 486 181 q 615 113 553 113 q 733 203 733 113 q 706 276 733 249 q 607 326 679 303 q 442 408 493 364 q 392 519 392 451 q 417 604 392 568 q 494 689 443 640 q 560 759 539 731 q 581 822 581 788 q 537 910 581 879 q 417 942 493 942 q 276 896 318 942 q 233 760 233 850 l 233 0 l 75 0 l 75 781 z "},"à":{"ha":942,"x_min":51,"x_max":838,"o":"m 51 386 q 99 590 51 501 q 230 728 147 679 q 413 778 313 778 q 570 742 503 778 q 678 654 638 707 l 678 765 l 838 765 l 838 0 l 678 0 l 678 114 q 568 24 638 60 q 410 -12 499 -12 q 229 38 311 -12 q 99 180 147 89 q 51 386 51 271 m 678 383 q 645 521 678 463 q 560 610 613 579 q 446 640 507 640 q 332 610 385 640 q 247 523 279 581 q 214 386 214 465 q 247 247 214 307 q 333 156 279 188 q 446 125 386 125 q 560 156 507 125 q 645 245 613 186 q 678 383 678 304 m 614 936 l 614 819 l 307 971 l 307 1106 l 614 936 z "},"á":{"ha":942,"x_min":51,"x_max":838,"o":"m 51 386 q 99 590 51 501 q 230 728 147 679 q 413 778 313 778 q 570 742 503 778 q 678 654 638 707 l 678 765 l 838 765 l 838 0 l 678 0 l 678 114 q 568 24 638 60 q 410 -12 499 -12 q 229 38 311 -12 q 99 180 147 89 q 51 386 51 271 m 678 383 q 645 521 678 463 q 560 610 613 579 q 446 640 507 640 q 332 610 385 640 q 247 523 279 581 q 214 386 214 465 q 247 247 214 307 q 333 156 279 188 q 446 125 386 125 q 560 156 507 125 q 645 245 613 186 q 678 383 678 304 m 614 971 l 307 819 l 307 936 l 614 1106 l 614 971 z "},"â":{"ha":942,"x_min":51,"x_max":838,"o":"m 51 386 q 99 590 51 501 q 230 728 147 679 q 413 778 313 778 q 570 742 503 778 q 678 654 638 707 l 678 765 l 838 765 l 838 0 l 678 0 l 678 114 q 568 24 638 60 q 410 -12 499 -12 q 229 38 311 -12 q 99 180 147 89 q 51 386 51 271 m 678 383 q 645 521 678 463 q 560 610 613 579 q 446 640 507 640 q 332 610 385 640 q 247 523 279 581 q 214 386 214 465 q 247 247 214 307 q 333 156 279 188 q 446 125 386 125 q 560 156 507 125 q 645 245 613 186 q 678 383 678 304 m 471 939 l 272 819 l 272 943 l 471 1058 l 669 943 l 669 819 l 471 939 z "},"ã":{"ha":942,"x_min":51,"x_max":838,"o":"m 51 386 q 99 590 51 501 q 230 728 147 679 q 413 778 313 778 q 570 742 503 778 q 678 654 638 707 l 678 765 l 838 765 l 838 0 l 678 0 l 678 114 q 568 24 638 60 q 410 -12 499 -12 q 229 38 311 -12 q 99 180 147 89 q 51 386 51 271 m 678 383 q 645 521 678 463 q 560 610 613 579 q 446 640 507 640 q 332 610 385 640 q 247 523 279 581 q 214 386 214 465 q 247 247 214 307 q 333 156 279 188 q 446 125 386 125 q 560 156 507 125 q 645 245 613 186 q 678 383 678 304 m 244 844 q 297 966 256 925 q 401 1007 339 1007 q 447 999 428 1007 q 494 974 467 990 q 530 953 515 960 q 563 946 544 946 q 602 960 586 946 q 622 1004 618 975 l 711 1004 q 658 883 700 924 q 554 842 617 842 q 507 851 528 842 q 461 876 486 860 q 423 898 436 892 q 393 904 410 904 q 353 889 369 904 q 333 844 338 874 l 244 844 z "},"ä":{"ha":942,"x_min":51,"x_max":838,"o":"m 51 386 q 99 590 51 501 q 230 728 147 679 q 413 778 313 778 q 570 742 503 778 q 678 654 638 707 l 678 765 l 838 765 l 838 0 l 678 0 l 678 114 q 568 24 638 60 q 410 -12 499 -12 q 229 38 311 -12 q 99 180 147 89 q 51 386 51 271 m 678 383 q 645 521 678 463 q 560 610 613 579 q 446 640 507 640 q 332 610 385 640 q 247 523 279 581 q 214 386 214 465 q 247 247 214 307 q 333 156 279 188 q 446 125 386 125 q 560 156 507 125 q 645 245 613 186 q 678 383 678 304 m 351 861 q 292 885 317 861 q 268 944 268 910 q 292 1003 268 979 q 351 1028 317 1028 q 410 1003 386 1028 q 435 944 435 979 q 410 885 435 910 q 351 861 386 861 m 590 861 q 531 885 556 861 q 507 944 507 910 q 531 1003 507 979 q 590 1028 556 1028 q 649 1003 625 1028 q 674 944 674 979 q 649 885 674 910 q 590 861 625 861 z "},"å":{"ha":942,"x_min":51,"x_max":838,"o":"m 51 386 q 99 590 51 501 q 230 728 147 679 q 413 778 313 778 q 570 742 503 778 q 678 654 638 707 l 678 765 l 838 765 l 838 0 l 678 0 l 678 114 q 568 24 638 60 q 410 -12 499 -12 q 229 38 311 -12 q 99 180 147 89 q 51 386 51 271 m 678 383 q 645 521 678 463 q 560 610 613 579 q 446 640 507 640 q 332 610 385 640 q 247 523 279 581 q 214 386 214 465 q 247 247 214 307 q 333 156 279 188 q 446 125 386 125 q 560 156 507 125 q 645 245 613 186 q 678 383 678 304 m 628 992 q 583 882 628 924 q 471 840 538 840 q 360 882 406 840 q 315 992 315 924 q 360 1103 315 1061 q 471 1144 406 1144 q 583 1103 538 1144 q 628 992 628 1061 m 539 993 q 519 1044 539 1025 q 471 1064 500 1064 q 424 1044 443 1064 q 404 993 404 1025 q 424 942 404 963 q 471 922 443 922 q 519 942 500 922 q 539 993 539 963 z "},"æ":{"ha":1507,"x_min":51,"x_max":1456,"o":"m 1456 404 q 1450 329 1456 364 l 840 329 q 883 217 849 264 q 967 145 918 169 q 1068 121 1017 121 q 1194 150 1144 121 q 1263 228 1243 179 l 1435 228 q 1312 55 1400 122 q 1096 -12 1224 -12 q 939 23 1013 -12 q 819 115 865 58 l 819 0 l 683 0 l 683 115 q 566 23 636 58 q 413 -12 496 -12 q 230 38 313 -12 q 99 180 147 89 q 51 386 51 271 q 99 591 51 501 q 232 729 147 681 q 421 778 317 778 q 688 657 588 778 l 688 765 l 819 765 l 819 657 q 944 749 878 721 q 1096 778 1011 778 q 1282 730 1200 778 q 1410 597 1364 682 q 1456 404 1456 511 m 1292 443 q 1227 589 1290 533 q 1069 644 1164 644 q 919 589 983 644 q 840 443 854 533 l 1292 443 m 446 125 q 560 156 507 125 q 645 245 613 186 q 678 383 678 304 q 645 521 678 463 q 560 610 613 579 q 446 640 507 640 q 332 610 385 640 q 247 523 279 581 q 214 386 214 465 q 247 247 214 307 q 333 156 279 188 q 446 125 386 125 z "},"ç":{"ha":833,"x_min":51,"x_max":779,"o":"m 426 121 q 608 242 564 121 l 779 242 q 670 69 749 136 q 474 -10 592 1 l 474 -67 q 604 -105 554 -67 q 654 -212 654 -143 q 604 -323 654 -282 q 478 -364 554 -364 l 294 -364 l 294 -264 l 446 -264 q 504 -253 485 -264 q 524 -212 524 -242 q 504 -172 524 -183 q 446 -161 485 -161 l 369 -161 l 369 -8 q 203 55 275 3 q 91 191 131 107 q 51 383 51 275 q 99 591 51 501 q 232 729 147 681 q 426 778 317 778 q 656 712 565 778 q 779 524 747 646 l 608 524 q 542 613 588 581 q 426 644 496 644 q 272 576 329 644 q 214 383 214 507 q 272 190 214 260 q 426 121 329 121 z "},"è":{"ha":857,"x_min":51,"x_max":806,"o":"m 806 401 q 800 324 806 358 l 215 324 q 283 176 222 232 q 433 121 344 121 q 614 228 561 121 l 785 228 q 659 55 750 122 q 433 -12 568 -12 q 237 37 324 -12 q 101 176 150 86 q 51 383 51 265 q 99 591 51 501 q 234 729 147 681 q 433 778 321 778 q 626 731 542 778 q 758 598 711 683 q 806 401 806 513 m 640 451 q 578 592 639 539 q 426 644 517 644 q 286 592 344 644 q 217 451 228 540 l 640 451 m 572 936 l 572 819 l 265 971 l 265 1106 l 572 936 z "},"é":{"ha":857,"x_min":51,"x_max":806,"o":"m 806 401 q 800 324 806 358 l 215 324 q 283 176 222 232 q 433 121 344 121 q 614 228 561 121 l 785 228 q 659 55 750 122 q 433 -12 568 -12 q 237 37 324 -12 q 101 176 150 86 q 51 383 51 265 q 99 591 51 501 q 234 729 147 681 q 433 778 321 778 q 626 731 542 778 q 758 598 711 683 q 806 401 806 513 m 640 451 q 578 592 639 539 q 426 644 517 644 q 286 592 344 644 q 217 451 228 540 l 640 451 m 572 971 l 265 819 l 265 936 l 572 1106 l 572 971 z "},"ê":{"ha":857,"x_min":51,"x_max":806,"o":"m 806 401 q 800 324 806 358 l 215 324 q 283 176 222 232 q 433 121 344 121 q 614 228 561 121 l 785 228 q 659 55 750 122 q 433 -12 568 -12 q 237 37 324 -12 q 101 176 150 86 q 51 383 51 265 q 99 591 51 501 q 234 729 147 681 q 433 778 321 778 q 626 731 542 778 q 758 598 711 683 q 806 401 806 513 m 640 451 q 578 592 639 539 q 426 644 517 644 q 286 592 344 644 q 217 451 228 540 l 640 451 m 429 939 l 231 819 l 231 943 l 429 1058 l 628 943 l 628 819 l 429 939 z "},"ë":{"ha":857,"x_min":51,"x_max":806,"o":"m 806 401 q 800 324 806 358 l 215 324 q 283 176 222 232 q 433 121 344 121 q 614 228 561 121 l 785 228 q 659 55 750 122 q 433 -12 568 -12 q 237 37 324 -12 q 101 176 150 86 q 51 383 51 265 q 99 591 51 501 q 234 729 147 681 q 433 778 321 778 q 626 731 542 778 q 758 598 711 683 q 806 401 806 513 m 640 451 q 578 592 639 539 q 426 644 517 644 q 286 592 344 644 q 217 451 228 540 l 640 451 m 310 861 q 251 885 275 861 q 226 944 226 910 q 251 1003 226 979 q 310 1028 275 1028 q 369 1003 344 1028 q 393 944 393 979 q 369 885 393 910 q 310 861 344 861 m 549 861 q 490 885 514 861 q 465 944 465 910 q 490 1003 465 979 q 549 1028 514 1028 q 608 1003 583 1028 q 632 944 632 979 q 608 885 632 910 q 549 861 583 861 z "},"ì":{"ha":367,"x_min":19,"x_max":326,"o":"m 263 765 l 263 0 l 104 0 l 104 765 l 263 765 m 326 936 l 326 819 l 19 971 l 19 1106 l 326 936 z "},"í":{"ha":367,"x_min":19,"x_max":326,"o":"m 263 765 l 263 0 l 104 0 l 104 765 l 263 765 m 326 971 l 19 819 l 19 936 l 326 1106 l 326 971 z "},"î":{"ha":367,"x_min":-15,"x_max":382,"o":"m 263 765 l 263 0 l 104 0 l 104 765 l 263 765 m 183 939 l -15 819 l -15 943 l 183 1058 l 382 943 l 382 819 l 183 939 z "},"ï":{"ha":367,"x_min":-19,"x_max":386,"o":"m 263 765 l 263 0 l 104 0 l 104 765 l 263 765 m 64 861 q 5 885 29 861 q -19 944 -19 910 q 5 1003 -19 979 q 64 1028 29 1028 q 123 1003 99 1028 q 147 944 147 979 q 123 885 147 910 q 64 861 99 861 m 303 861 q 244 885 268 861 q 219 944 219 910 q 244 1003 219 979 q 303 1028 268 1028 q 362 1003 338 1028 q 386 944 386 979 q 362 885 386 910 q 303 861 338 861 z "},"ð":{"ha":883,"x_min":51,"x_max":832,"o":"m 653 910 q 832 440 832 699 q 781 192 832 294 q 640 39 729 90 q 436 -12 550 -12 q 239 37 326 -12 q 101 176 151 86 q 51 383 51 265 q 101 590 51 500 q 237 729 151 681 q 426 778 322 778 q 547 758 494 778 q 647 699 600 739 q 538 872 608 789 l 367 817 l 367 901 l 476 938 q 374 1028 429 982 l 535 1028 q 592 975 564 1003 l 765 1032 l 765 947 l 653 910 m 436 121 q 551 151 497 121 q 637 241 604 182 q 669 383 669 300 q 638 526 669 467 q 553 615 606 585 q 439 644 500 644 q 326 615 378 644 q 244 526 275 585 q 214 383 214 467 q 244 240 214 300 q 324 151 274 181 q 436 121 375 121 z "},"ñ":{"ha":901,"x_min":104,"x_max":804,"o":"m 490 778 q 652 740 581 778 q 764 629 724 703 q 804 451 804 556 l 804 0 l 647 0 l 647 428 q 596 585 647 531 q 456 640 544 640 q 315 585 367 640 q 263 428 263 531 l 263 0 l 104 0 l 104 765 l 263 765 l 263 678 q 362 751 301 725 q 490 778 422 778 m 239 844 q 292 966 250 925 q 396 1007 333 1007 q 442 999 422 1007 q 489 974 461 990 q 524 953 510 960 q 557 946 539 946 q 597 960 581 946 q 617 1004 613 975 l 706 1004 q 653 883 694 924 q 549 842 611 842 q 501 851 522 842 q 456 876 481 860 q 417 898 431 892 q 388 904 404 904 q 348 889 364 904 q 328 844 332 874 l 239 844 z "},"ò":{"ha":886,"x_min":53,"x_max":833,"o":"m 436 -12 q 240 37 328 -12 q 103 176 153 86 q 53 383 53 265 q 104 590 53 500 q 244 729 156 681 q 443 778 333 778 q 642 729 553 778 q 782 590 731 681 q 833 383 833 500 q 781 176 833 267 q 637 37 728 86 q 436 -12 546 -12 m 436 125 q 551 154 497 125 q 638 242 604 183 q 671 383 671 300 q 639 524 671 467 q 554 611 607 582 q 440 640 501 640 q 327 611 379 640 q 244 524 275 582 q 214 383 214 467 q 277 192 214 260 q 436 125 340 125 m 586 949 l 586 832 l 279 983 l 279 1118 l 586 949 z "},"ó":{"ha":886,"x_min":53,"x_max":833,"o":"m 436 -12 q 240 37 328 -12 q 103 176 153 86 q 53 383 53 265 q 104 590 53 500 q 244 729 156 681 q 443 778 333 778 q 642 729 553 778 q 782 590 731 681 q 833 383 833 500 q 781 176 833 267 q 637 37 728 86 q 436 -12 546 -12 m 436 125 q 551 154 497 125 q 638 242 604 183 q 671 383 671 300 q 639 524 671 467 q 554 611 607 582 q 440 640 501 640 q 327 611 379 640 q 244 524 275 582 q 214 383 214 467 q 277 192 214 260 q 436 125 340 125 m 586 983 l 279 832 l 279 949 l 586 1118 l 586 983 z "},"ô":{"ha":886,"x_min":53,"x_max":833,"o":"m 436 -12 q 240 37 328 -12 q 103 176 153 86 q 53 383 53 265 q 104 590 53 500 q 244 729 156 681 q 443 778 333 778 q 642 729 553 778 q 782 590 731 681 q 833 383 833 500 q 781 176 833 267 q 637 37 728 86 q 436 -12 546 -12 m 436 125 q 551 154 497 125 q 638 242 604 183 q 671 383 671 300 q 639 524 671 467 q 554 611 607 582 q 440 640 501 640 q 327 611 379 640 q 244 524 275 582 q 214 383 214 467 q 277 192 214 260 q 436 125 340 125 m 443 951 l 244 832 l 244 956 l 443 1071 l 642 956 l 642 832 l 443 951 z "},"õ":{"ha":886,"x_min":53,"x_max":833,"o":"m 436 -12 q 240 37 328 -12 q 103 176 153 86 q 53 383 53 265 q 104 590 53 500 q 244 729 156 681 q 443 778 333 778 q 642 729 553 778 q 782 590 731 681 q 833 383 833 500 q 781 176 833 267 q 637 37 728 86 q 436 -12 546 -12 m 436 125 q 551 154 497 125 q 638 242 604 183 q 671 383 671 300 q 639 524 671 467 q 554 611 607 582 q 440 640 501 640 q 327 611 379 640 q 244 524 275 582 q 214 383 214 467 q 277 192 214 260 q 436 125 340 125 m 217 857 q 269 978 228 938 q 374 1019 311 1019 q 419 1011 400 1019 q 467 986 439 1003 q 502 965 488 972 q 535 958 517 958 q 574 973 558 958 q 594 1017 590 988 l 683 1017 q 631 895 672 936 q 526 854 589 854 q 479 863 500 854 q 433 889 458 872 q 395 910 408 904 q 365 917 382 917 q 326 901 342 917 q 306 857 310 886 l 217 857 z "},"ö":{"ha":886,"x_min":53,"x_max":833,"o":"m 436 -12 q 240 37 328 -12 q 103 176 153 86 q 53 383 53 265 q 104 590 53 500 q 244 729 156 681 q 443 778 333 778 q 642 729 553 778 q 782 590 731 681 q 833 383 833 500 q 781 176 833 267 q 637 37 728 86 q 436 -12 546 -12 m 436 125 q 551 154 497 125 q 638 242 604 183 q 671 383 671 300 q 639 524 671 467 q 554 611 607 582 q 440 640 501 640 q 327 611 379 640 q 244 524 275 582 q 214 383 214 467 q 277 192 214 260 q 436 125 340 125 m 324 874 q 265 898 289 874 q 240 957 240 922 q 265 1016 240 992 q 324 1040 289 1040 q 383 1016 358 1040 q 407 957 407 992 q 383 898 407 922 q 324 874 358 874 m 563 874 q 503 898 528 874 q 479 957 479 922 q 503 1016 479 992 q 563 1040 528 1040 q 622 1016 597 1040 q 646 957 646 992 q 622 898 646 922 q 563 874 597 874 z "},"÷":{"ha":943,"x_min":125,"x_max":833,"o":"m 482 701 q 410 731 439 701 q 381 803 381 760 q 410 875 381 846 q 482 904 439 904 q 553 875 524 904 q 582 803 582 846 q 553 731 582 760 q 482 701 524 701 m 833 569 l 833 436 l 125 436 l 125 569 l 833 569 m 482 104 q 410 133 439 104 q 381 206 381 163 q 410 278 381 249 q 482 307 439 307 q 553 278 524 307 q 582 206 582 249 q 553 133 582 163 q 482 104 524 104 z "},"ø":{"ha":886,"x_min":39,"x_max":847,"o":"m 740 649 q 833 383 833 542 q 781 176 833 267 q 637 37 728 86 q 436 -12 546 -12 q 204 60 303 -12 l 149 0 l 39 0 l 144 115 q 53 383 53 222 q 104 590 53 500 q 244 729 156 681 q 443 778 333 778 q 681 704 579 778 l 738 765 l 847 765 l 740 649 m 214 383 q 250 231 214 296 l 581 593 q 440 640 521 640 q 327 611 379 640 q 244 524 275 582 q 214 383 214 467 m 671 383 q 635 532 671 469 l 303 168 q 436 125 358 125 q 551 154 497 125 q 638 242 604 183 q 671 383 671 300 z "},"ù":{"ha":901,"x_min":97,"x_max":797,"o":"m 797 765 l 797 0 l 639 0 l 639 90 q 541 16 601 43 q 413 -11 481 -11 q 251 26 322 -11 q 138 138 179 64 q 97 315 97 211 l 97 765 l 254 765 l 254 339 q 306 181 254 236 q 446 126 357 126 q 587 181 535 126 q 639 339 639 236 l 639 765 l 797 765 m 594 936 l 594 819 l 288 971 l 288 1106 l 594 936 z "},"ú":{"ha":901,"x_min":97,"x_max":797,"o":"m 797 765 l 797 0 l 639 0 l 639 90 q 541 16 601 43 q 413 -11 481 -11 q 251 26 322 -11 q 138 138 179 64 q 97 315 97 211 l 97 765 l 254 765 l 254 339 q 306 181 254 236 q 446 126 357 126 q 587 181 535 126 q 639 339 639 236 l 639 765 l 797 765 m 594 971 l 288 819 l 288 936 l 594 1106 l 594 971 z "},"û":{"ha":901,"x_min":97,"x_max":797,"o":"m 797 765 l 797 0 l 639 0 l 639 90 q 541 16 601 43 q 413 -11 481 -11 q 251 26 322 -11 q 138 138 179 64 q 97 315 97 211 l 97 765 l 254 765 l 254 339 q 306 181 254 236 q 446 126 357 126 q 587 181 535 126 q 639 339 639 236 l 639 765 l 797 765 m 451 939 l 253 819 l 253 943 l 451 1058 l 650 943 l 650 819 l 451 939 z "},"ü":{"ha":901,"x_min":97,"x_max":797,"o":"m 797 765 l 797 0 l 639 0 l 639 90 q 541 16 601 43 q 413 -11 481 -11 q 251 26 322 -11 q 138 138 179 64 q 97 315 97 211 l 97 765 l 254 765 l 254 339 q 306 181 254 236 q 446 126 357 126 q 587 181 535 126 q 639 339 639 236 l 639 765 l 797 765 m 332 861 q 273 885 297 861 q 249 944 249 910 q 273 1003 249 979 q 332 1028 297 1028 q 391 1003 367 1028 q 415 944 415 979 q 391 885 415 910 q 332 861 367 861 m 571 861 q 512 885 536 861 q 488 944 488 910 q 512 1003 488 979 q 571 1028 536 1028 q 630 1003 606 1028 q 654 944 654 979 q 630 885 654 910 q 571 861 606 861 z "},"ý":{"ha":808,"x_min":14,"x_max":793,"o":"m 793 765 l 324 -360 l 160 -360 l 315 13 l 14 765 l 190 765 l 406 182 l 629 765 l 793 765 m 547 971 l 240 819 l 240 936 l 547 1106 l 547 971 z "},"þ":{"ha":942,"x_min":104,"x_max":889,"o":"m 263 629 q 370 737 301 696 q 529 778 439 778 q 712 728 629 778 q 842 590 794 679 q 889 386 889 501 q 842 180 889 271 q 712 38 794 89 q 529 -12 629 -12 q 371 30 439 -12 q 263 143 303 72 l 263 -364 l 104 -364 l 104 1028 l 263 1028 l 263 629 m 728 386 q 695 523 728 465 q 609 610 663 581 q 494 640 556 640 q 381 610 435 640 q 295 521 328 579 q 263 383 263 463 q 295 245 263 304 q 381 156 328 186 q 494 125 435 125 q 609 156 556 125 q 695 247 663 188 q 728 386 728 307 z "},"ÿ":{"ha":808,"x_min":14,"x_max":793,"o":"m 793 765 l 324 -360 l 160 -360 l 315 13 l 14 765 l 190 765 l 406 182 l 629 765 l 793 765 m 285 861 q 226 885 250 861 q 201 944 201 910 q 226 1003 201 979 q 285 1028 250 1028 q 344 1003 319 1028 q 368 944 368 979 q 344 885 368 910 q 285 861 319 861 m 524 861 q 465 885 489 861 q 440 944 440 910 q 465 1003 440 979 q 524 1028 489 1028 q 583 1003 558 1028 q 607 944 607 979 q 583 885 607 910 q 524 861 558 861 z "},"Ā":{"ha":968,"x_min":47,"x_max":922,"o":"m 686 197 l 282 197 l 213 0 l 47 0 l 393 967 l 576 967 l 922 0 l 756 0 l 686 197 m 642 326 l 485 775 l 326 326 l 642 326 m 739 1201 l 739 1083 l 231 1083 l 231 1201 l 739 1201 z "},"ā":{"ha":942,"x_min":51,"x_max":838,"o":"m 51 386 q 99 590 51 501 q 230 728 147 679 q 413 778 313 778 q 570 742 503 778 q 678 654 638 707 l 678 765 l 838 765 l 838 0 l 678 0 l 678 114 q 568 24 638 60 q 410 -12 499 -12 q 229 38 311 -12 q 99 180 147 89 q 51 386 51 271 m 678 383 q 645 521 678 463 q 560 610 613 579 q 446 640 507 640 q 332 610 385 640 q 247 523 279 581 q 214 386 214 465 q 247 247 214 307 q 333 156 279 188 q 446 125 386 125 q 560 156 507 125 q 645 245 613 186 q 678 383 678 304 m 725 1000 l 725 882 l 217 882 l 217 1000 l 725 1000 z "},"Ă":{"ha":968,"x_min":47,"x_max":922,"o":"m 686 197 l 282 197 l 213 0 l 47 0 l 393 967 l 576 967 l 922 0 l 756 0 l 686 197 m 642 326 l 485 775 l 326 326 l 642 326 m 694 1224 q 638 1083 694 1136 q 485 1031 582 1031 q 332 1084 388 1031 q 276 1225 276 1138 l 276 1254 l 367 1254 q 393 1179 367 1204 q 485 1154 419 1154 q 576 1179 550 1154 q 603 1254 603 1204 l 694 1254 l 694 1224 z "},"ă":{"ha":942,"x_min":51,"x_max":838,"o":"m 51 386 q 99 590 51 501 q 230 728 147 679 q 413 778 313 778 q 570 742 503 778 q 678 654 638 707 l 678 765 l 838 765 l 838 0 l 678 0 l 678 114 q 568 24 638 60 q 410 -12 499 -12 q 229 38 311 -12 q 99 180 147 89 q 51 386 51 271 m 678 383 q 645 521 678 463 q 560 610 613 579 q 446 640 507 640 q 332 610 385 640 q 247 523 279 581 q 214 386 214 465 q 247 247 214 307 q 333 156 279 188 q 446 125 386 125 q 560 156 507 125 q 645 245 613 186 q 678 383 678 304 m 681 1022 q 624 882 681 935 q 471 829 568 829 q 318 883 374 829 q 263 1024 263 936 l 263 1053 l 353 1053 q 379 978 353 1003 q 471 953 406 953 q 563 978 536 953 q 589 1053 589 1003 l 681 1053 l 681 1022 z "},"Ą":{"ha":968,"x_min":47,"x_max":943,"o":"m 851 -190 q 943 -171 893 -190 l 943 -272 q 831 -293 890 -293 q 701 -256 756 -293 q 646 -143 646 -219 q 750 15 646 -51 l 686 197 l 282 197 l 213 0 l 47 0 l 393 967 l 576 967 l 922 0 l 854 -35 q 793 -78 811 -57 q 775 -126 775 -100 q 796 -173 775 -156 q 851 -190 817 -190 m 642 326 l 485 775 l 326 326 l 642 326 z "},"ą":{"ha":942,"x_min":51,"x_max":858,"o":"m 767 -190 q 858 -171 808 -190 l 858 -272 q 746 -293 806 -293 q 616 -256 671 -293 q 561 -143 561 -219 q 678 24 561 -47 l 678 114 q 568 24 638 60 q 410 -12 499 -12 q 229 38 311 -12 q 99 180 147 89 q 51 386 51 271 q 99 590 51 501 q 230 728 147 679 q 413 778 313 778 q 570 742 503 778 q 678 654 638 707 l 678 765 l 838 765 l 838 0 l 769 -35 q 708 -78 726 -57 q 690 -126 690 -100 q 711 -173 690 -156 q 767 -190 732 -190 m 446 125 q 560 156 507 125 q 645 245 613 186 q 678 383 678 304 q 645 521 678 463 q 560 610 613 579 q 446 640 507 640 q 332 610 385 640 q 247 523 279 581 q 214 386 214 465 q 247 247 214 307 q 333 156 279 188 q 446 125 386 125 z "},"Ć":{"ha":1074,"x_min":51,"x_max":993,"o":"m 51 485 q 117 739 51 626 q 297 915 183 851 q 544 978 410 978 q 819 902 699 978 q 993 688 939 826 l 803 688 q 699 801 765 764 q 544 839 632 839 q 374 796 449 839 q 256 672 299 753 q 214 485 214 592 q 256 297 214 378 q 374 173 299 217 q 544 129 449 129 q 699 167 632 129 q 803 281 765 204 l 993 281 q 819 67 939 142 q 544 -8 699 -8 q 296 55 408 -8 q 117 231 183 118 q 51 485 51 343 m 688 1183 l 381 1032 l 381 1149 l 688 1318 l 688 1183 z "},"ć":{"ha":833,"x_min":51,"x_max":779,"o":"m 51 383 q 99 591 51 501 q 232 729 147 681 q 426 778 317 778 q 656 712 565 778 q 779 524 747 646 l 608 524 q 542 613 588 581 q 426 644 496 644 q 272 576 329 644 q 214 383 214 507 q 272 190 214 260 q 426 121 329 121 q 608 242 564 121 l 779 242 q 654 56 746 125 q 426 -12 563 -12 q 232 37 317 -12 q 99 176 147 86 q 51 383 51 265 m 560 971 l 253 819 l 253 936 l 560 1106 l 560 971 z "},"Ċ":{"ha":1074,"x_min":51,"x_max":993,"o":"m 51 485 q 117 739 51 626 q 297 915 183 851 q 544 978 410 978 q 819 902 699 978 q 993 688 939 826 l 803 688 q 699 801 765 764 q 544 839 632 839 q 374 796 449 839 q 256 672 299 753 q 214 485 214 592 q 256 297 214 378 q 374 173 299 217 q 544 129 449 129 q 699 167 632 129 q 803 281 765 204 l 993 281 q 819 67 939 142 q 544 -8 699 -8 q 296 55 408 -8 q 117 231 183 118 q 51 485 51 343 m 544 1074 q 485 1098 510 1074 q 461 1157 461 1122 q 485 1216 461 1192 q 544 1240 510 1240 q 603 1216 579 1240 q 628 1157 628 1192 q 603 1098 628 1122 q 544 1074 579 1074 z "},"ċ":{"ha":833,"x_min":51,"x_max":779,"o":"m 51 383 q 99 591 51 501 q 232 729 147 681 q 426 778 317 778 q 656 712 565 778 q 779 524 747 646 l 608 524 q 542 613 588 581 q 426 644 496 644 q 272 576 329 644 q 214 383 214 507 q 272 190 214 260 q 426 121 329 121 q 608 242 564 121 l 779 242 q 654 56 746 125 q 426 -12 563 -12 q 232 37 317 -12 q 99 176 147 86 q 51 383 51 265 m 417 861 q 358 885 382 861 q 333 944 333 910 q 358 1003 333 979 q 417 1028 382 1028 q 476 1003 451 1028 q 500 944 500 979 q 476 885 500 910 q 417 861 451 861 z "},"Č":{"ha":1074,"x_min":51,"x_max":993,"o":"m 51 485 q 117 739 51 626 q 297 915 183 851 q 544 978 410 978 q 819 902 699 978 q 993 688 939 826 l 803 688 q 699 801 765 764 q 544 839 632 839 q 374 796 449 839 q 256 672 299 753 q 214 485 214 592 q 256 297 214 378 q 374 173 299 217 q 544 129 449 129 q 699 167 632 129 q 803 281 765 204 l 993 281 q 819 67 939 142 q 544 -8 699 -8 q 296 55 408 -8 q 117 231 183 118 q 51 485 51 343 m 743 1147 l 544 1032 l 346 1147 l 346 1271 l 544 1151 l 743 1271 l 743 1147 z "},"č":{"ha":833,"x_min":51,"x_max":779,"o":"m 51 383 q 99 591 51 501 q 232 729 147 681 q 426 778 317 778 q 656 712 565 778 q 779 524 747 646 l 608 524 q 542 613 588 581 q 426 644 496 644 q 272 576 329 644 q 214 383 214 507 q 272 190 214 260 q 426 121 329 121 q 608 242 564 121 l 779 242 q 654 56 746 125 q 426 -12 563 -12 q 232 37 317 -12 q 99 176 147 86 q 51 383 51 265 m 615 935 l 417 819 l 218 935 l 218 1058 l 417 939 l 615 1058 l 615 935 z "},"Ď":{"ha":985,"x_min":104,"x_max":932,"o":"m 419 965 q 690 906 574 965 q 869 737 806 847 q 932 479 932 626 q 869 224 932 332 q 690 58 806 115 q 419 0 574 0 l 104 0 l 104 965 l 419 965 m 419 129 q 679 221 589 129 q 769 479 769 313 q 679 742 769 647 q 419 836 589 836 l 263 836 l 263 129 l 419 129 m 692 1136 l 493 1021 l 294 1136 l 294 1260 l 493 1140 l 692 1260 l 692 1136 z "},"ď":{"ha":1085,"x_min":51,"x_max":1071,"o":"m 51 386 q 99 590 51 501 q 230 728 147 679 q 414 778 313 778 q 562 745 489 778 q 678 658 635 713 l 678 1028 l 838 1028 l 838 0 l 678 0 l 678 115 q 570 24 639 60 q 413 -12 501 -12 q 230 38 313 -12 q 99 180 147 89 q 51 386 51 271 m 1051 1028 q 1071 889 1071 947 q 914 717 1071 717 l 914 786 q 982 864 982 786 l 982 893 l 908 893 l 908 1028 l 1051 1028 m 678 383 q 645 521 678 463 q 560 610 613 579 q 446 640 507 640 q 332 610 385 640 q 247 523 279 581 q 214 386 214 465 q 247 247 214 307 q 333 156 279 188 q 446 125 386 125 q 560 156 507 125 q 645 245 613 186 q 678 383 678 304 z "},"Đ":{"ha":1000,"x_min":13,"x_max":947,"o":"m 436 965 q 706 906 590 965 q 884 737 821 847 q 947 479 947 626 q 884 224 947 332 q 706 58 821 115 q 436 0 590 0 l 119 0 l 119 407 l 13 407 l 13 553 l 119 553 l 119 965 l 436 965 m 436 121 q 694 217 604 121 q 785 479 785 313 q 694 742 785 647 q 436 838 604 838 l 279 838 l 279 553 l 526 553 l 526 407 l 279 407 l 279 121 l 436 121 z "},"đ":{"ha":942,"x_min":51,"x_max":919,"o":"m 919 819 l 838 819 l 838 0 l 678 0 l 678 115 q 570 24 639 60 q 413 -12 501 -12 q 230 38 313 -12 q 99 180 147 89 q 51 386 51 271 q 99 590 51 501 q 230 728 147 679 q 414 778 313 778 q 562 745 489 778 q 678 658 635 713 l 678 819 l 564 819 l 564 911 l 678 911 l 678 1028 l 838 1028 l 838 911 l 919 911 l 919 819 m 446 125 q 560 156 507 125 q 645 245 613 186 q 678 383 678 304 q 645 521 678 463 q 560 610 613 579 q 446 640 507 640 q 332 610 385 640 q 247 523 279 581 q 214 386 214 465 q 247 247 214 307 q 333 156 279 188 q 446 125 386 125 z "},"Ē":{"ha":728,"x_min":104,"x_max":638,"o":"m 263 838 l 263 554 l 596 554 l 596 425 l 263 425 l 263 129 l 638 129 l 638 0 l 104 0 l 104 967 l 638 967 l 638 838 l 263 838 m 618 1201 l 618 1083 l 110 1083 l 110 1201 l 618 1201 z "},"ē":{"ha":857,"x_min":51,"x_max":806,"o":"m 806 401 q 800 324 806 358 l 215 324 q 283 176 222 232 q 433 121 344 121 q 614 228 561 121 l 785 228 q 659 55 750 122 q 433 -12 568 -12 q 237 37 324 -12 q 101 176 150 86 q 51 383 51 265 q 99 591 51 501 q 234 729 147 681 q 433 778 321 778 q 626 731 542 778 q 758 598 711 683 q 806 401 806 513 m 640 451 q 578 592 639 539 q 426 644 517 644 q 286 592 344 644 q 217 451 228 540 l 640 451 m 683 1000 l 683 882 l 175 882 l 175 1000 l 683 1000 z "},"Ĕ":{"ha":728,"x_min":104,"x_max":638,"o":"m 263 838 l 263 554 l 596 554 l 596 425 l 263 425 l 263 129 l 638 129 l 638 0 l 104 0 l 104 967 l 638 967 l 638 838 l 263 838 m 574 1224 q 517 1083 574 1136 q 364 1031 461 1031 q 211 1084 267 1031 q 156 1225 156 1138 l 156 1254 l 246 1254 q 272 1179 246 1204 q 364 1154 299 1154 q 456 1179 429 1154 q 482 1254 482 1204 l 574 1254 l 574 1224 z "},"ĕ":{"ha":857,"x_min":51,"x_max":806,"o":"m 806 401 q 800 324 806 358 l 215 324 q 283 176 222 232 q 433 121 344 121 q 614 228 561 121 l 785 228 q 659 55 750 122 q 433 -12 568 -12 q 237 37 324 -12 q 101 176 150 86 q 51 383 51 265 q 99 591 51 501 q 234 729 147 681 q 433 778 321 778 q 626 731 542 778 q 758 598 711 683 q 806 401 806 513 m 640 451 q 578 592 639 539 q 426 644 517 644 q 286 592 344 644 q 217 451 228 540 l 640 451 m 639 1022 q 583 882 639 935 q 429 829 526 829 q 276 883 332 829 q 221 1024 221 936 l 221 1053 l 311 1053 q 338 978 311 1003 q 429 953 364 953 q 521 978 494 953 q 547 1053 547 1003 l 639 1053 l 639 1022 z "},"Ė":{"ha":728,"x_min":104,"x_max":638,"o":"m 263 838 l 263 554 l 596 554 l 596 425 l 263 425 l 263 129 l 638 129 l 638 0 l 104 0 l 104 967 l 638 967 l 638 838 l 263 838 m 364 1063 q 305 1087 329 1063 q 281 1146 281 1111 q 305 1205 281 1181 q 364 1229 329 1229 q 423 1205 399 1229 q 447 1146 447 1181 q 423 1087 447 1111 q 364 1063 399 1063 z "},"ė":{"ha":857,"x_min":51,"x_max":806,"o":"m 806 401 q 800 324 806 358 l 215 324 q 283 176 222 232 q 433 121 344 121 q 614 228 561 121 l 785 228 q 659 55 750 122 q 433 -12 568 -12 q 237 37 324 -12 q 101 176 150 86 q 51 383 51 265 q 99 591 51 501 q 234 729 147 681 q 433 778 321 778 q 626 731 542 778 q 758 598 711 683 q 806 401 806 513 m 640 451 q 578 592 639 539 q 426 644 517 644 q 286 592 344 644 q 217 451 228 540 l 640 451 m 429 861 q 370 885 394 861 q 346 944 346 910 q 370 1003 346 979 q 429 1028 394 1028 q 488 1003 464 1028 q 513 944 513 979 q 488 885 513 910 q 429 861 464 861 z "},"Ę":{"ha":728,"x_min":104,"x_max":658,"o":"m 567 -190 q 658 -171 608 -190 l 658 -272 q 546 -293 606 -293 q 416 -256 471 -293 q 361 -143 361 -219 q 443 0 361 -62 l 104 0 l 104 967 l 638 967 l 638 838 l 263 838 l 263 554 l 596 554 l 596 425 l 263 425 l 263 129 l 638 129 l 638 0 l 569 -35 q 508 -78 526 -57 q 490 -126 490 -100 q 511 -173 490 -156 q 567 -190 532 -190 z "},"ę":{"ha":857,"x_min":51,"x_max":806,"o":"m 806 401 q 800 324 806 358 l 215 324 q 283 176 222 232 q 433 121 344 121 q 614 228 561 121 l 785 228 q 697 86 758 147 q 546 1 636 25 l 513 -15 q 451 -59 469 -37 q 433 -107 433 -81 q 454 -153 433 -136 q 510 -171 475 -171 q 601 -151 551 -171 l 601 -253 q 489 -274 549 -274 q 359 -237 414 -274 q 304 -124 304 -200 q 357 -6 304 -58 q 198 63 267 11 q 90 197 129 115 q 51 383 51 279 q 99 591 51 501 q 234 729 147 681 q 433 778 321 778 q 626 731 542 778 q 758 598 711 683 q 806 401 806 513 m 640 451 q 578 592 639 539 q 426 644 517 644 q 286 592 344 644 q 217 451 228 540 l 640 451 z "},"Ě":{"ha":728,"x_min":104,"x_max":638,"o":"m 263 838 l 263 554 l 596 554 l 596 425 l 263 425 l 263 129 l 638 129 l 638 0 l 104 0 l 104 967 l 638 967 l 638 838 l 263 838 m 563 1136 l 364 1021 l 165 1136 l 165 1260 l 364 1140 l 563 1260 l 563 1136 z "},"ě":{"ha":857,"x_min":51,"x_max":806,"o":"m 806 401 q 800 324 806 358 l 215 324 q 283 176 222 232 q 433 121 344 121 q 614 228 561 121 l 785 228 q 659 55 750 122 q 433 -12 568 -12 q 237 37 324 -12 q 101 176 150 86 q 51 383 51 265 q 99 591 51 501 q 234 729 147 681 q 433 778 321 778 q 626 731 542 778 q 758 598 711 683 q 806 401 806 513 m 640 451 q 578 592 639 539 q 426 644 517 644 q 286 592 344 644 q 217 451 228 540 l 640 451 m 628 935 l 429 819 l 231 935 l 231 1058 l 429 939 l 628 1058 l 628 935 z "},"Ğ":{"ha":1074,"x_min":51,"x_max":1022,"o":"m 803 688 q 699 797 765 760 q 544 833 632 833 q 374 790 449 833 q 256 668 299 747 q 214 485 214 589 q 256 301 214 381 q 374 178 299 221 q 544 135 449 135 q 754 207 674 135 q 853 403 835 279 l 490 403 l 490 529 l 1022 529 l 1022 406 q 942 199 1007 293 q 774 48 878 104 q 544 -8 671 -8 q 296 55 408 -8 q 117 231 183 118 q 51 485 51 343 q 117 739 51 626 q 297 915 183 851 q 544 978 410 978 q 819 902 699 978 q 993 688 939 826 l 803 688 m 746 1224 q 690 1083 746 1136 q 536 1031 633 1031 q 383 1084 439 1031 q 328 1225 328 1138 l 328 1254 l 418 1254 q 444 1179 418 1204 q 536 1154 471 1154 q 628 1179 601 1154 q 654 1254 654 1204 l 746 1254 l 746 1224 z "},"ğ":{"ha":942,"x_min":51,"x_max":838,"o":"m 413 778 q 570 742 501 778 q 678 654 639 707 l 678 765 l 838 765 l 838 -12 q 793 -201 838 -118 q 665 -331 749 -283 q 464 -378 581 -378 q 206 -305 308 -378 q 89 -107 103 -232 l 246 -107 q 323 -203 264 -167 q 464 -240 382 -240 q 619 -182 560 -240 q 678 -12 678 -124 l 678 115 q 569 24 638 61 q 413 -12 500 -12 q 230 38 313 -12 q 99 180 147 89 q 51 386 51 271 q 99 590 51 501 q 230 728 147 679 q 413 778 313 778 m 678 383 q 645 521 678 463 q 560 610 613 579 q 446 640 507 640 q 332 610 385 640 q 247 523 279 581 q 214 386 214 465 q 247 247 214 307 q 333 156 279 188 q 446 125 386 125 q 560 156 507 125 q 645 245 613 186 q 678 383 678 304 m 681 1022 q 624 882 681 935 q 471 829 568 829 q 318 883 374 829 q 263 1024 263 936 l 263 1053 l 353 1053 q 379 978 353 1003 q 471 953 406 953 q 563 978 536 953 q 589 1053 589 1003 l 681 1053 l 681 1022 z "},"Ġ":{"ha":1074,"x_min":51,"x_max":1022,"o":"m 803 688 q 699 797 765 760 q 544 833 632 833 q 374 790 449 833 q 256 668 299 747 q 214 485 214 589 q 256 301 214 381 q 374 178 299 221 q 544 135 449 135 q 754 207 674 135 q 853 403 835 279 l 490 403 l 490 529 l 1022 529 l 1022 406 q 942 199 1007 293 q 774 48 878 104 q 544 -8 671 -8 q 296 55 408 -8 q 117 231 183 118 q 51 485 51 343 q 117 739 51 626 q 297 915 183 851 q 544 978 410 978 q 819 902 699 978 q 993 688 939 826 l 803 688 m 536 1063 q 477 1087 501 1063 q 453 1146 453 1111 q 477 1205 453 1181 q 536 1229 501 1229 q 595 1205 571 1229 q 619 1146 619 1181 q 595 1087 619 1111 q 536 1063 571 1063 z "},"ġ":{"ha":942,"x_min":51,"x_max":838,"o":"m 413 778 q 570 742 501 778 q 678 654 639 707 l 678 765 l 838 765 l 838 -12 q 793 -201 838 -118 q 665 -331 749 -283 q 464 -378 581 -378 q 206 -305 308 -378 q 89 -107 103 -232 l 246 -107 q 323 -203 264 -167 q 464 -240 382 -240 q 619 -182 560 -240 q 678 -12 678 -124 l 678 115 q 569 24 638 61 q 413 -12 500 -12 q 230 38 313 -12 q 99 180 147 89 q 51 386 51 271 q 99 590 51 501 q 230 728 147 679 q 413 778 313 778 m 678 383 q 645 521 678 463 q 560 610 613 579 q 446 640 507 640 q 332 610 385 640 q 247 523 279 581 q 214 386 214 465 q 247 247 214 307 q 333 156 279 188 q 446 125 386 125 q 560 156 507 125 q 645 245 613 186 q 678 383 678 304 m 471 861 q 412 885 436 861 q 388 944 388 910 q 412 1003 388 979 q 471 1028 436 1028 q 530 1003 506 1028 q 554 944 554 979 q 530 885 554 910 q 471 861 506 861 z "},"Ģ":{"ha":1074,"x_min":51,"x_max":1022,"o":"m 803 688 q 699 797 765 760 q 544 833 632 833 q 374 790 449 833 q 256 668 299 747 q 214 485 214 589 q 256 301 214 381 q 374 178 299 221 q 544 135 449 135 q 754 207 674 135 q 853 403 835 279 l 490 403 l 490 529 l 1022 529 l 1022 406 q 942 199 1007 293 q 774 48 878 104 q 544 -8 671 -8 q 296 55 408 -8 q 117 231 183 118 q 51 485 51 343 q 117 739 51 626 q 297 915 183 851 q 544 978 410 978 q 819 902 699 978 q 993 688 939 826 l 803 688 m 604 -64 q 624 -201 624 -144 q 584 -331 624 -287 q 467 -375 544 -375 l 467 -306 q 518 -286 501 -306 q 535 -226 535 -267 l 535 -197 l 461 -197 l 461 -64 l 604 -64 z "},"ģ":{"ha":942,"x_min":51,"x_max":838,"o":"m 403 829 q 385 967 385 903 q 540 1140 385 1140 l 540 1071 q 474 993 474 1071 l 474 964 l 546 964 l 546 829 l 403 829 m 413 778 q 570 742 501 778 q 678 654 639 707 l 678 765 l 838 765 l 838 -12 q 793 -201 838 -118 q 665 -331 749 -283 q 464 -378 581 -378 q 206 -305 308 -378 q 89 -107 103 -232 l 246 -107 q 323 -203 264 -167 q 464 -240 382 -240 q 619 -182 560 -240 q 678 -12 678 -124 l 678 115 q 569 24 638 61 q 413 -12 500 -12 q 230 38 313 -12 q 99 180 147 89 q 51 386 51 271 q 99 590 51 501 q 230 728 147 679 q 413 778 313 778 m 678 383 q 645 521 678 463 q 560 610 613 579 q 446 640 507 640 q 332 610 385 640 q 247 523 279 581 q 214 386 214 465 q 247 247 214 307 q 333 156 279 188 q 446 125 386 125 q 560 156 507 125 q 645 245 613 186 q 678 383 678 304 z "},"Ĩ":{"ha":367,"x_min":-43,"x_max":424,"o":"m 263 965 l 263 0 l 104 0 l 104 965 l 263 965 m -43 1046 q 10 1167 -32 1126 q 114 1208 51 1208 q 160 1200 140 1208 q 207 1175 179 1192 q 242 1154 228 1161 q 275 1147 257 1147 q 315 1162 299 1147 q 335 1206 331 1176 l 424 1206 q 371 1084 413 1125 q 267 1043 329 1043 q 219 1052 240 1043 q 174 1078 199 1061 q 135 1099 149 1093 q 106 1106 122 1106 q 66 1090 82 1106 q 46 1046 50 1075 l -43 1046 z "},"ĩ":{"ha":367,"x_min":-43,"x_max":424,"o":"m 263 765 l 263 0 l 104 0 l 104 765 l 263 765 m -43 844 q 10 966 -32 925 q 114 1007 51 1007 q 160 999 140 1007 q 207 974 179 990 q 242 953 228 960 q 275 946 257 946 q 315 960 299 946 q 335 1004 331 975 l 424 1004 q 371 883 413 924 q 267 842 329 842 q 219 851 240 842 q 174 876 199 860 q 135 898 149 892 q 106 904 122 904 q 66 889 82 904 q 46 844 50 874 l -43 844 z "},"Ī":{"ha":367,"x_min":-71,"x_max":438,"o":"m 263 965 l 263 0 l 104 0 l 104 965 l 263 965 m 438 1201 l 438 1083 l -71 1083 l -71 1201 l 438 1201 z "},"ī":{"ha":367,"x_min":-71,"x_max":438,"o":"m 263 765 l 263 0 l 104 0 l 104 765 l 263 765 m 438 1000 l 438 882 l -71 882 l -71 1000 l 438 1000 z "},"Ĭ":{"ha":367,"x_min":-25,"x_max":393,"o":"m 263 965 l 263 0 l 104 0 l 104 965 l 263 965 m 393 1224 q 337 1083 393 1136 q 183 1031 281 1031 q 31 1084 86 1031 q -25 1225 -25 1138 l -25 1254 l 65 1254 q 92 1179 65 1204 q 183 1154 118 1154 q 275 1179 249 1154 q 301 1254 301 1204 l 393 1254 l 393 1224 z "},"ĭ":{"ha":367,"x_min":-25,"x_max":393,"o":"m 263 765 l 263 0 l 104 0 l 104 765 l 263 765 m 393 1022 q 337 882 393 935 q 183 829 281 829 q 31 883 86 829 q -25 1024 -25 936 l -25 1053 l 65 1053 q 92 978 65 1003 q 183 953 118 953 q 275 978 249 953 q 301 1053 301 1003 l 393 1053 l 393 1022 z "},"Į":{"ha":367,"x_min":-14,"x_max":283,"o":"m 192 -189 q 283 -169 233 -189 l 283 -271 q 171 -292 231 -292 q 41 -255 96 -292 q -14 -142 -14 -218 q 104 25 -14 -46 l 104 965 l 263 965 l 263 0 l 260 0 l 194 -33 q 133 -77 151 -56 q 115 -125 115 -99 q 136 -172 115 -154 q 192 -189 157 -189 z "},"į":{"ha":367,"x_min":-14,"x_max":285,"o":"m 185 867 q 113 896 142 867 q 83 968 83 925 q 113 1040 83 1011 q 185 1069 142 1069 q 256 1040 226 1069 q 285 968 285 1011 q 256 896 285 925 q 185 867 226 867 m 115 -125 q 136 -172 115 -154 q 192 -189 157 -189 q 283 -169 233 -189 l 283 -271 q 171 -292 231 -292 q 41 -255 96 -292 q -14 -142 -14 -218 q 104 25 -14 -46 l 104 765 l 263 765 l 263 0 l 260 0 l 194 -33 q 133 -77 151 -56 q 115 -125 115 -99 z "},"İ":{"ha":367,"x_min":100,"x_max":267,"o":"m 263 965 l 263 0 l 104 0 l 104 965 l 263 965 m 183 1063 q 124 1087 149 1063 q 100 1146 100 1111 q 124 1205 100 1181 q 183 1229 149 1229 q 242 1205 218 1229 q 267 1146 267 1181 q 242 1087 267 1111 q 183 1063 218 1063 z "},"ı":{"ha":367,"x_min":104,"x_max":263,"o":"m 263 765 l 263 0 l 104 0 l 104 765 l 263 765 z "},"Ķ":{"ha":879,"x_min":104,"x_max":843,"o":"m 843 0 l 636 0 l 263 432 l 263 0 l 104 0 l 104 965 l 263 965 l 263 525 l 638 965 l 836 965 l 417 482 l 843 0 m 507 -64 q 526 -201 526 -136 q 371 -375 526 -375 l 371 -306 q 438 -226 438 -306 l 438 -197 l 364 -197 l 364 -64 l 507 -64 z "},"ķ":{"ha":769,"x_min":104,"x_max":760,"o":"m 407 382 l 760 0 l 546 0 l 263 329 l 263 0 l 104 0 l 104 1028 l 263 1028 l 263 431 l 540 765 l 760 765 l 407 382 m 453 -64 q 471 -201 471 -137 q 315 -375 471 -375 l 315 -306 q 383 -226 383 -306 l 383 -197 l 310 -197 l 310 -64 l 453 -64 z "},"Ĺ":{"ha":617,"x_min":104,"x_max":589,"o":"m 263 128 l 589 128 l 589 0 l 104 0 l 104 965 l 263 965 l 263 128 m 451 1172 l 144 1021 l 144 1138 l 451 1307 l 451 1172 z "},"ĺ":{"ha":367,"x_min":19,"x_max":326,"o":"m 263 1028 l 263 0 l 104 0 l 104 1028 l 263 1028 m 326 1233 l 19 1082 l 19 1199 l 326 1368 l 326 1233 z "},"Ļ":{"ha":617,"x_min":104,"x_max":589,"o":"m 263 128 l 589 128 l 589 0 l 104 0 l 104 965 l 263 965 l 263 128 m 411 -64 q 431 -201 431 -136 q 274 -375 431 -375 l 274 -306 q 325 -286 308 -306 q 342 -226 342 -267 l 342 -197 l 268 -197 l 268 -64 l 411 -64 z "},"ļ":{"ha":367,"x_min":104,"x_max":271,"o":"m 263 1028 l 263 0 l 104 0 l 104 1028 l 263 1028 m 251 -64 q 271 -201 271 -144 q 231 -331 271 -287 q 114 -375 192 -375 l 114 -306 q 165 -286 149 -306 q 182 -226 182 -267 l 182 -197 l 108 -197 l 108 -64 l 251 -64 z "},"Ľ":{"ha":643,"x_min":104,"x_max":589,"o":"m 263 128 l 589 128 l 589 0 l 104 0 l 104 965 l 263 965 l 263 128 m 556 965 q 575 828 575 893 q 419 654 575 654 l 419 724 q 486 803 486 724 l 486 832 l 413 832 l 413 965 l 556 965 z "},"ľ":{"ha":593,"x_min":104,"x_max":533,"o":"m 263 1028 l 263 0 l 104 0 l 104 1028 l 263 1028 m 514 1028 q 533 889 533 956 q 378 717 533 717 l 378 786 q 444 864 444 786 l 444 893 l 371 893 l 371 1028 l 514 1028 z "},"Ŀ":{"ha":617,"x_min":104,"x_max":589,"o":"m 104 965 l 263 965 l 263 128 l 589 128 l 589 0 l 104 0 l 104 965 m 489 438 q 430 462 454 438 q 406 521 406 486 q 430 580 406 556 q 489 604 454 604 q 548 580 524 604 q 572 521 572 556 q 548 462 572 486 q 489 438 524 438 z "},"ŀ":{"ha":436,"x_min":104,"x_max":483,"o":"m 104 1028 l 263 1028 l 263 0 l 104 0 l 104 1028 m 400 424 q 341 448 365 424 q 317 507 317 472 q 341 566 317 542 q 400 590 365 590 q 459 566 435 590 q 483 507 483 542 q 459 448 483 472 q 400 424 435 424 z "},"Ł":{"ha":617,"x_min":13,"x_max":604,"o":"m 604 121 l 604 0 l 119 0 l 119 406 l 13 371 l 13 490 l 119 525 l 119 965 l 279 965 l 279 578 l 407 619 l 407 499 l 279 457 l 279 121 l 604 121 z "},"ł":{"ha":367,"x_min":13,"x_max":356,"o":"m 356 497 l 263 465 l 263 0 l 104 0 l 104 411 l 13 379 l 13 501 l 104 532 l 104 1028 l 263 1028 l 263 586 l 356 618 l 356 497 z "},"Ń":{"ha":1001,"x_min":104,"x_max":897,"o":"m 897 0 l 739 0 l 263 721 l 263 0 l 104 0 l 104 967 l 263 967 l 739 247 l 739 967 l 897 967 l 897 0 m 644 1172 l 338 1021 l 338 1138 l 644 1307 l 644 1172 z "},"ń":{"ha":901,"x_min":104,"x_max":804,"o":"m 490 778 q 652 740 581 778 q 764 629 724 703 q 804 451 804 556 l 804 0 l 647 0 l 647 428 q 596 585 647 531 q 456 640 544 640 q 315 585 367 640 q 263 428 263 531 l 263 0 l 104 0 l 104 765 l 263 765 l 263 678 q 362 751 301 725 q 490 778 422 778 m 608 971 l 301 819 l 301 936 l 608 1106 l 608 971 z "},"Ņ":{"ha":1001,"x_min":104,"x_max":897,"o":"m 897 0 l 739 0 l 263 721 l 263 0 l 104 0 l 104 967 l 263 967 l 739 247 l 739 967 l 897 967 l 897 0 m 568 -64 q 588 -201 588 -136 q 432 -375 588 -375 l 432 -306 q 499 -226 499 -306 l 499 -197 l 425 -197 l 425 -64 l 568 -64 z "},"ņ":{"ha":901,"x_min":104,"x_max":804,"o":"m 490 778 q 652 740 581 778 q 764 629 724 703 q 804 451 804 556 l 804 0 l 647 0 l 647 428 q 596 585 647 531 q 456 640 544 640 q 315 585 367 640 q 263 428 263 531 l 263 0 l 104 0 l 104 765 l 263 765 l 263 678 q 362 751 301 725 q 490 778 422 778 m 518 -64 q 538 -201 538 -136 q 382 -375 538 -375 l 382 -306 q 449 -226 449 -306 l 449 -197 l 375 -197 l 375 -64 l 518 -64 z "},"Ň":{"ha":1001,"x_min":104,"x_max":897,"o":"m 897 0 l 739 0 l 263 721 l 263 0 l 104 0 l 104 967 l 263 967 l 739 247 l 739 967 l 897 967 l 897 0 m 700 1136 l 501 1021 l 303 1136 l 303 1260 l 501 1140 l 700 1260 l 700 1136 z "},"ň":{"ha":901,"x_min":104,"x_max":804,"o":"m 490 778 q 652 740 581 778 q 764 629 724 703 q 804 451 804 556 l 804 0 l 647 0 l 647 428 q 596 585 647 531 q 456 640 544 640 q 315 585 367 640 q 263 428 263 531 l 263 0 l 104 0 l 104 765 l 263 765 l 263 678 q 362 751 301 725 q 490 778 422 778 m 664 935 l 465 819 l 267 935 l 267 1058 l 465 939 l 664 1058 l 664 935 z "},"Ō":{"ha":1089,"x_min":51,"x_max":1038,"o":"m 544 -10 q 297 53 410 -10 q 117 230 183 117 q 51 485 51 343 q 117 739 51 626 q 297 915 183 851 q 544 978 410 978 q 794 915 681 978 q 972 739 907 851 q 1038 485 1038 626 q 972 230 1038 343 q 794 53 907 117 q 544 -10 681 -10 m 544 128 q 715 172 640 128 q 833 297 790 215 q 875 485 875 378 q 833 672 875 592 q 715 796 790 753 q 544 839 640 839 q 374 796 449 839 q 256 672 299 753 q 214 485 214 592 q 256 297 214 378 q 374 172 299 215 q 544 128 449 128 m 799 1201 l 799 1083 l 290 1083 l 290 1201 l 799 1201 z "},"ō":{"ha":886,"x_min":53,"x_max":833,"o":"m 436 -12 q 240 37 328 -12 q 103 176 153 86 q 53 383 53 265 q 104 590 53 500 q 244 729 156 681 q 443 778 333 778 q 642 729 553 778 q 782 590 731 681 q 833 383 833 500 q 781 176 833 267 q 637 37 728 86 q 436 -12 546 -12 m 436 125 q 551 154 497 125 q 638 242 604 183 q 671 383 671 300 q 639 524 671 467 q 554 611 607 582 q 440 640 501 640 q 327 611 379 640 q 244 524 275 582 q 214 383 214 467 q 277 192 214 260 q 436 125 340 125 m 697 1013 l 697 894 l 189 894 l 189 1013 l 697 1013 z "},"Ŏ":{"ha":1089,"x_min":51,"x_max":1038,"o":"m 544 -10 q 297 53 410 -10 q 117 230 183 117 q 51 485 51 343 q 117 739 51 626 q 297 915 183 851 q 544 978 410 978 q 794 915 681 978 q 972 739 907 851 q 1038 485 1038 626 q 972 230 1038 343 q 794 53 907 117 q 544 -10 681 -10 m 544 128 q 715 172 640 128 q 833 297 790 215 q 875 485 875 378 q 833 672 875 592 q 715 796 790 753 q 544 839 640 839 q 374 796 449 839 q 256 672 299 753 q 214 485 214 592 q 256 297 214 378 q 374 172 299 215 q 544 128 449 128 m 754 1224 q 698 1083 754 1136 q 544 1031 642 1031 q 392 1084 447 1031 q 336 1225 336 1138 l 336 1254 l 426 1254 q 453 1179 426 1204 q 544 1154 479 1154 q 636 1179 610 1154 q 663 1254 663 1204 l 754 1254 l 754 1224 z "},"ŏ":{"ha":886,"x_min":53,"x_max":833,"o":"m 436 -12 q 240 37 328 -12 q 103 176 153 86 q 53 383 53 265 q 104 590 53 500 q 244 729 156 681 q 443 778 333 778 q 642 729 553 778 q 782 590 731 681 q 833 383 833 500 q 781 176 833 267 q 637 37 728 86 q 436 -12 546 -12 m 436 125 q 551 154 497 125 q 638 242 604 183 q 671 383 671 300 q 639 524 671 467 q 554 611 607 582 q 440 640 501 640 q 327 611 379 640 q 244 524 275 582 q 214 383 214 467 q 277 192 214 260 q 436 125 340 125 m 653 1035 q 597 894 653 947 q 443 842 540 842 q 290 895 346 842 q 235 1036 235 949 l 235 1065 l 325 1065 q 351 990 325 1015 q 443 965 378 965 q 535 990 508 965 q 561 1065 561 1015 l 653 1065 l 653 1035 z "},"Ő":{"ha":1089,"x_min":51,"x_max":1038,"o":"m 544 -10 q 297 53 410 -10 q 117 230 183 117 q 51 485 51 343 q 117 739 51 626 q 297 915 183 851 q 544 978 410 978 q 794 915 681 978 q 972 739 907 851 q 1038 485 1038 626 q 972 230 1038 343 q 794 53 907 117 q 544 -10 681 -10 m 544 128 q 715 172 640 128 q 833 297 790 215 q 875 485 875 378 q 833 672 875 592 q 715 796 790 753 q 544 839 640 839 q 374 796 449 839 q 256 672 299 753 q 214 485 214 592 q 256 297 214 378 q 374 172 299 215 q 544 128 449 128 m 469 1036 l 367 1036 l 463 1272 l 600 1272 l 469 1036 m 692 1036 l 589 1036 l 693 1272 l 831 1272 l 692 1036 z "},"ő":{"ha":886,"x_min":53,"x_max":833,"o":"m 436 -12 q 240 37 328 -12 q 103 176 153 86 q 53 383 53 265 q 104 590 53 500 q 244 729 156 681 q 443 778 333 778 q 642 729 553 778 q 782 590 731 681 q 833 383 833 500 q 781 176 833 267 q 637 37 728 86 q 436 -12 546 -12 m 436 125 q 551 154 497 125 q 638 242 604 183 q 671 383 671 300 q 639 524 671 467 q 554 611 607 582 q 440 640 501 640 q 327 611 379 640 q 244 524 275 582 q 214 383 214 467 q 277 192 214 260 q 436 125 340 125 m 368 847 l 265 847 l 361 1083 l 499 1083 l 368 847 m 590 847 l 488 847 l 592 1083 l 729 1083 l 590 847 z "},"Œ":{"ha":1499,"x_min":51,"x_max":1408,"o":"m 1033 549 l 1367 549 l 1367 426 l 1033 426 l 1033 124 l 1408 124 l 1408 0 l 875 0 l 875 154 q 728 31 815 72 q 532 -10 642 -10 q 292 53 403 -10 q 117 230 182 117 q 51 485 51 343 q 117 739 51 626 q 292 915 182 851 q 531 978 403 978 q 728 938 640 978 q 875 818 815 897 l 875 965 l 1408 965 l 1408 842 l 1033 842 l 1033 549 m 214 485 q 256 301 214 381 q 374 177 299 221 q 544 133 449 133 q 715 177 640 133 q 833 301 790 221 q 875 485 875 381 q 833 668 875 589 q 715 790 790 747 q 544 833 640 833 q 374 790 449 833 q 256 668 299 747 q 214 485 214 589 z "},"œ":{"ha":1475,"x_min":51,"x_max":1424,"o":"m 1424 404 q 1418 329 1424 364 l 833 329 q 897 177 839 233 q 1044 121 956 121 q 1226 228 1174 121 l 1397 228 q 1271 55 1363 122 q 1044 -12 1179 -12 q 872 29 949 -12 q 747 149 796 71 q 614 30 696 72 q 436 -12 532 -12 q 239 37 326 -12 q 101 176 151 86 q 51 383 51 265 q 103 590 51 500 q 244 729 156 681 q 443 778 333 778 q 617 736 538 778 q 749 619 697 694 q 875 736 797 694 q 1051 778 953 778 q 1244 731 1160 778 q 1376 599 1329 683 q 1424 404 1424 514 m 436 121 q 551 151 497 121 q 637 241 604 182 q 669 383 669 300 q 638 526 669 467 q 553 615 606 585 q 439 644 500 644 q 326 615 378 644 q 244 526 275 585 q 214 383 214 467 q 244 240 214 300 q 324 151 274 181 q 436 121 375 121 m 1258 438 q 1196 588 1257 532 q 1044 644 1135 644 q 901 589 960 644 q 835 438 843 533 l 1258 438 z "},"Ŕ":{"ha":878,"x_min":104,"x_max":794,"o":"m 606 0 l 383 386 l 263 386 l 263 0 l 104 0 l 104 965 l 438 965 q 626 926 549 965 q 741 822 703 888 q 779 676 779 757 q 724 505 779 582 q 556 400 669 428 l 794 0 l 606 0 m 263 513 l 438 513 q 572 557 526 513 q 617 676 617 601 q 572 794 617 751 q 438 836 528 836 l 263 836 l 263 513 m 582 1172 l 275 1021 l 275 1138 l 582 1307 l 582 1172 z "},"ŕ":{"ha":533,"x_min":104,"x_max":492,"o":"m 263 654 q 355 745 297 713 q 492 778 413 778 l 492 614 l 451 614 q 310 567 358 614 q 263 403 263 519 l 263 0 l 104 0 l 104 765 l 263 765 l 263 654 m 478 971 l 171 819 l 171 936 l 478 1106 l 478 971 z "},"Ŗ":{"ha":878,"x_min":104,"x_max":794,"o":"m 794 0 l 606 0 l 383 386 l 263 386 l 263 0 l 104 0 l 104 965 l 438 965 q 626 926 549 965 q 741 822 703 888 q 779 676 779 757 q 724 505 779 582 q 556 400 669 428 l 794 0 m 263 513 l 438 513 q 572 557 526 513 q 617 676 617 601 q 572 794 617 751 q 438 836 528 836 l 263 836 l 263 513 m 507 -64 q 525 -201 525 -137 q 369 -375 525 -375 l 369 -306 q 436 -226 436 -306 l 436 -197 l 364 -197 l 364 -64 l 507 -64 z "},"ŗ":{"ha":533,"x_min":104,"x_max":492,"o":"m 263 654 q 355 745 297 713 q 492 778 413 778 l 492 614 l 451 614 q 310 567 358 614 q 263 403 263 519 l 263 0 l 104 0 l 104 765 l 263 765 l 263 654 m 250 -64 q 269 -201 269 -136 q 114 -375 269 -375 l 114 -306 q 181 -226 181 -306 l 181 -197 l 107 -197 l 107 -64 l 250 -64 z "},"Ř":{"ha":878,"x_min":104,"x_max":794,"o":"m 606 0 l 383 386 l 263 386 l 263 0 l 104 0 l 104 965 l 438 965 q 626 926 549 965 q 741 822 703 888 q 779 676 779 757 q 724 505 779 582 q 556 400 669 428 l 794 0 l 606 0 m 263 513 l 438 513 q 572 557 526 513 q 617 676 617 601 q 572 794 617 751 q 438 836 528 836 l 263 836 l 263 513 m 638 1136 l 439 1021 l 240 1136 l 240 1260 l 439 1140 l 638 1260 l 638 1136 z "},"ř":{"ha":533,"x_min":104,"x_max":533,"o":"m 263 654 q 355 745 297 713 q 492 778 413 778 l 492 614 l 451 614 q 310 567 358 614 q 263 403 263 519 l 263 0 l 104 0 l 104 765 l 263 765 l 263 654 m 533 935 l 335 819 l 136 935 l 136 1058 l 335 939 l 533 1058 l 533 935 z "},"Ś":{"ha":839,"x_min":81,"x_max":756,"o":"m 422 -10 q 247 24 325 -10 q 125 121 169 58 q 81 267 81 183 l 250 267 q 299 164 256 204 q 422 124 343 124 q 550 163 504 124 q 596 265 596 203 q 567 344 596 314 q 497 392 539 375 q 379 428 454 408 q 226 478 285 453 q 125 558 167 504 q 83 703 83 613 q 125 849 83 786 q 242 944 167 911 q 415 978 317 978 q 645 908 556 978 q 744 715 735 838 l 569 715 q 519 806 565 768 q 399 843 474 843 q 288 808 331 843 q 244 708 244 774 q 272 635 244 664 q 340 590 299 607 q 454 554 382 574 q 610 501 550 528 q 713 420 671 475 q 756 274 756 365 q 716 135 756 200 q 601 30 676 69 q 422 -10 525 -10 m 558 1183 l 251 1032 l 251 1149 l 558 1318 l 558 1183 z "},"ś":{"ha":742,"x_min":63,"x_max":675,"o":"m 382 -12 q 220 20 292 -12 q 107 109 149 53 q 63 235 65 165 l 226 235 q 273 153 231 186 q 379 121 315 121 q 483 147 446 121 q 519 213 519 172 q 478 276 519 256 q 349 322 438 297 q 208 368 263 346 q 115 436 154 390 q 75 557 75 482 q 111 669 75 618 q 215 749 147 719 q 369 778 282 778 q 580 712 500 778 q 665 532 660 646 l 507 532 q 465 614 503 583 q 364 644 428 644 q 268 621 301 644 q 235 558 235 597 q 257 507 235 528 q 311 474 279 486 q 406 444 343 463 q 542 399 489 422 q 635 332 596 376 q 675 214 674 288 q 639 97 675 149 q 537 17 603 46 q 382 -12 471 -12 m 513 983 l 206 832 l 206 949 l 513 1118 l 513 983 z "},"Ş":{"ha":839,"x_min":81,"x_max":756,"o":"m 756 274 q 723 147 756 207 q 628 45 690 86 q 479 -7 565 4 l 479 -76 q 610 -115 560 -76 q 660 -222 660 -153 q 610 -333 660 -292 q 483 -374 560 -374 l 300 -374 l 300 -274 l 451 -274 q 510 -262 490 -274 q 529 -222 529 -251 q 510 -182 529 -193 q 451 -171 490 -171 l 375 -171 l 375 -7 q 163 78 244 4 q 81 267 81 151 l 250 267 q 299 164 256 204 q 422 124 343 124 q 550 163 504 124 q 596 265 596 203 q 567 344 596 314 q 497 392 539 375 q 379 428 454 408 q 226 478 285 453 q 125 558 167 504 q 83 703 83 613 q 125 849 83 786 q 242 944 167 911 q 415 978 317 978 q 645 908 556 978 q 744 715 735 838 l 569 715 q 519 806 565 768 q 399 843 474 843 q 288 808 331 843 q 244 708 244 774 q 272 635 244 664 q 340 590 299 607 q 454 554 382 574 q 610 501 550 528 q 713 420 671 475 q 756 274 756 365 z "},"ş":{"ha":742,"x_min":63,"x_max":675,"o":"m 675 214 q 608 62 675 124 q 428 -10 542 0 l 428 -67 q 558 -105 508 -67 q 608 -212 608 -143 q 558 -323 608 -282 q 432 -364 508 -364 l 249 -364 l 249 -264 l 400 -264 q 458 -253 439 -264 q 478 -212 478 -242 q 458 -172 478 -183 q 400 -161 439 -161 l 324 -161 l 324 -8 q 139 74 211 6 q 63 235 67 142 l 226 235 q 273 153 231 186 q 379 121 315 121 q 483 147 446 121 q 519 213 519 172 q 478 276 519 256 q 349 322 438 297 q 208 368 263 346 q 115 436 154 390 q 75 557 75 482 q 111 669 75 618 q 215 749 147 719 q 369 778 282 778 q 580 712 500 778 q 665 532 660 646 l 507 532 q 465 614 503 583 q 364 644 428 644 q 268 621 301 644 q 235 558 235 597 q 257 507 235 528 q 311 474 279 486 q 406 444 343 463 q 542 399 489 422 q 635 332 596 376 q 675 214 674 288 z "},"Š":{"ha":839,"x_min":81,"x_max":756,"o":"m 422 -10 q 247 24 325 -10 q 125 121 169 58 q 81 267 81 183 l 250 267 q 299 164 256 204 q 422 124 343 124 q 550 163 504 124 q 596 265 596 203 q 567 344 596 314 q 497 392 539 375 q 379 428 454 408 q 226 478 285 453 q 125 558 167 504 q 83 703 83 613 q 125 849 83 786 q 242 944 167 911 q 415 978 317 978 q 645 908 556 978 q 744 715 735 838 l 569 715 q 519 806 565 768 q 399 843 474 843 q 288 808 331 843 q 244 708 244 774 q 272 635 244 664 q 340 590 299 607 q 454 554 382 574 q 610 501 550 528 q 713 420 671 475 q 756 274 756 365 q 716 135 756 200 q 601 30 676 69 q 422 -10 525 -10 m 614 1147 l 415 1032 l 217 1147 l 217 1271 l 415 1151 l 614 1271 l 614 1147 z "},"š":{"ha":742,"x_min":63,"x_max":675,"o":"m 382 -12 q 220 20 292 -12 q 107 109 149 53 q 63 235 65 165 l 226 235 q 273 153 231 186 q 379 121 315 121 q 483 147 446 121 q 519 213 519 172 q 478 276 519 256 q 349 322 438 297 q 208 368 263 346 q 115 436 154 390 q 75 557 75 482 q 111 669 75 618 q 215 749 147 719 q 369 778 282 778 q 580 712 500 778 q 665 532 660 646 l 507 532 q 465 614 503 583 q 364 644 428 644 q 268 621 301 644 q 235 558 235 597 q 257 507 235 528 q 311 474 279 486 q 406 444 343 463 q 542 399 489 422 q 635 332 596 376 q 675 214 674 288 q 639 97 675 149 q 537 17 603 46 q 382 -12 471 -12 m 568 947 l 369 832 l 171 947 l 171 1071 l 369 951 l 568 1071 l 568 947 z "},"Ţ":{"ha":783,"x_min":54,"x_max":728,"o":"m 446 0 l 446 -67 q 576 -105 526 -67 q 626 -212 626 -143 q 576 -323 626 -282 q 450 -364 526 -364 l 267 -364 l 267 -264 l 418 -264 q 476 -253 457 -264 q 496 -212 496 -242 q 476 -172 496 -183 q 418 -161 457 -161 l 342 -161 l 342 0 l 313 0 l 313 836 l 54 836 l 54 965 l 728 965 l 728 836 l 471 836 l 471 0 l 446 0 z "},"ţ":{"ha":517,"x_min":39,"x_max":497,"o":"m 317 -67 q 447 -105 397 -67 q 497 -212 497 -143 q 447 -323 497 -282 q 321 -364 397 -364 l 138 -364 l 138 -264 l 289 -264 q 347 -253 328 -264 q 367 -212 367 -242 q 347 -172 367 -183 q 289 -161 328 -161 l 213 -161 l 213 31 q 129 213 129 81 l 129 636 l 39 636 l 39 765 l 129 765 l 129 956 l 289 956 l 289 765 l 475 765 l 475 636 l 289 636 l 289 213 q 309 151 289 169 q 378 132 329 132 l 475 132 l 475 0 l 350 0 q 317 1 328 0 l 317 -67 z "},"Ť":{"ha":783,"x_min":54,"x_max":728,"o":"m 728 965 l 728 836 l 471 836 l 471 0 l 313 0 l 313 836 l 54 836 l 54 965 l 728 965 m 590 1136 l 392 1021 l 193 1136 l 193 1260 l 392 1140 l 590 1260 l 590 1136 z "},"ť":{"ha":524,"x_min":39,"x_max":553,"o":"m 533 1089 q 549 1019 544 1044 q 553 964 553 993 q 396 819 553 819 l 396 889 q 447 899 431 889 q 464 933 464 910 l 464 954 l 390 954 l 390 1089 l 533 1089 m 289 765 l 475 765 l 475 636 l 289 636 l 289 213 q 309 151 289 169 q 378 132 329 132 l 475 132 l 475 0 l 350 0 q 186 50 243 0 q 129 213 129 100 l 129 636 l 39 636 l 39 765 l 129 765 l 129 956 l 289 956 l 289 765 z "},"Ũ":{"ha":958,"x_min":103,"x_max":857,"o":"m 261 965 l 261 350 q 319 185 261 240 q 479 129 376 129 q 641 185 583 129 q 699 350 699 240 l 699 965 l 857 965 l 857 353 q 806 153 857 235 q 668 31 754 71 q 478 -10 582 -10 q 288 31 374 -10 q 153 153 203 71 q 103 353 103 235 l 103 965 l 261 965 m 253 1046 q 306 1167 264 1126 q 410 1208 347 1208 q 456 1200 436 1208 q 503 1175 475 1192 q 538 1154 524 1161 q 571 1147 553 1147 q 610 1162 594 1147 q 631 1206 626 1176 l 719 1206 q 667 1084 708 1125 q 563 1043 625 1043 q 515 1052 536 1043 q 469 1078 494 1061 q 431 1099 444 1093 q 401 1106 418 1106 q 362 1090 378 1106 q 342 1046 346 1075 l 253 1046 z "},"ũ":{"ha":901,"x_min":97,"x_max":797,"o":"m 797 765 l 797 0 l 639 0 l 639 90 q 541 16 601 43 q 413 -11 481 -11 q 251 26 322 -11 q 138 138 179 64 q 97 315 97 211 l 97 765 l 254 765 l 254 339 q 306 181 254 236 q 446 126 357 126 q 587 181 535 126 q 639 339 639 236 l 639 765 l 797 765 m 225 844 q 278 966 236 925 q 382 1007 319 1007 q 428 999 408 1007 q 475 974 447 990 q 510 953 496 960 q 543 946 525 946 q 583 960 567 946 q 603 1004 599 975 l 692 1004 q 639 883 681 924 q 535 842 597 842 q 488 851 508 842 q 442 876 467 860 q 403 898 417 892 q 374 904 390 904 q 334 889 350 904 q 314 844 318 874 l 225 844 z "},"Ū":{"ha":958,"x_min":103,"x_max":857,"o":"m 261 965 l 261 350 q 319 185 261 240 q 479 129 376 129 q 641 185 583 129 q 699 350 699 240 l 699 965 l 857 965 l 857 353 q 806 153 857 235 q 668 31 754 71 q 478 -10 582 -10 q 288 31 374 -10 q 153 153 203 71 q 103 353 103 235 l 103 965 l 261 965 m 733 1201 l 733 1083 l 225 1083 l 225 1201 l 733 1201 z "},"ū":{"ha":901,"x_min":97,"x_max":797,"o":"m 797 765 l 797 0 l 639 0 l 639 90 q 541 16 601 43 q 413 -11 481 -11 q 251 26 322 -11 q 138 138 179 64 q 97 315 97 211 l 97 765 l 254 765 l 254 339 q 306 181 254 236 q 446 126 357 126 q 587 181 535 126 q 639 339 639 236 l 639 765 l 797 765 m 706 1000 l 706 882 l 197 882 l 197 1000 l 706 1000 z "},"Ŭ":{"ha":958,"x_min":103,"x_max":857,"o":"m 261 965 l 261 350 q 319 185 261 240 q 479 129 376 129 q 641 185 583 129 q 699 350 699 240 l 699 965 l 857 965 l 857 353 q 806 153 857 235 q 668 31 754 71 q 478 -10 582 -10 q 288 31 374 -10 q 153 153 203 71 q 103 353 103 235 l 103 965 l 261 965 m 689 1224 q 633 1083 689 1136 q 479 1031 576 1031 q 326 1084 382 1031 q 271 1225 271 1138 l 271 1254 l 361 1254 q 388 1179 361 1204 q 479 1154 414 1154 q 571 1179 544 1154 q 597 1254 597 1204 l 689 1254 l 689 1224 z "},"ŭ":{"ha":901,"x_min":97,"x_max":797,"o":"m 797 765 l 797 0 l 639 0 l 639 90 q 541 16 601 43 q 413 -11 481 -11 q 251 26 322 -11 q 138 138 179 64 q 97 315 97 211 l 97 765 l 254 765 l 254 339 q 306 181 254 236 q 446 126 357 126 q 587 181 535 126 q 639 339 639 236 l 639 765 l 797 765 m 661 1022 q 605 882 661 935 q 451 829 549 829 q 299 883 354 829 q 243 1024 243 936 l 243 1053 l 333 1053 q 360 978 333 1003 q 451 953 386 953 q 543 978 517 953 q 569 1053 569 1003 l 661 1053 l 661 1022 z "},"Ů":{"ha":958,"x_min":103,"x_max":857,"o":"m 261 965 l 261 350 q 319 185 261 240 q 479 129 376 129 q 641 185 583 129 q 699 350 699 240 l 699 965 l 857 965 l 857 353 q 806 153 857 235 q 668 31 754 71 q 478 -10 582 -10 q 288 31 374 -10 q 153 153 203 71 q 103 353 103 235 l 103 965 l 261 965 m 636 1193 q 591 1083 636 1125 q 479 1042 546 1042 q 369 1083 414 1042 q 324 1193 324 1125 q 369 1304 324 1263 q 479 1346 414 1346 q 591 1304 546 1346 q 636 1193 636 1263 m 547 1194 q 528 1246 547 1226 q 479 1265 508 1265 q 432 1246 451 1265 q 413 1194 413 1226 q 432 1144 413 1164 q 479 1124 451 1124 q 528 1144 508 1124 q 547 1194 547 1164 z "},"ů":{"ha":901,"x_min":97,"x_max":797,"o":"m 797 765 l 797 0 l 639 0 l 639 90 q 541 16 601 43 q 413 -11 481 -11 q 251 26 322 -11 q 138 138 179 64 q 97 315 97 211 l 97 765 l 254 765 l 254 339 q 306 181 254 236 q 446 126 357 126 q 587 181 535 126 q 639 339 639 236 l 639 765 l 797 765 m 608 992 q 563 882 608 924 q 451 840 518 840 q 341 882 386 840 q 296 992 296 924 q 341 1103 296 1061 q 451 1144 386 1144 q 563 1103 518 1144 q 608 992 608 1061 m 519 993 q 500 1044 519 1025 q 451 1064 481 1064 q 404 1044 424 1064 q 385 993 385 1025 q 404 942 385 963 q 451 922 424 922 q 500 942 481 922 q 519 993 519 963 z "},"Ű":{"ha":958,"x_min":103,"x_max":857,"o":"m 261 965 l 261 350 q 319 185 261 240 q 479 129 376 129 q 641 185 583 129 q 699 350 699 240 l 699 965 l 857 965 l 857 353 q 806 153 857 235 q 668 31 754 71 q 478 -10 582 -10 q 288 31 374 -10 q 153 153 203 71 q 103 353 103 235 l 103 965 l 261 965 m 404 1036 l 301 1036 l 397 1272 l 535 1272 l 404 1036 m 626 1036 l 524 1036 l 628 1272 l 765 1272 l 626 1036 z "},"ű":{"ha":901,"x_min":97,"x_max":797,"o":"m 797 765 l 797 0 l 639 0 l 639 90 q 541 16 601 43 q 413 -11 481 -11 q 251 26 322 -11 q 138 138 179 64 q 97 315 97 211 l 97 765 l 254 765 l 254 339 q 306 181 254 236 q 446 126 357 126 q 587 181 535 126 q 639 339 639 236 l 639 765 l 797 765 m 376 835 l 274 835 l 369 1071 l 507 1071 l 376 835 m 599 835 l 496 835 l 600 1071 l 738 1071 l 599 835 z "},"Ų":{"ha":958,"x_min":103,"x_max":857,"o":"m 857 965 l 857 353 q 781 117 857 207 q 581 1 704 28 l 581 0 l 513 -35 q 451 -78 469 -57 q 433 -126 433 -100 q 454 -173 433 -156 q 510 -190 475 -190 q 601 -171 551 -190 l 601 -272 q 489 -293 549 -293 q 359 -256 414 -293 q 304 -143 304 -219 q 385 -1 304 -62 q 181 114 258 24 q 103 353 103 204 l 103 965 l 261 965 l 261 350 q 319 185 261 240 q 479 129 376 129 q 641 185 583 129 q 699 350 699 240 l 699 965 l 857 965 z "},"ų":{"ha":901,"x_min":97,"x_max":818,"o":"m 726 -192 q 818 -172 768 -192 l 818 -274 q 706 -294 765 -294 q 576 -258 631 -294 q 521 -144 521 -221 q 639 22 521 -49 l 639 90 q 541 16 601 43 q 413 -11 481 -11 q 251 26 322 -11 q 138 138 179 64 q 97 315 97 211 l 97 765 l 254 765 l 254 339 q 306 181 254 236 q 446 126 357 126 q 587 181 535 126 q 639 339 639 236 l 639 765 l 797 765 l 797 0 l 796 0 l 797 -1 l 729 -36 q 668 -80 686 -58 q 650 -128 650 -101 q 671 -174 650 -157 q 726 -192 692 -192 z "},"Ŵ":{"ha":1388,"x_min":26,"x_max":1361,"o":"m 1361 965 l 1075 0 l 896 0 l 693 731 l 478 0 l 300 -1 l 26 965 l 194 965 l 394 179 l 611 965 l 789 965 l 990 183 l 1192 965 l 1361 965 m 688 1147 l 489 1028 l 489 1151 l 688 1267 l 886 1151 l 886 1028 l 688 1147 z "},"ŵ":{"ha":1146,"x_min":14,"x_max":1132,"o":"m 1132 765 l 894 0 l 728 0 l 574 565 l 419 0 l 253 0 l 14 765 l 175 765 l 335 150 l 497 765 l 663 765 l 818 153 l 976 765 l 1132 765 m 574 939 l 375 819 l 375 943 l 574 1058 l 772 943 l 772 819 l 574 939 z "},"Ŷ":{"ha":840,"x_min":21,"x_max":819,"o":"m 819 965 l 500 350 l 500 0 l 342 0 l 342 350 l 21 965 l 197 965 l 421 492 l 644 965 l 819 965 m 421 1140 l 222 1021 l 222 1144 l 421 1260 l 619 1144 l 619 1021 l 421 1140 z "},"ŷ":{"ha":808,"x_min":14,"x_max":793,"o":"m 793 765 l 324 -360 l 160 -360 l 315 13 l 14 765 l 190 765 l 406 182 l 629 765 l 793 765 m 404 939 l 206 819 l 206 943 l 404 1058 l 603 943 l 603 819 l 404 939 z "},"Ÿ":{"ha":840,"x_min":21,"x_max":819,"o":"m 819 965 l 500 350 l 500 0 l 342 0 l 342 350 l 21 965 l 197 965 l 421 492 l 644 965 l 819 965 m 301 1063 q 242 1087 267 1063 q 218 1146 218 1111 q 242 1205 218 1181 q 301 1229 267 1229 q 360 1205 336 1229 q 385 1146 385 1181 q 360 1087 385 1111 q 301 1063 336 1063 m 540 1063 q 481 1087 506 1063 q 457 1146 457 1111 q 481 1205 457 1181 q 540 1229 506 1229 q 599 1205 575 1229 q 624 1146 624 1181 q 599 1087 624 1111 q 540 1063 575 1063 z "},"Ź":{"ha":775,"x_min":69,"x_max":706,"o":"m 257 138 l 706 138 l 706 0 l 69 0 l 69 124 l 517 828 l 69 828 l 69 965 l 706 965 l 706 842 l 257 138 m 531 1172 l 224 1021 l 224 1138 l 531 1307 l 531 1172 z "},"ź":{"ha":654,"x_min":61,"x_max":592,"o":"m 244 129 l 592 129 l 592 0 l 61 0 l 61 129 l 410 636 l 61 636 l 61 765 l 592 765 l 592 636 l 244 129 m 471 971 l 164 819 l 164 936 l 471 1106 l 471 971 z "},"Ż":{"ha":775,"x_min":69,"x_max":706,"o":"m 257 138 l 706 138 l 706 0 l 69 0 l 69 124 l 517 828 l 69 828 l 69 965 l 706 965 l 706 842 l 257 138 m 388 1063 q 328 1087 353 1063 q 304 1146 304 1111 q 328 1205 304 1181 q 388 1229 353 1229 q 447 1205 422 1229 q 471 1146 471 1181 q 447 1087 471 1111 q 388 1063 422 1063 z "},"ż":{"ha":654,"x_min":61,"x_max":592,"o":"m 244 129 l 592 129 l 592 0 l 61 0 l 61 129 l 410 636 l 61 636 l 61 765 l 592 765 l 592 636 l 244 129 m 328 861 q 269 885 293 861 q 244 944 244 910 q 269 1003 244 979 q 328 1028 293 1028 q 387 1003 363 1028 q 411 944 411 979 q 387 885 411 910 q 328 861 363 861 z "},"Ž":{"ha":775,"x_min":69,"x_max":706,"o":"m 257 138 l 706 138 l 706 0 l 69 0 l 69 124 l 517 828 l 69 828 l 69 965 l 706 965 l 706 842 l 257 138 m 586 1136 l 388 1021 l 189 1136 l 189 1260 l 388 1140 l 586 1260 l 586 1136 z "},"ž":{"ha":654,"x_min":61,"x_max":592,"o":"m 244 129 l 592 129 l 592 0 l 61 0 l 61 129 l 410 636 l 61 636 l 61 765 l 592 765 l 592 636 l 244 129 m 526 935 l 328 819 l 129 935 l 129 1058 l 328 939 l 526 1058 l 526 935 z "},"Ə":{"ha":1089,"x_min":86,"x_max":1010,"o":"m 544 978 q 786 915 681 978 q 951 741 892 853 q 1010 485 1010 629 q 952 228 1010 340 q 789 53 894 115 q 546 -10 683 -10 q 306 44 410 -10 q 144 202 201 99 q 86 449 86 306 q 92 543 86 499 l 836 543 q 748 753 828 674 q 544 833 668 833 q 382 792 450 833 q 281 674 314 750 l 97 674 q 265 897 149 815 q 544 978 382 978 m 546 133 q 746 204 665 133 q 836 394 826 275 l 251 394 q 337 205 256 276 q 546 133 418 133 z "},"ƒ":{"ha":461,"x_min":-78,"x_max":443,"o":"m 429 940 q 325 913 357 940 q 286 819 293 886 l 281 765 l 421 765 l 408 636 l 267 636 l 189 -89 q 119 -252 178 -203 q -47 -301 60 -301 l -78 -301 l -64 -171 l -42 -171 q 9 -151 -8 -171 q 31 -89 26 -132 l 107 636 l 17 636 l 29 765 l 121 765 l 126 819 q 217 1012 140 951 q 443 1072 293 1072 l 429 940 z "},"Ǽ":{"ha":1279,"x_min":17,"x_max":1188,"o":"m 814 843 l 814 550 l 1146 550 l 1146 428 l 814 428 l 814 124 l 1188 124 l 1188 0 l 656 0 l 656 197 l 296 197 l 189 0 l 17 0 l 549 967 l 1188 967 l 1188 843 l 814 843 m 656 321 l 656 857 l 364 321 l 656 321 m 918 1175 l 611 1024 l 611 1140 l 918 1310 l 918 1175 z "},"ǽ":{"ha":1511,"x_min":51,"x_max":1456,"o":"m 1456 404 q 1450 329 1456 364 l 840 329 q 883 217 849 264 q 967 145 918 169 q 1068 121 1017 121 q 1194 150 1144 121 q 1263 228 1243 179 l 1435 228 q 1312 55 1400 122 q 1096 -12 1224 -12 q 939 23 1013 -12 q 819 115 865 58 l 819 0 l 683 0 l 683 115 q 566 23 636 58 q 413 -12 496 -12 q 230 38 313 -12 q 99 180 147 89 q 51 386 51 271 q 99 591 51 501 q 232 729 147 681 q 421 778 317 778 q 688 657 588 778 l 688 765 l 819 765 l 819 657 q 944 749 878 721 q 1096 778 1011 778 q 1282 730 1200 778 q 1410 597 1364 682 q 1456 404 1456 511 m 1292 443 q 1227 589 1290 533 q 1069 644 1164 644 q 919 589 983 644 q 840 443 854 533 l 1292 443 m 446 125 q 560 156 507 125 q 645 245 613 186 q 678 383 678 304 q 645 521 678 463 q 560 610 613 579 q 446 640 507 640 q 332 610 385 640 q 247 523 279 581 q 214 386 214 465 q 247 247 214 307 q 333 156 279 188 q 446 125 386 125 m 988 971 l 681 819 l 681 936 l 988 1106 l 988 971 z "},"Ș":{"ha":839,"x_min":81,"x_max":756,"o":"m 422 -10 q 247 24 325 -10 q 125 121 169 58 q 81 267 81 183 l 250 267 q 299 164 256 204 q 422 124 343 124 q 550 163 504 124 q 596 265 596 203 q 567 344 596 314 q 497 392 539 375 q 379 428 454 408 q 226 478 285 453 q 125 558 167 504 q 83 703 83 613 q 125 849 83 786 q 242 944 167 911 q 415 978 317 978 q 645 908 556 978 q 744 715 735 838 l 569 715 q 519 806 565 768 q 399 843 474 843 q 288 808 331 843 q 244 708 244 774 q 272 635 244 664 q 340 590 299 607 q 454 554 382 574 q 610 501 550 528 q 713 420 671 475 q 756 274 756 365 q 716 135 756 200 q 601 30 676 69 q 422 -10 525 -10 m 488 -64 q 507 -201 507 -136 q 350 -375 507 -375 l 350 -306 q 401 -286 385 -306 q 418 -226 418 -267 l 418 -197 l 344 -197 l 344 -64 l 488 -64 z "},"ș":{"ha":742,"x_min":63,"x_max":675,"o":"m 382 -12 q 220 20 292 -12 q 107 109 149 53 q 63 235 65 165 l 226 235 q 273 153 231 186 q 379 121 315 121 q 483 147 446 121 q 519 213 519 172 q 478 276 519 256 q 349 322 438 297 q 208 368 263 346 q 115 436 154 390 q 75 557 75 482 q 111 669 75 618 q 215 749 147 719 q 369 778 282 778 q 580 712 500 778 q 665 532 660 646 l 507 532 q 465 614 503 583 q 364 644 428 644 q 268 621 301 644 q 235 558 235 597 q 257 507 235 528 q 311 474 279 486 q 406 444 343 463 q 542 399 489 422 q 635 332 596 376 q 675 214 674 288 q 639 97 675 149 q 537 17 603 46 q 382 -12 471 -12 m 439 -64 q 458 -201 458 -144 q 419 -331 458 -287 q 301 -375 379 -375 l 301 -306 q 353 -286 336 -306 q 369 -226 369 -267 l 369 -197 l 296 -197 l 296 -64 l 439 -64 z "},"Ț":{"ha":783,"x_min":54,"x_max":728,"o":"m 728 965 l 728 836 l 471 836 l 471 0 l 313 0 l 313 836 l 54 836 l 54 965 l 728 965 m 460 -64 q 478 -201 478 -137 q 322 -375 478 -375 l 322 -306 q 390 -226 390 -306 l 390 -197 l 317 -197 l 317 -64 l 460 -64 z "},"ț":{"ha":517,"x_min":39,"x_max":475,"o":"m 289 636 l 289 213 q 309 151 289 169 q 378 132 329 132 l 475 132 l 475 0 l 350 0 q 186 50 243 0 q 129 213 129 100 l 129 636 l 39 636 l 39 765 l 129 765 l 129 956 l 289 956 l 289 765 l 475 765 l 475 636 l 289 636 m 326 -64 q 346 -201 346 -136 q 189 -375 346 -375 l 189 -306 q 240 -286 224 -306 q 257 -226 257 -267 l 257 -197 l 183 -197 l 183 -64 l 326 -64 z "},"ə":{"ha":857,"x_min":51,"x_max":806,"o":"m 424 778 q 620 728 533 778 q 756 590 707 679 q 806 382 806 500 q 758 174 806 264 q 623 36 710 85 q 424 -12 536 -12 q 231 35 315 -12 q 99 167 146 82 q 51 364 51 253 q 57 442 51 407 l 642 442 q 574 589 635 533 q 424 644 513 644 q 243 538 296 644 l 72 538 q 198 710 107 643 q 424 778 289 778 m 431 121 q 571 173 513 121 q 640 314 629 225 l 217 314 q 279 174 218 226 q 431 121 340 121 z "},"ʼ":{"ha":336,"x_min":44,"x_max":301,"o":"m 129 965 l 301 965 l 156 635 l 44 635 l 129 965 z "},"ˆ":{"ha":425,"x_min":14,"x_max":411,"o":"m 213 939 l 14 819 l 14 943 l 213 1058 l 411 943 l 411 819 l 213 939 z "},"ˇ":{"ha":425,"x_min":14,"x_max":411,"o":"m 411 935 l 213 819 l 14 935 l 14 1058 l 213 939 l 411 1058 l 411 935 z "},"ˉ":{"ha":536,"x_min":14,"x_max":522,"o":"m 522 1000 l 522 882 l 14 882 l 14 1000 l 522 1000 z "},"˘":{"ha":446,"x_min":14,"x_max":432,"o":"m 432 1022 q 376 882 432 935 q 222 829 319 829 q 69 883 125 829 q 14 1024 14 936 l 14 1053 l 104 1053 q 131 978 104 1003 q 222 953 157 953 q 314 978 288 953 q 340 1053 340 1003 l 432 1053 l 432 1022 z "},"˙":{"ha":194,"x_min":14,"x_max":181,"o":"m 97 861 q 38 885 63 861 q 14 944 14 910 q 38 1003 14 979 q 97 1028 63 1028 q 156 1003 132 1028 q 181 944 181 979 q 156 885 181 910 q 97 861 132 861 z "},"˚":{"ha":331,"x_min":10,"x_max":322,"o":"m 322 992 q 277 882 322 924 q 165 840 232 840 q 55 882 100 840 q 10 992 10 924 q 55 1103 10 1061 q 165 1144 100 1144 q 277 1103 232 1144 q 322 992 322 1061 m 233 993 q 214 1044 233 1025 q 165 1064 194 1064 q 118 1044 138 1064 q 99 993 99 1025 q 118 942 99 963 q 165 922 138 922 q 214 942 194 922 q 233 993 233 963 z "},"˛":{"ha":325,"x_min":14,"x_max":311,"o":"m 290 0 l 222 -35 q 161 -78 179 -57 q 143 -126 143 -100 q 164 -173 143 -156 q 219 -190 185 -190 q 311 -171 261 -190 l 311 -272 q 199 -293 258 -293 q 69 -256 124 -293 q 14 -143 14 -219 q 56 -38 14 -87 q 190 54 97 11 l 249 81 l 290 0 z "},"˜":{"ha":494,"x_min":14,"x_max":481,"o":"m 14 844 q 67 966 25 925 q 171 1007 108 1007 q 217 999 197 1007 q 264 974 236 990 q 299 953 285 960 q 332 946 314 946 q 372 960 356 946 q 392 1004 388 975 l 481 1004 q 428 883 469 924 q 324 842 386 842 q 276 851 297 842 q 231 876 256 860 q 192 898 206 892 q 163 904 179 904 q 123 889 139 904 q 103 844 107 874 l 14 844 z "},"˝":{"ha":507,"x_min":14,"x_max":478,"o":"m 117 835 l 14 835 l 110 1071 l 247 1071 l 117 835 m 339 835 l 236 835 l 340 1071 l 478 1071 l 339 835 z "},"π":{"ha":981,"x_min":43,"x_max":931,"o":"m 931 765 l 931 642 l 824 642 l 824 0 l 667 0 l 667 642 l 307 642 l 307 0 l 149 0 l 149 642 l 43 642 l 43 765 l 931 765 z "},"Ẁ":{"ha":1388,"x_min":26,"x_max":1361,"o":"m 1361 965 l 1075 0 l 896 0 l 693 731 l 478 0 l 300 -1 l 26 965 l 194 965 l 394 179 l 611 965 l 789 965 l 990 183 l 1192 965 l 1361 965 m 792 1138 l 792 1021 l 485 1172 l 485 1307 l 792 1138 z "},"ẁ":{"ha":1146,"x_min":14,"x_max":1132,"o":"m 1132 765 l 894 0 l 728 0 l 574 565 l 419 0 l 253 0 l 14 765 l 175 765 l 335 150 l 497 765 l 663 765 l 818 153 l 976 765 l 1132 765 m 658 936 l 658 819 l 351 971 l 351 1106 l 658 936 z "},"Ẃ":{"ha":1388,"x_min":26,"x_max":1361,"o":"m 1361 965 l 1075 0 l 896 0 l 693 731 l 478 0 l 300 -1 l 26 965 l 194 965 l 394 179 l 611 965 l 789 965 l 990 183 l 1192 965 l 1361 965 m 918 1179 l 611 1028 l 611 1144 l 918 1314 l 918 1179 z "},"ẃ":{"ha":1146,"x_min":14,"x_max":1132,"o":"m 1132 765 l 894 0 l 728 0 l 574 565 l 419 0 l 253 0 l 14 765 l 175 765 l 335 150 l 497 765 l 663 765 l 818 153 l 976 765 l 1132 765 m 801 971 l 494 819 l 494 936 l 801 1106 l 801 971 z "},"Ẅ":{"ha":1388,"x_min":26,"x_max":1361,"o":"m 1361 965 l 1075 0 l 896 0 l 693 731 l 478 0 l 300 -1 l 26 965 l 194 965 l 394 179 l 611 965 l 789 965 l 990 183 l 1192 965 l 1361 965 m 568 1065 q 509 1090 533 1065 q 485 1149 485 1114 q 509 1208 485 1183 q 568 1232 533 1232 q 627 1208 603 1232 q 651 1149 651 1183 q 627 1090 651 1114 q 568 1065 603 1065 m 807 1065 q 748 1090 772 1065 q 724 1149 724 1114 q 748 1208 724 1183 q 807 1232 772 1232 q 866 1208 842 1232 q 890 1149 890 1183 q 866 1090 890 1114 q 807 1065 842 1065 z "},"ẅ":{"ha":1146,"x_min":14,"x_max":1132,"o":"m 1132 765 l 894 0 l 728 0 l 574 565 l 419 0 l 253 0 l 14 765 l 175 765 l 335 150 l 497 765 l 663 765 l 818 153 l 976 765 l 1132 765 m 454 861 q 395 885 419 861 q 371 944 371 910 q 395 1003 371 979 q 454 1028 419 1028 q 513 1003 489 1028 q 538 944 538 979 q 513 885 538 910 q 454 861 489 861 m 693 861 q 634 885 658 861 q 610 944 610 910 q 634 1003 610 979 q 693 1028 658 1028 q 752 1003 728 1028 q 776 944 776 979 q 752 885 776 910 q 693 861 728 861 z "},"Ẽ":{"ha":728,"x_min":104,"x_max":638,"o":"m 263 838 l 263 554 l 596 554 l 596 425 l 263 425 l 263 129 l 638 129 l 638 0 l 104 0 l 104 967 l 638 967 l 638 838 l 263 838 m 138 1046 q 190 1167 149 1126 q 294 1208 232 1208 q 340 1200 321 1208 q 388 1175 360 1192 q 423 1154 408 1161 q 456 1147 438 1147 q 495 1162 479 1147 q 515 1206 511 1176 l 604 1206 q 551 1084 593 1125 q 447 1043 510 1043 q 400 1052 421 1043 q 354 1078 379 1061 q 316 1099 329 1093 q 286 1106 303 1106 q 247 1090 263 1106 q 226 1046 231 1075 l 138 1046 z "},"ẽ":{"ha":857,"x_min":51,"x_max":806,"o":"m 806 401 q 800 324 806 358 l 215 324 q 283 176 222 232 q 433 121 344 121 q 614 228 561 121 l 785 228 q 659 55 750 122 q 433 -12 568 -12 q 237 37 324 -12 q 101 176 150 86 q 51 383 51 265 q 99 591 51 501 q 234 729 147 681 q 433 778 321 778 q 626 731 542 778 q 758 598 711 683 q 806 401 806 513 m 640 451 q 578 592 639 539 q 426 644 517 644 q 286 592 344 644 q 217 451 228 540 l 640 451 m 203 844 q 256 966 214 925 q 360 1007 297 1007 q 406 999 386 1007 q 453 974 425 990 q 488 953 474 960 q 521 946 503 946 q 560 960 544 946 q 581 1004 576 975 l 669 1004 q 617 883 658 924 q 513 842 575 842 q 465 851 486 842 q 419 876 444 860 q 381 898 394 892 q 351 904 368 904 q 312 889 328 904 q 292 844 296 874 l 203 844 z "},"Ỳ":{"ha":840,"x_min":21,"x_max":819,"o":"m 819 965 l 500 350 l 500 0 l 342 0 l 342 350 l 21 965 l 197 965 l 421 492 l 644 965 l 819 965 m 564 1138 l 564 1021 l 257 1172 l 257 1307 l 564 1138 z "},"ỳ":{"ha":808,"x_min":14,"x_max":793,"o":"m 793 765 l 324 -360 l 160 -360 l 315 13 l 14 765 l 190 765 l 406 182 l 629 765 l 793 765 m 547 936 l 547 819 l 240 971 l 240 1106 l 547 936 z "},"Ỹ":{"ha":840,"x_min":21,"x_max":819,"o":"m 819 965 l 500 350 l 500 0 l 342 0 l 342 350 l 21 965 l 197 965 l 421 492 l 644 965 l 819 965 m 194 1046 q 247 1167 206 1126 q 351 1208 289 1208 q 397 1200 378 1208 q 444 1175 417 1192 q 480 1154 465 1161 q 513 1147 494 1147 q 552 1162 536 1147 q 572 1206 568 1176 l 661 1206 q 608 1084 650 1125 q 504 1043 567 1043 q 457 1052 478 1043 q 411 1078 436 1061 q 373 1099 386 1093 q 343 1106 360 1106 q 303 1090 319 1106 q 283 1046 288 1075 l 194 1046 z "},"ỹ":{"ha":808,"x_min":14,"x_max":793,"o":"m 793 765 l 324 -360 l 160 -360 l 315 13 l 14 765 l 190 765 l 406 182 l 629 765 l 793 765 m 178 844 q 231 966 189 925 q 335 1007 272 1007 q 381 999 361 1007 q 428 974 400 990 q 463 953 449 960 q 496 946 478 946 q 535 960 519 946 q 556 1004 551 975 l 644 1004 q 592 883 633 924 q 488 842 550 842 q 440 851 461 842 q 394 876 419 860 q 356 898 369 892 q 326 904 343 904 q 287 889 303 904 q 267 844 271 874 l 178 844 z "},"–":{"ha":983,"x_min":121,"x_max":864,"o":"m 864 569 l 864 436 l 121 436 l 121 569 l 864 569 z "},"—":{"ha":1283,"x_min":121,"x_max":1163,"o":"m 1163 569 l 1163 436 l 121 436 l 121 569 l 1163 569 z "},"‘":{"ha":336,"x_min":35,"x_max":292,"o":"m 207 635 l 35 635 l 181 965 l 292 965 l 207 635 z "},"’":{"ha":336,"x_min":44,"x_max":301,"o":"m 129 965 l 301 965 l 156 635 l 44 635 l 129 965 z "},"‚":{"ha":299,"x_min":7,"x_max":264,"o":"m 92 188 l 264 188 l 118 -143 l 7 -143 l 92 188 z "},"“":{"ha":586,"x_min":35,"x_max":542,"o":"m 207 635 l 35 635 l 181 965 l 292 965 l 207 635 m 457 635 l 285 635 l 431 965 l 542 965 l 457 635 z "},"”":{"ha":586,"x_min":44,"x_max":551,"o":"m 129 965 l 301 965 l 156 635 l 44 635 l 129 965 m 379 965 l 551 965 l 406 635 l 294 635 l 379 965 z "},"„":{"ha":551,"x_min":7,"x_max":517,"o":"m 92 188 l 264 188 l 118 -143 l 7 -143 l 92 188 m 344 188 l 517 188 l 371 -143 l 260 -143 l 344 188 z "},"†":{"ha":811,"x_min":68,"x_max":743,"o":"m 743 642 l 468 656 l 485 -364 l 326 -364 l 343 656 l 68 642 l 68 765 l 343 751 l 326 1088 l 485 1088 l 468 751 l 743 765 l 743 642 z "},"‡":{"ha":813,"x_min":69,"x_max":743,"o":"m 468 656 l 468 69 l 743 83 l 743 -40 l 468 -26 l 485 -364 l 326 -364 l 343 -26 l 69 -40 l 69 83 l 343 69 l 343 656 l 69 642 l 69 765 l 343 751 l 326 1088 l 485 1088 l 468 751 l 743 765 l 743 642 l 468 656 z "},"•":{"ha":642,"x_min":139,"x_max":503,"o":"m 319 282 q 228 306 269 282 q 163 372 188 331 q 139 463 139 413 q 192 592 139 539 q 319 644 244 644 q 450 592 397 644 q 503 463 503 539 q 450 334 503 386 q 319 282 397 282 z "},"…":{"ha":886,"x_min":67,"x_max":828,"o":"m 447 -10 q 375 19 404 -10 q 346 92 346 49 q 375 164 346 135 q 447 193 404 193 q 518 164 489 193 q 547 92 547 135 q 518 19 547 49 q 447 -10 489 -10 m 728 -10 q 656 19 685 -10 q 626 92 626 49 q 656 164 626 135 q 728 193 685 193 q 799 164 769 193 q 828 92 828 135 q 799 19 828 49 q 728 -10 769 -10 m 168 -10 q 96 19 125 -10 q 67 92 67 49 q 96 164 67 135 q 168 193 125 193 q 239 164 210 193 q 268 92 268 135 q 239 19 268 49 q 168 -10 210 -10 z "},"‰":{"ha":1475,"x_min":57,"x_max":1418,"o":"m 57 768 q 116 924 57 867 q 268 981 175 981 q 420 924 361 981 q 479 768 479 867 q 420 612 479 669 q 268 554 361 554 q 116 612 175 554 q 57 768 57 669 m 856 967 l 301 0 l 146 0 l 700 967 l 856 967 m 268 885 q 181 768 181 885 q 268 650 181 650 q 333 679 310 650 q 356 768 356 708 q 333 856 356 828 q 268 885 310 885 m 525 200 q 584 356 525 299 q 736 413 643 413 q 887 356 828 413 q 946 200 946 299 q 887 44 946 101 q 736 -14 828 -14 q 584 44 643 -14 q 525 200 525 101 m 996 200 q 1056 356 996 299 q 1207 413 1115 413 q 1359 356 1300 413 q 1418 200 1418 299 q 1359 44 1418 101 q 1207 -14 1300 -14 q 1056 44 1115 -14 q 996 200 996 101 m 735 317 q 670 288 693 317 q 647 200 647 260 q 670 112 647 140 q 735 83 693 83 q 799 112 776 83 q 822 200 822 140 q 799 288 822 260 q 735 317 776 317 m 1207 317 q 1119 200 1119 317 q 1207 83 1119 83 q 1272 112 1249 83 q 1294 200 1294 140 q 1272 288 1294 260 q 1207 317 1249 317 z "},"‹":{"ha":413,"x_min":63,"x_max":343,"o":"m 190 167 l 63 410 l 190 653 l 343 653 l 210 410 l 343 167 l 190 167 z "},"›":{"ha":413,"x_min":69,"x_max":350,"o":"m 201 410 l 69 653 l 221 653 l 350 410 l 221 167 l 69 167 l 201 410 z "},"⁄":{"ha":815,"x_min":71,"x_max":782,"o":"m 782 967 l 228 0 l 71 0 l 625 967 l 782 967 z "},"€":{"ha":1114,"x_min":36,"x_max":1076,"o":"m 629 135 q 783 172 717 135 q 886 281 849 208 l 1076 281 q 903 67 1022 142 q 629 -8 783 -8 q 340 80 467 -8 q 164 315 214 168 l 36 315 l 36 424 l 139 424 q 136 485 136 463 q 139 546 136 507 l 36 546 l 36 654 l 164 654 q 340 890 214 801 q 629 978 467 978 q 902 902 782 978 q 1076 688 1022 826 l 886 688 q 783 797 849 760 q 629 833 717 833 q 451 786 528 833 q 333 654 374 739 l 629 654 l 629 546 l 303 546 q 299 485 299 517 q 303 424 299 453 l 629 424 l 629 315 l 333 315 q 451 182 374 229 q 629 135 528 135 z "},"₺":{"ha":1181,"x_min":15,"x_max":1011,"o":"m 1011 594 q 890 129 1011 279 q 499 -21 768 -21 q 228 14 382 -21 l 228 335 l 21 288 l 21 400 l 228 447 l 228 565 l 15 517 l 15 625 l 228 674 l 228 974 l 390 974 l 390 711 l 618 764 l 618 653 l 390 601 l 390 483 l 611 533 l 611 422 l 390 372 l 390 138 q 499 128 436 128 q 768 246 688 128 q 849 594 849 364 l 1011 594 z "},"₽":{"ha":882,"x_min":36,"x_max":835,"o":"m 318 392 l 318 278 l 594 278 l 594 151 l 318 151 l 318 0 l 160 0 l 160 151 l 36 151 l 36 278 l 160 278 l 160 392 l 36 392 l 36 515 l 160 515 l 160 965 l 493 965 q 681 927 604 965 q 797 824 758 889 q 835 678 835 758 q 800 539 835 604 q 689 433 765 474 q 493 392 613 392 l 318 392 m 318 515 l 493 515 q 628 558 583 515 q 672 678 672 601 q 628 799 672 756 q 493 842 583 842 l 318 842 l 318 515 z "},"ℓ":{"ha":367,"x_min":104,"x_max":263,"o":"m 263 1028 l 263 0 l 104 0 l 104 1028 l 263 1028 z "},"™":{"ha":1126,"x_min":33,"x_max":1042,"o":"m 33 978 l 374 978 l 374 883 l 264 883 l 265 489 l 140 489 l 143 883 l 33 883 l 33 978 m 1042 978 l 1042 489 l 928 489 l 925 819 l 788 489 l 703 489 l 567 826 l 567 489 l 454 489 l 454 978 l 615 978 l 749 635 l 889 978 l 1042 978 z "},"Ω":{"ha":1090,"x_min":53,"x_max":1038,"o":"m 1038 485 q 992 278 1038 372 q 861 124 947 183 l 1022 124 l 1022 0 l 643 0 l 643 128 q 812 256 747 164 q 876 475 876 347 q 834 665 876 583 q 716 790 792 746 q 544 833 640 833 q 374 790 449 833 q 256 665 299 746 q 214 475 214 583 q 278 256 214 347 q 447 128 343 164 l 447 0 l 67 0 l 67 124 l 228 124 q 97 278 142 183 q 53 485 53 372 q 118 739 53 626 q 296 915 183 851 q 544 978 408 978 q 794 915 681 978 q 972 739 907 851 q 1038 485 1038 626 z "},"℮":{"ha":1051,"x_min":60,"x_max":992,"o":"m 951 189 q 538 -10 767 -10 q 292 46 400 -10 q 122 208 183 101 q 60 461 60 314 q 115 724 60 607 q 274 910 169 842 q 525 978 379 978 q 775 915 669 978 q 936 748 881 851 q 992 525 992 644 l 992 439 l 269 439 l 269 203 q 387 118 322 146 q 538 90 451 90 q 720 133 638 90 q 888 260 803 175 l 951 189 m 772 779 q 666 853 729 828 q 525 879 603 879 q 269 765 358 879 l 269 538 l 772 538 l 772 779 z "},"∂":{"ha":813,"x_min":53,"x_max":760,"o":"m 53 321 q 104 548 53 443 q 243 715 156 653 q 433 778 331 778 q 524 760 486 778 q 594 704 563 742 q 537 872 586 810 q 399 935 488 935 q 289 918 351 935 l 289 1007 q 422 1028 353 1028 q 605 971 529 1028 q 720 810 681 914 q 760 569 760 707 q 703 263 760 394 q 549 59 646 131 q 336 -12 451 -12 q 132 72 211 -12 q 53 321 53 157 m 583 446 q 544 593 583 542 q 439 644 506 644 q 324 601 375 644 q 243 485 272 558 q 214 321 214 411 q 252 171 214 221 q 354 121 290 121 q 469 165 417 121 q 553 285 522 210 q 583 446 583 360 z "},"∆":{"ha":967,"x_min":28,"x_max":939,"o":"m 549 967 l 939 122 l 939 0 l 28 0 l 28 122 l 418 967 l 549 967 m 190 122 l 776 122 l 483 786 l 190 122 z "},"∏":{"ha":1029,"x_min":43,"x_max":986,"o":"m 986 967 l 986 843 l 879 843 l 879 0 l 722 0 l 722 843 l 307 843 l 307 0 l 149 0 l 149 843 l 43 843 l 43 967 l 986 967 z "},"∑":{"ha":667,"x_min":56,"x_max":611,"o":"m 611 844 l 190 844 l 554 510 l 554 388 l 189 44 l 611 44 l 611 -78 l 56 -78 l 56 107 l 408 446 l 56 783 l 56 967 l 611 967 l 611 844 z "},"−":{"ha":813,"x_min":121,"x_max":692,"o":"m 692 569 l 692 436 l 121 436 l 121 569 l 692 569 z "},"∕":{"ha":714,"x_min":85,"x_max":618,"o":"m 618 1311 l 240 -243 l 85 -243 l 461 1311 l 618 1311 z "},"∙":{"ha":339,"x_min":72,"x_max":274,"o":"m 174 364 q 101 393 131 364 q 72 465 72 422 q 101 538 72 508 q 174 567 131 567 q 244 538 215 567 q 274 465 274 508 q 244 393 274 422 q 174 364 215 364 z "},"√":{"ha":1151,"x_min":29,"x_max":1136,"o":"m 1136 1221 l 436 -60 l 356 -60 l 172 264 l 76 207 l 29 286 l 261 424 l 426 131 l 1022 1221 l 1136 1221 z "},"∞":{"ha":975,"x_min":38,"x_max":938,"o":"m 715 699 q 874 641 810 699 q 938 483 938 583 q 908 368 938 417 q 826 293 878 319 q 714 267 775 267 q 591 301 646 267 q 483 394 536 335 q 388 302 446 338 q 260 267 329 267 q 100 324 163 267 q 38 482 38 382 q 67 597 38 549 q 149 672 97 646 q 261 699 200 699 q 385 663 332 699 q 489 567 439 628 q 585 663 526 626 q 715 699 644 699 m 269 381 q 351 406 311 381 q 418 474 390 432 q 340 557 374 529 q 269 585 307 585 q 197 558 225 585 q 169 482 169 531 q 197 407 169 433 q 269 381 225 381 m 706 381 q 778 408 750 381 q 806 483 806 435 q 778 558 806 532 q 706 585 750 585 q 622 558 663 585 q 553 486 581 532 q 629 407 594 433 q 706 381 664 381 z "},"∫":{"ha":375,"x_min":-58,"x_max":442,"o":"m 175 1071 q 246 1235 188 1186 q 411 1285 304 1285 l 442 1285 l 428 1153 l 406 1153 q 356 1134 372 1153 q 333 1071 339 1115 l 208 -89 q 137 -252 196 -203 q -29 -301 78 -301 l -58 -301 l -46 -171 l -22 -171 q 28 -151 11 -171 q 49 -89 44 -132 l 175 1071 z "},"≈":{"ha":768,"x_min":50,"x_max":718,"o":"m 50 250 q 128 423 71 367 q 271 479 185 479 q 340 467 310 479 q 408 429 369 454 q 463 399 443 408 q 508 389 483 389 q 570 412 543 389 q 603 476 597 435 l 718 476 q 640 303 697 360 q 496 247 582 247 q 428 260 457 247 q 360 297 399 272 q 307 328 329 318 q 260 338 285 338 q 197 315 224 338 q 164 250 169 292 l 50 250 m 50 558 q 128 731 71 675 q 271 788 185 788 q 340 775 310 788 q 408 738 369 763 q 463 707 443 717 q 508 697 483 697 q 570 720 543 697 q 603 785 597 743 l 718 785 q 640 612 697 668 q 496 556 582 556 q 428 568 457 556 q 360 606 399 581 q 307 636 329 626 q 260 646 285 646 q 197 623 224 646 q 164 558 169 600 l 50 558 z "},"≠":{"ha":1044,"x_min":168,"x_max":907,"o":"m 793 726 l 907 726 l 907 593 l 676 593 l 517 411 l 907 411 l 907 278 l 400 278 l 285 146 l 168 146 l 283 278 l 168 278 l 168 411 l 400 411 l 560 593 l 168 593 l 168 726 l 676 726 l 790 857 l 907 857 l 793 726 z "},"≤":{"ha":763,"x_min":118,"x_max":646,"o":"m 328 554 l 646 289 l 438 289 l 118 553 l 438 817 l 646 817 l 328 554 m 126 213 l 639 213 l 639 93 l 126 93 l 126 213 z "},"≥":{"ha":763,"x_min":118,"x_max":646,"o":"m 118 289 l 435 554 l 118 817 l 325 817 l 646 553 l 325 289 l 118 289 m 124 213 l 636 213 l 636 93 l 124 93 l 124 213 z "},"◊":{"ha":774,"x_min":43,"x_max":731,"o":"m 731 488 l 388 143 l 43 488 l 388 831 l 731 488 m 214 488 l 388 313 l 561 488 l 388 661 l 214 488 z "},"ﬁ":{"ha":828,"x_min":33,"x_max":746,"o":"m 283 765 l 724 765 l 724 0 l 565 0 l 565 636 l 283 636 l 283 0 l 124 0 l 124 636 l 33 636 l 33 765 l 124 765 l 124 819 q 194 1012 124 951 q 414 1072 264 1072 l 414 940 q 313 913 342 940 q 283 819 283 886 l 283 765 m 644 867 q 574 896 603 867 q 544 968 544 925 q 574 1040 544 1011 q 644 1069 603 1069 q 717 1040 688 1069 q 746 968 746 1011 q 717 896 746 925 q 644 867 688 867 z "},"ﬂ":{"ha":828,"x_min":33,"x_max":724,"o":"m 425 636 l 283 636 l 283 0 l 124 0 l 124 636 l 33 636 l 33 765 l 124 765 l 124 819 q 194 1012 124 951 q 414 1072 264 1072 l 414 940 q 313 913 342 940 q 283 819 283 886 l 283 765 l 425 765 l 425 636 m 724 1028 l 724 0 l 565 0 l 565 1028 l 724 1028 z "}}}
